<?xml version="1.0" standalone="no"?>
<!DOCTYPE svg PUBLIC "-//W3C//DTD SVG 1.1//EN" "http://www.w3.org/Graphics/SVG/1.1/DTD/svg11.dtd" >
<!--
Created with mf2outline.
-->
<svg xmlns="http://www.w3.org/2000/svg" xmlns:xlink="http://www.w3.org/1999/xlink" version="1.1">
<metadata>
Created by FontForge 20201107 at Fri Dec  8 17:37:37 2023
 By 
Copyright (c) 2023, Metaflop (http://www.metaflop.com), Simon Egli, Marco Mueller, Alexis Reigel, with Reserved Font Name Bespoke. Dual licensed under the GPL v3 (http://www.gnu.org/copyleft/gpl.html) and the OFL v1.1 (http://scripts.sil.org/OFL_web).
</metadata>
<defs>
<font id="Bespoke-YuzHjrPSA-" horiz-adv-x="822" >
  <font-face 
    font-family="Bespoke"
    font-weight="500"
    font-stretch="normal"
    units-per-em="1000"
    panose-1="2 0 5 3 0 0 0 0 0 0"
    ascent="800"
    descent="-200"
    x-height="722"
    cap-height="860"
    bbox="-265 -363 1842 1188"
    underline-thickness="50"
    underline-position="-100"
    unicode-range="U+0020-FB04"
  />
    <missing-glyph />
    <glyph glyph-name="fi" unicode="fi" horiz-adv-x="813" 
d="M918 822c0 47 -60 53 -104 53h-32c-33 0 -68 -3 -103 -20c-25 -12 -47 -33 -56 -56l-31 -77h406l-289 -722h-115l258 646h-290l-259 -646h-115l258 646h-124l30 76h125l30 77c18 46 60 88 109 112c67 33 134 40 197 40h32c86 0 196 -15 194 -107l-124 -40c2 6 3 12 3 18z
" />
    <glyph glyph-name="guillemotright" unicode="&#x3e;&#x3e;" horiz-adv-x="813" 
d="M551 361l-321 -361h-152l321 361l-32 361h152zM880 361l-321 -361h-152l321 361l-32 361h151z" />
    <glyph glyph-name="guillemotleft" unicode="&#x3c;&#x3c;" horiz-adv-x="813" 
d="M374 361l33 -361h-152l-33 361l322 361h152zM703 361l32 -361h-152l-32 361l321 361h152z" />
    <glyph glyph-name="quotedblright" unicode="&#x2019;&#x2019;" horiz-adv-x="796" 
d="M367 580l239 280h116l-270 -280h-85zM890 860h145l-273 -280h-108z" />
    <glyph glyph-name="exclamdown" unicode="&#x21;&#x2018;" horiz-adv-x="496" 
d="M54 -340l333 832h116l-333 -832h-116zM496 621c-27 0 -49 9 -49 37c0 10 3 22 7 33c8 19 20 38 39 51s40 18 59 18c27 0 49 -9 49 -37c0 -10 -3 -21 -7 -32c-8 -19 -20 -39 -39 -52s-40 -18 -59 -18z" />
    <glyph glyph-name="fl" unicode="fl" horiz-adv-x="856" 
d="M322 646l30 76h125l46 115c14 34 45 66 81 84c49 25 99 30 145 30h16c53 0 113 -6 134 -45l-115 -69c2 5 3 8 3 12c0 21 -31 26 -53 26h-16c-34 0 -68 -12 -79 -38l-46 -115h141l-31 -76h-141l-258 -646h-116l259 646h-125zM637 0l380 950h116l-380 -950h-116z" />
    <glyph glyph-name="questiondown" unicode="&#x3f;&#x2018;" horiz-adv-x="744" 
d="M266 -341c-109 0 -207 37 -207 152c0 38 10 81 27 123c30 76 82 152 157 204c66 46 139 66 207 71l113 283h115l-143 -358h-79c-49 0 -104 -16 -150 -52c-51 -40 -83 -95 -104 -148c-14 -34 -24 -69 -24 -100c0 -70 51 -99 118 -99h43c49 0 104 16 150 52
c12 9 23 19 33 30l54 -68l-24 -18c-78 -54 -165 -72 -243 -72h-43zM672 621c-27 0 -49 9 -49 37c0 10 3 22 7 33c8 19 20 38 39 51s40 18 59 18c27 0 49 -9 49 -37c0 -10 -3 -21 -7 -32c-8 -19 -20 -39 -39 -52s-40 -18 -59 -18z" />
    <glyph glyph-name="endash" unicode="&#x2d;&#x2d;" horiz-adv-x="813" 
d="M181 323l31 76h709l-31 -76h-709z" />
    <glyph glyph-name="emdash" unicode="&#x2013;&#x2d;" horiz-adv-x="1419" 
d="M181 323l31 76h1314l-30 -76h-1315z" />
    <glyph glyph-name="quotedblleft" unicode="&#x2018;&#x2018;" horiz-adv-x="796" 
d="M352 580l269 280h86l-240 -280h-115zM908 860h108l-235 -280h-146z" />
    <glyph glyph-name="ring" unicode="&#x2da;" horiz-adv-x="363" 
d="M476 713c50 0 99 35 99 87c0 27 -25 35 -51 35h-17c-19 0 -39 -4 -58 -16c-17 -11 -29 -28 -36 -45c-4 -9 -6 -18 -6 -26c0 -27 25 -35 51 -35h18zM438 663c-54 0 -111 12 -111 69c0 13 3 27 9 42c13 32 38 63 71 82c40 23 82 29 120 29h17c54 0 111 -12 111 -69
c0 -13 -2 -27 -8 -42c-13 -32 -39 -63 -72 -82c-40 -23 -82 -29 -120 -29h-17z" />
    <glyph glyph-name="rcaron" unicode="&#x159;" horiz-adv-x="510" 
d="M104 0l289 722h115l-47 -118c11 13 23 27 36 39c51 49 116 80 174 80h41c35 0 68 -4 97 -15l-59 -81c-18 13 -42 20 -69 20h-40c-48 0 -102 -21 -145 -60c-54 -50 -87 -112 -111 -172l-166 -415h-115zM797 1102h99l-219 -172h-133l-81 172h99l74 -110z" />
    <glyph glyph-name="Eng" unicode="&#x14a;" horiz-adv-x="1081" 
d="M486 -195c0 -52 42 -70 91 -70h32c35 0 75 9 110 34c35 26 59 63 73 99l74 184l-347 655l-282 -707h-116l344 860h67l374 -707l283 707h115l-397 -992c-23 -58 -65 -117 -125 -155c-67 -42 -139 -54 -204 -54h-32c-86 0 -170 23 -179 107l119 50v-11z" />
    <glyph glyph-name="Q" unicode="Q" horiz-adv-x="1211" 
d="M1226 591c0 146 -122 194 -261 194h-91c-99 0 -209 -23 -308 -92c-97 -67 -162 -166 -201 -263c-22 -55 -36 -111 -36 -161c0 -146 122 -194 261 -194h91c63 0 131 9 197 34l-143 164h203l76 -87c83 66 141 155 176 244c22 55 36 111 36 161zM560 -1
c-181 0 -351 55 -351 246c0 58 16 121 41 185c48 120 132 239 253 319c131 86 273 112 402 112h90c181 0 351 -55 351 -246c0 -58 -16 -121 -41 -185c-46 -114 -124 -228 -236 -307l108 -123h-203l-43 49c-94 -37 -191 -50 -281 -50h-90z" />
    <glyph glyph-name="Abreve" unicode="&#x102;" horiz-adv-x="960" 
d="M17 0l774 860h67l85 -860h-116l-23 227h-478l-204 -227h-105zM659 1054c0 -48 65 -53 110 -53h34c34 0 70 3 107 19c25 11 48 31 57 54h92c-17 -43 -55 -82 -100 -104c-62 -31 -124 -36 -183 -36h-34c-79 0 -180 12 -180 96c0 14 3 29 9 44h92c-3 -7 -4 -14 -4 -20z
M797 303l-40 403l-363 -403h403z" />
    <glyph glyph-name="i" unicode="i" horiz-adv-x="329" 
d="M107 0l289 722h115l-289 -722h-115zM433 913c-28 0 -51 10 -51 39c0 10 2 22 7 34c8 20 21 40 41 54s41 19 61 19c28 0 51 -10 51 -39c0 -10 -2 -22 -7 -34c-8 -20 -21 -40 -41 -54s-41 -19 -61 -19z" />
    <glyph glyph-name="quoteright" unicode="&#x2019;" horiz-adv-x="441" 
d="M560 860h146l-275 -280h-108z" />
    <glyph glyph-name="Gbreve" unicode="&#x11e;" horiz-adv-x="1237" 
d="M329 269c0 -146 122 -194 261 -194h91c96 0 201 15 301 74c84 50 147 129 179 210l13 33h-412l31 76h527l-187 -468h-115l79 198c-32 -40 -71 -75 -115 -105c-107 -71 -226 -94 -332 -94h-90c-181 0 -351 55 -351 246c0 58 16 121 41 185c48 120 132 239 253 319
c131 86 273 112 402 112h90c165 0 321 -45 347 -199l-117 -54c-9 133 -127 177 -260 177h-91c-99 0 -209 -23 -308 -92c-97 -67 -162 -166 -201 -263c-22 -55 -36 -111 -36 -161zM785 1054c0 -48 65 -53 110 -53h33c34 0 71 3 108 19c25 11 47 31 56 54h93
c-17 -43 -56 -82 -101 -104c-62 -31 -124 -36 -183 -36h-33c-79 0 -181 12 -181 96c0 14 3 29 9 44h93c-3 -7 -4 -14 -4 -20z" />
    <glyph glyph-name="Ohungarumlaut" unicode="&#x150;" horiz-adv-x="1211" 
d="M677 924l208 172h129l-241 -172h-96zM1144 1096h130l-242 -172h-95zM1226 591c0 146 -122 194 -261 194h-91c-99 0 -209 -23 -308 -92c-97 -67 -162 -166 -201 -263c-22 -55 -36 -111 -36 -161c0 -146 122 -194 261 -194h91c99 0 209 23 308 92c97 67 162 166 201 263
c22 55 36 111 36 161zM560 -1c-181 0 -351 55 -351 246c0 58 16 121 41 185c48 120 132 239 253 319c131 86 273 112 402 112h90c181 0 351 -55 351 -246c0 -58 -16 -121 -41 -185c-48 -120 -132 -239 -253 -319c-131 -86 -273 -112 -402 -112h-90z" />
    <glyph glyph-name="racute" unicode="&#x155;" horiz-adv-x="510" 
d="M104 0l289 722h115l-47 -118c11 13 23 27 36 39c51 49 116 80 174 80h41c35 0 68 -4 97 -15l-59 -81c-18 13 -42 20 -69 20h-40c-48 0 -102 -21 -145 -60c-54 -50 -87 -112 -111 -172l-166 -415h-115zM756 1102h133l-255 -172h-99z" />
    <glyph glyph-name="udieresis" unicode="&#xfc;" 
d="M296 173c0 -70 52 -98 119 -98h43c48 0 102 15 149 51c50 39 82 91 103 143l181 453h116l-289 -722h-116l43 107c-12 -13 -24 -26 -38 -38c-54 -47 -120 -70 -179 -70h-43c-109 0 -209 36 -209 151c0 37 11 78 27 119l181 453h116l-182 -453c-13 -33 -22 -66 -22 -96z
M519 913c-28 0 -51 10 -51 39c0 10 3 22 8 34c8 20 20 40 40 54s42 19 62 19c28 0 51 -10 51 -39c0 -10 -3 -22 -8 -34c-8 -20 -20 -40 -40 -54s-42 -19 -62 -19zM831 913c-28 0 -51 10 -51 39c0 10 2 22 7 34c8 20 21 40 41 54s41 19 61 19c28 0 51 -10 51 -39
c0 -10 -2 -22 -7 -34c-8 -20 -21 -40 -41 -54s-41 -19 -61 -19z" />
    <glyph glyph-name="slash" unicode="/" horiz-adv-x="649" 
d="M17 -43l804 946h154l-803 -946h-155z" />
    <glyph glyph-name="asciitilde" unicode="~" horiz-adv-x="848" 
d="M418 376c-69 0 -112 -74 -132 -123h-116c22 54 58 109 111 147c54 38 114 52 168 52c112 0 157 -105 269 -105c69 0 113 74 133 123h115c-22 -54 -57 -109 -110 -147c-54 -38 -114 -52 -168 -52c-112 0 -158 105 -270 105z" />
    <glyph glyph-name="section" unicode="&#xa7;" 
d="M584 58c52 -15 102 -46 102 -110c0 -19 -5 -38 -13 -59c-26 -65 -76 -130 -143 -170c-79 -47 -162 -60 -238 -60h-43c-96 0 -195 21 -214 107l117 59c-1 -70 61 -90 127 -90h43c47 0 98 9 145 40c43 28 74 71 91 114c9 22 14 45 14 65c0 69 -62 88 -127 88h-43
c-106 0 -220 24 -220 136c0 26 6 54 17 82c25 63 75 123 140 161c32 19 65 32 98 41c-52 15 -101 46 -101 110c0 19 4 39 12 60c26 65 76 129 143 169c79 47 162 60 238 60h43c99 0 201 -23 216 -115l-119 -54c3 72 -60 93 -127 93h-43c-47 0 -98 -9 -145 -40
c-43 -28 -74 -70 -91 -113c-9 -22 -14 -46 -14 -66c0 -69 62 -88 127 -88h43c106 0 220 -24 220 -136c0 -26 -6 -54 -17 -82c-25 -63 -75 -123 -140 -161c-32 -19 -65 -32 -98 -41zM719 317c0 68 -66 85 -130 85h-43c-46 0 -97 -8 -144 -37c-41 -25 -71 -65 -87 -105
c-8 -20 -13 -39 -13 -57c0 -68 66 -85 130 -85h43c46 0 97 8 144 37c41 25 71 65 87 105c8 20 13 39 13 57z" />
    <glyph glyph-name="guilsinglright" unicode="&#x203a;" horiz-adv-x="476" 
d="M542 361l-313 -361h-151l313 361l-24 361h151z" />
    <glyph glyph-name="Edieresis" unicode="&#xcb;" horiz-adv-x="804" 
d="M121 0l344 860h623l-31 -76h-507l-126 -316h449l-30 -76h-450l-126 -316h507l-30 -76h-623zM545 908c-28 0 -51 10 -51 39c0 10 3 22 8 34c8 20 20 40 40 54s42 18 62 18c28 0 51 -10 51 -39c0 -10 -3 -21 -8 -33c-8 -20 -20 -40 -40 -54s-42 -19 -62 -19zM857 908
c-28 0 -51 10 -51 39c0 10 2 22 7 34c8 20 21 40 41 54s41 18 61 18c28 0 51 -10 51 -39c0 -10 -2 -21 -7 -33c-8 -20 -21 -40 -41 -54s-41 -19 -61 -19z" />
    <glyph glyph-name="eng" unicode="&#x14b;" 
d="M819 563c0 55 -31 84 -84 84h-43c-57 0 -120 -11 -178 -50c-54 -36 -91 -90 -113 -144l-182 -453h-115l289 722h115l-47 -118c16 18 33 34 53 49c65 50 140 70 208 70h43c96 0 173 -38 173 -139c0 -41 -12 -86 -30 -131l-234 -585c-23 -57 -60 -115 -116 -155
s-119 -54 -176 -54h-22c-77 0 -144 28 -147 107l121 44c-1 -6 -2 -12 -2 -18c0 -37 22 -57 58 -57h23c76 0 123 79 145 133l234 585c15 38 27 76 27 110z" />
    <glyph glyph-name="r" unicode="r" horiz-adv-x="510" 
d="M104 0l289 722h115l-47 -118c11 13 23 27 36 39c51 49 116 80 174 80h41c35 0 68 -4 97 -15l-59 -81c-18 13 -42 20 -69 20h-40c-48 0 -102 -21 -145 -60c-54 -50 -87 -112 -111 -172l-166 -415h-115z" />
    <glyph glyph-name="u" unicode="u" 
d="M296 173c0 -70 52 -98 119 -98h43c48 0 102 15 149 51c50 39 82 91 103 143l181 453h116l-289 -722h-116l43 107c-12 -13 -24 -26 -38 -38c-54 -47 -120 -70 -179 -70h-43c-109 0 -209 36 -209 151c0 37 11 78 27 119l181 453h116l-182 -453c-13 -33 -22 -66 -22 -96z
" />
    <glyph glyph-name="Odieresis" unicode="&#xd6;" horiz-adv-x="1211" 
d="M718 908c-28 0 -51 10 -51 39c0 10 3 22 8 34c8 20 20 40 40 54s42 18 62 18c28 0 51 -10 51 -39c0 -10 -3 -21 -8 -33c-8 -20 -20 -40 -40 -54s-42 -19 -62 -19zM1030 908c-28 0 -51 10 -51 39c0 10 2 22 7 34c8 20 21 40 41 54s41 18 61 18c28 0 51 -10 51 -39
c0 -10 -2 -21 -7 -33c-8 -20 -21 -40 -41 -54s-41 -19 -61 -19zM1226 591c0 146 -122 194 -261 194h-91c-99 0 -209 -23 -308 -92c-97 -67 -162 -166 -201 -263c-22 -55 -36 -111 -36 -161c0 -146 122 -194 261 -194h91c99 0 209 23 308 92c97 67 162 166 201 263
c22 55 36 111 36 161zM560 -1c-181 0 -351 55 -351 246c0 58 16 121 41 185c48 120 132 239 253 319c131 86 273 112 402 112h90c181 0 351 -55 351 -246c0 -58 -16 -121 -41 -185c-48 -120 -132 -239 -253 -319c-131 -86 -273 -112 -402 -112h-90z" />
    <glyph glyph-name="Zdotaccent" unicode="&#x17b;" horiz-adv-x="882" 
d="M357 784l30 76h796l-27 -67l-891 -717h604l-30 -76h-796l27 67l891 717h-604zM710 908c-28 0 -51 10 -51 39c0 10 2 22 7 34c8 20 21 40 41 54s41 18 61 18c28 0 51 -10 51 -39c0 -10 -2 -21 -7 -33c-8 -20 -21 -40 -41 -54s-41 -19 -61 -19z" />
    <glyph glyph-name="Igrave" unicode="&#xcc;" horiz-adv-x="392" 
d="M138 0l344 860h116l-344 -860h-116zM331 1096h133l83 -172h-99z" />
    <glyph glyph-name="P" unicode="P" horiz-adv-x="882" 
d="M820 860c130 0 268 -30 268 -168c0 -32 -8 -68 -22 -104c-31 -78 -92 -154 -173 -201c-97 -57 -198 -70 -291 -70h-239l-126 -317h-116l344 860h355zM967 667c0 94 -90 117 -178 117h-239l-156 -391h239c63 0 132 11 197 51c57 35 98 89 120 144c11 27 17 54 17 79z" />
    <glyph glyph-name="tcaron" unicode="&#x165;" horiz-adv-x="467" 
d="M287 646l30 76h148l91 228h115l-91 -228h148l-10 -25l214 253h146l-275 -280h-96l-10 -24h-147l-259 -646h-115l258 646h-147z" />
    <glyph glyph-name="Scedilla" unicode="&#x15e;" horiz-adv-x="900" 
d="M387 -1c-114 4 -239 35 -239 157v6l122 39c-1 -7 -2 -14 -2 -20c0 -89 95 -106 179 -106h57c61 0 127 4 191 40c50 28 88 77 107 125c8 19 11 37 11 54c0 44 -26 76 -73 79l-259 46c-90 6 -149 59 -149 137c0 22 4 45 14 70c27 69 80 138 151 178c90 50 181 57 267 57h52
c117 0 248 -25 248 -149l-121 -28c2 83 -81 101 -158 101h-51c-56 0 -115 -5 -173 -39c-47 -28 -81 -74 -99 -120c-8 -20 -12 -38 -12 -56c0 -41 22 -72 66 -75l260 -46c93 -6 156 -60 156 -140c0 -21 -4 -44 -14 -69c-28 -71 -84 -142 -158 -182c-94 -51 -190 -59 -280 -59
l-55 -71h6c75 0 163 -14 163 -94c0 -16 -4 -33 -11 -51c-17 -43 -53 -84 -98 -108c-57 -31 -115 -38 -170 -38h-29c-74 0 -160 15 -162 92l97 36c-1 -4 -1 -9 -1 -13c0 -45 48 -54 90 -54h29c31 0 64 4 96 22c26 14 46 38 56 63c4 11 6 20 6 30c0 45 -48 55 -90 55h-122z
" />
    <glyph glyph-name="b" unicode="b" horiz-adv-x="891" 
d="M440 -1c-95 0 -149 55 -149 153v6l-63 -158h-116l380 950h116l-154 -385c18 23 37 44 59 64c64 60 145 94 217 94h53c126 0 224 -51 224 -184c0 -55 -17 -117 -41 -178c-39 -97 -98 -196 -192 -268c-88 -67 -190 -94 -281 -94h-53zM889 518c0 86 -54 129 -137 129h-52
c-61 0 -132 -25 -188 -74c-69 -60 -110 -137 -140 -212c-21 -54 -37 -108 -37 -157c0 -86 53 -129 136 -129h52c61 0 132 25 188 74c69 60 110 137 140 212c21 54 38 108 38 157z" />
    <glyph glyph-name="Yacute" unicode="&#xdd;" horiz-adv-x="900" 
d="M353 860h121l143 -441l496 441h122l-595 -529l-132 -331h-116l132 331zM870 1096h133l-254 -172h-99z" />
    <glyph glyph-name="ecircumflex" unicode="&#xea;" horiz-adv-x="856" 
d="M292 207c0 -89 57 -132 143 -132h55c60 0 128 17 187 60c25 18 45 38 63 61l77 -52c-23 -25 -48 -47 -77 -66c-91 -61 -191 -79 -281 -79h-54c-129 0 -232 50 -232 186c0 55 17 116 41 176c39 97 99 197 194 268c90 68 194 94 287 94h54c129 0 232 -50 232 -186
c0 -55 -17 -116 -41 -176l-15 -38h-610c-14 -40 -23 -80 -23 -116zM862 515c0 89 -57 132 -143 132h-55c-63 0 -135 -24 -193 -74s-97 -111 -126 -174h494c14 40 23 80 23 116zM752 1040l-162 -110h-99l219 172h133l81 -172h-98z" />
    <glyph glyph-name="ocircumflex" unicode="&#xf4;" horiz-adv-x="865" 
d="M862 515c0 89 -57 132 -143 132h-55c-63 0 -135 -24 -193 -74c-70 -60 -112 -137 -142 -212c-21 -53 -37 -106 -37 -154c0 -89 57 -132 143 -132h55c63 0 135 24 193 74c70 60 112 137 142 212c21 53 37 106 37 154zM405 -1c-129 0 -232 50 -232 186c0 55 17 116 41 176
c39 97 99 197 194 268c90 68 194 94 287 94h54c129 0 232 -50 232 -186c0 -55 -17 -116 -41 -176c-39 -97 -99 -197 -194 -268c-90 -68 -194 -94 -287 -94h-54zM752 1040l-162 -110h-99l219 172h133l81 -172h-98z" />
    <glyph glyph-name="eogonek" unicode="&#x119;" horiz-adv-x="856" 
d="M292 207c0 -89 57 -132 143 -132h55c60 0 128 17 187 60c25 18 45 38 63 61l77 -52c-23 -25 -48 -47 -77 -66c-88 -59 -185 -78 -273 -79l-164 -116c-47 -33 -110 -52 -129 -100c-4 -11 -7 -21 -7 -31c0 -45 48 -54 90 -54h29c31 0 64 4 96 22c14 8 26 18 36 30l34 -63
c-53 -37 -129 -50 -190 -50h-29c-75 0 -162 15 -162 95c0 16 3 33 10 51c35 88 154 103 235 161l79 55c-124 3 -222 54 -222 186c0 55 17 116 41 176c39 97 99 197 194 268c90 68 194 94 287 94h54c129 0 232 -50 232 -186c0 -55 -17 -116 -41 -176l-15 -38h-610
c-14 -40 -23 -80 -23 -116zM862 515c0 89 -57 132 -143 132h-55c-63 0 -135 -24 -193 -74s-97 -111 -126 -174h494c14 40 23 80 23 116z" />
    <glyph glyph-name="ffi" unicode="&#xfb03;" horiz-adv-x="1202" 
d="M1308 823c0 45 -55 52 -98 52h-30c-32 0 -65 -3 -99 -20c-24 -12 -45 -33 -54 -56l-31 -77h392l-289 -722h-116l259 646h-276l-259 -646h-115l258 646h-289l-258 -646h-116l259 646h-124l30 76h124l40 100c15 38 46 73 86 95c50 28 102 34 150 34h17
c62 0 132 -12 141 -70l-123 -56c2 6 3 12 3 17c0 27 -27 33 -52 33h-17c-18 0 -37 -3 -56 -14c-16 -9 -28 -24 -34 -39l-39 -100h289l30 77c18 46 59 87 107 112c65 33 131 40 192 40h31c85 0 190 -15 187 -107l-123 -39c2 6 3 12 3 18z" />
    <glyph glyph-name="plus" unicode="+" horiz-adv-x="848" 
d="M655 722h116l-130 -323h297l-30 -76h-297l-129 -323h-116l129 323h-297l31 76h297z" />
    <glyph glyph-name="Eogonek" unicode="&#x118;" horiz-adv-x="804" 
d="M505 -363c-75 0 -163 15 -163 95c0 16 4 33 11 51c35 88 154 103 235 161l80 56h-547l344 860h623l-31 -76h-507l-126 -316h449l-30 -76h-450l-126 -316h507l-30 -76h-4l-166 -117c-47 -33 -110 -52 -129 -100c-4 -11 -6 -21 -6 -31c0 -45 48 -54 90 -54h29
c31 0 64 4 96 22c14 8 25 18 35 30l35 -63c-53 -37 -129 -50 -190 -50h-29z" />
    <glyph glyph-name="R" unicode="R" horiz-adv-x="874" 
d="M820 860c128 0 272 -27 272 -163c0 -29 -7 -61 -20 -93c-30 -74 -91 -146 -168 -189c-52 -29 -105 -46 -158 -55l119 -360h-125l-112 349h-252l-139 -349h-116l344 860h355zM971 672c0 92 -95 112 -182 112h-239l-143 -359h239c63 0 130 9 195 47c54 31 95 80 116 132
c9 23 14 47 14 68z" />
    <glyph glyph-name="ecaron" unicode="&#x11b;" horiz-adv-x="856" 
d="M292 207c0 -89 57 -132 143 -132h55c60 0 128 17 187 60c25 18 45 38 63 61l77 -52c-23 -25 -48 -47 -77 -66c-91 -61 -191 -79 -281 -79h-54c-129 0 -232 50 -232 186c0 55 17 116 41 176c39 97 99 197 194 268c90 68 194 94 287 94h54c129 0 232 -50 232 -186
c0 -55 -17 -116 -41 -176l-15 -38h-610c-14 -40 -23 -80 -23 -116zM894 1102h99l-219 -172h-133l-81 172h99l74 -110zM862 515c0 89 -57 132 -143 132h-55c-63 0 -135 -24 -193 -74s-97 -111 -126 -174h494c14 40 23 80 23 116z" />
    <glyph glyph-name="V" unicode="V" horiz-adv-x="910" 
d="M358 860h116l51 -693l606 693h109l-752 -860h-67z" />
    <glyph glyph-name="AE" unicode="&#xc6;" horiz-adv-x="1393" 
d="M17 0l955 860h704l-30 -76h-531l-126 -316h474l-31 -76h-474l-126 -316h530l-30 -76h-646l114 284h-353l-316 -284h-114zM531 360h299l169 421z" />
    <glyph glyph-name="bracketright" unicode="]" horiz-adv-x="484" 
d="M413 903h277l-497 -1243h-277l30 76h162l436 1091h-161z" />
    <glyph glyph-name="H" unicode="H" horiz-adv-x="1038" 
d="M121 0l344 860h116l-157 -392h565l156 392h116l-344 -860h-116l157 392h-565l-156 -392h-116z" />
    <glyph glyph-name="exclam" unicode="!" horiz-adv-x="496" 
d="M298 269l236 591h116l-237 -591h-115zM248 0c-27 0 -49 9 -49 37c0 10 3 22 7 33c8 19 20 38 39 51s40 19 59 19c27 0 49 -10 49 -38c0 -10 -3 -21 -7 -32c-8 -19 -20 -39 -39 -52s-40 -18 -59 -18z" />
    <glyph glyph-name="Aogonek" unicode="&#x104;" horiz-adv-x="960" 
d="M698 -363c-75 0 -162 15 -162 95c0 16 4 33 11 51c35 88 154 103 235 161l79 56h-34l-23 227h-478l-204 -227h-105l774 860h67l80 -806l10 7l-8 -33l3 -28h-9l-166 -117c-47 -33 -110 -52 -129 -100c-4 -11 -6 -21 -6 -31c0 -45 48 -54 90 -54h29c31 0 64 4 96 22
c14 8 25 18 35 30l35 -63c-53 -37 -130 -50 -191 -50h-29zM797 303l-40 403l-363 -403h403z" />
    <glyph glyph-name="L" unicode="L" horiz-adv-x="796" 
d="M121 0l344 860h116l-314 -784h507l-30 -76h-623z" />
    <glyph glyph-name="comma" unicode="," horiz-adv-x="407" 
d="M208 144h155l-326 -361h-115z" />
    <glyph glyph-name="ydieresis" unicode="&#xff;" horiz-adv-x="727" 
d="M298 722h115l22 -555l465 555h107l-891 -1062h-106l314 375zM476 913c-28 0 -51 10 -51 39c0 10 3 22 8 34c8 20 20 40 40 54s41 19 61 19c28 0 52 -10 52 -39c0 -10 -3 -22 -8 -34c-8 -20 -20 -40 -40 -54s-42 -19 -62 -19zM788 913c-28 0 -52 10 -52 39c0 10 3 22 8 34
c8 20 20 40 40 54s42 19 62 19c28 0 51 -10 51 -39c0 -10 -3 -22 -8 -34c-8 -20 -20 -40 -40 -54s-41 -19 -61 -19z" />
    <glyph glyph-name="O" unicode="O" horiz-adv-x="1211" 
d="M1226 591c0 146 -122 194 -261 194h-91c-99 0 -209 -23 -308 -92c-97 -67 -162 -166 -201 -263c-22 -55 -36 -111 -36 -161c0 -146 122 -194 261 -194h91c99 0 209 23 308 92c97 67 162 166 201 263c22 55 36 111 36 161zM560 -1c-181 0 -351 55 -351 246
c0 58 16 121 41 185c48 120 132 239 253 319c131 86 273 112 402 112h90c181 0 351 -55 351 -246c0 -58 -16 -121 -41 -185c-48 -120 -132 -239 -253 -319c-131 -86 -273 -112 -402 -112h-90z" />
    <glyph glyph-name="bar" unicode="|" horiz-adv-x="346" 
d="M98 -43l378 946h116l-378 -946h-116z" />
    <glyph glyph-name="underscore" unicode="_" horiz-adv-x="813" 
d="M-12 -161l30 76h709l-30 -76h-709z" />
    <glyph glyph-name="circumflex" unicode="&#x2c6;" horiz-adv-x="363" 
d="M501 798l-162 -110h-99l219 172h133l81 -172h-98z" />
    <glyph glyph-name="Ecircumflex" unicode="&#xca;" horiz-adv-x="804" 
d="M121 0l344 860h623l-31 -76h-507l-126 -316h449l-30 -76h-450l-126 -316h507l-30 -76h-623zM752 1034l-162 -110h-99l219 172h133l81 -172h-98z" />
    <glyph glyph-name="asterisk" unicode="*" horiz-adv-x="804" 
d="M627 555h-5l-169 -125h-125l202 150l-128 35l55 137l170 -46l61 154h116l-61 -154l207 46l-55 -137l-157 -35l83 -150h-126z" />
    <glyph glyph-name="dcaron" unicode="&#x10f;" horiz-adv-x="891" 
d="M740 723c95 0 149 -55 149 -153v-5l154 385h115l-380 -950h-115l63 158c-18 -23 -37 -45 -59 -65c-64 -60 -145 -94 -217 -94h-53c-126 0 -225 51 -225 184c0 55 18 117 42 178c39 97 98 196 192 268c88 67 190 94 281 94h53zM1304 950h146l-275 -280h-108zM845 518
c0 86 -53 129 -136 129h-53c-61 0 -131 -25 -187 -74c-69 -60 -110 -137 -140 -212c-21 -54 -38 -108 -38 -157c0 -86 54 -129 137 -129h52c61 0 131 25 187 74c69 60 110 137 140 212c21 54 38 108 38 157z" />
    <glyph glyph-name="Ecaron" unicode="&#x11a;" horiz-adv-x="804" 
d="M121 0l344 860h623l-31 -76h-507l-126 -316h449l-30 -76h-450l-126 -316h507l-30 -76h-623zM894 1096h99l-219 -172h-133l-81 172h99l74 -109z" />
    <glyph glyph-name="Udieresis" unicode="&#xdc;" horiz-adv-x="1028" 
d="M327 200c0 -99 93 -125 186 -125h62c67 0 140 12 208 55c61 38 104 97 128 157l229 573h116l-230 -573c-33 -82 -95 -162 -180 -213c-100 -60 -205 -75 -302 -75h-62c-135 0 -275 33 -275 176c0 35 9 73 24 112l229 573h115l-229 -573c-12 -30 -19 -60 -19 -87zM627 908
c-28 0 -51 10 -51 39c0 10 2 22 7 34c8 20 21 40 41 54s41 18 61 18c28 0 51 -10 51 -39c0 -10 -2 -21 -7 -33c-8 -20 -21 -40 -41 -54s-41 -19 -61 -19zM938 908c-28 0 -51 10 -51 39c0 10 3 22 8 34c8 20 20 40 40 54s41 18 61 18c28 0 52 -10 52 -39c0 -10 -3 -21 -8 -33
c-8 -20 -20 -40 -40 -54s-42 -19 -62 -19z" />
    <glyph glyph-name="Zcaron" unicode="&#x17d;" horiz-adv-x="882" 
d="M357 784l30 76h796l-27 -67l-891 -717h604l-30 -76h-796l27 67l891 717h-604zM903 1096h99l-219 -172h-133l-81 172h98l74 -109z" />
    <glyph glyph-name="acute" unicode="&#xb4;" horiz-adv-x="346" 
d="M532 860h134l-255 -172h-99z" />
    <glyph glyph-name="uni1E9E" unicode="&#x1e9e;" horiz-adv-x="1678" 
d="M412 -1c-123 0 -265 25 -265 156v7l123 39c-1 -7 -2 -14 -2 -21c0 -87 93 -105 175 -105h56c60 0 125 5 188 40c50 28 87 77 106 125c8 19 11 37 11 54c0 43 -25 75 -71 79l-255 46c-88 7 -146 60 -146 137c0 22 4 45 14 70c27 68 79 138 150 178c89 50 179 57 264 57h50
c116 0 245 -26 245 -149l-122 -42c1 6 1 12 1 18c0 79 -79 97 -154 97h-50c-55 0 -114 -6 -170 -39c-47 -28 -80 -74 -98 -120c-8 -20 -12 -38 -12 -56c0 -41 21 -72 64 -75l255 -46c91 -7 154 -61 154 -140c0 -21 -5 -44 -15 -69c-28 -71 -83 -141 -157 -182
c-95 -52 -191 -59 -282 -59h-57zM1200 -1c-123 0 -265 25 -265 156v7l122 39c-1 -7 -1 -14 -1 -21c0 -87 92 -105 174 -105h57c60 0 125 5 188 40c50 28 87 77 106 125c8 19 11 37 11 54c0 43 -25 75 -71 79l-255 46c-88 7 -146 60 -146 137c0 22 4 45 14 70
c27 68 78 138 149 178c89 50 180 57 265 57h50c116 0 244 -26 244 -149l-121 -42c1 6 1 12 1 18c0 79 -79 97 -154 97h-51c-55 0 -113 -6 -169 -39c-47 -28 -80 -74 -98 -120c-8 -20 -12 -38 -12 -56c0 -41 21 -72 64 -75l255 -46c91 -7 154 -61 154 -140
c0 -21 -5 -44 -15 -69c-28 -71 -83 -141 -157 -182c-95 -52 -192 -59 -283 -59h-56z" />
    <glyph glyph-name="Uhungarumlaut" unicode="&#x170;" horiz-adv-x="1028" 
d="M327 200c0 -99 93 -125 186 -125h62c67 0 140 12 208 55c61 38 104 97 128 157l229 573h116l-230 -573c-33 -82 -95 -162 -180 -213c-100 -60 -205 -75 -302 -75h-62c-135 0 -275 33 -275 176c0 35 9 73 24 112l229 573h115l-229 -573c-12 -30 -19 -60 -19 -87zM585 924
l208 172h130l-242 -172h-96zM1053 1096h129l-241 -172h-96z" />
    <glyph glyph-name="Atilde" unicode="&#xc3;" horiz-adv-x="960" 
d="M17 0l774 860h67l85 -860h-116l-23 227h-478l-204 -227h-105zM605 929h-92c14 35 43 69 79 89c45 25 92 31 135 31c54 0 86 -40 140 -40c19 0 40 3 60 14c16 9 29 24 35 39h92c-14 -35 -42 -69 -78 -89c-45 -25 -93 -31 -136 -31c-54 0 -86 40 -140 40
c-19 0 -40 -3 -60 -14c-16 -9 -29 -24 -35 -39zM797 303l-40 403l-363 -403h403z" />
    <glyph glyph-name="Dcaron" unicode="&#x10e;" horiz-adv-x="1090" 
d="M855 860c184 0 360 -54 360 -248c0 -57 -15 -119 -40 -182c-48 -120 -133 -239 -255 -318c-133 -86 -278 -112 -409 -112h-390l344 860h390zM929 1096h99l-219 -172h-133l-81 172h98l74 -109zM1095 587c0 150 -128 197 -270 197h-275l-283 -708h275c102 0 213 23 315 92
c97 67 164 165 203 262c22 54 35 108 35 157z" />
    <glyph glyph-name="equal" unicode="=" horiz-adv-x="848" 
d="M256 468l31 76h709l-30 -76h-710zM141 179l30 76h709l-30 -76h-709z" />
    <glyph glyph-name="C" unicode="C" horiz-adv-x="1168" 
d="M329 269c0 -146 122 -194 261 -194h91c99 0 209 23 308 92c46 32 86 72 118 115l85 -44c-39 -48 -86 -91 -140 -127c-131 -86 -273 -112 -402 -112h-90c-181 0 -351 55 -351 246c0 58 16 121 41 185c48 120 132 239 253 319c131 86 273 112 402 112h90
c179 0 347 -53 351 -239l-121 -44c0 4 1 9 1 13c0 146 -122 194 -261 194h-91c-99 0 -209 -23 -308 -92c-97 -67 -162 -166 -201 -263c-22 -55 -36 -111 -36 -161z" />
    <glyph glyph-name="Eth" unicode="&#xd0;" horiz-adv-x="1159" 
d="M924 860c184 0 360 -54 360 -248c0 -57 -14 -119 -39 -182c-48 -120 -135 -239 -256 -318c-133 -86 -278 -112 -409 -112h-390l157 392h-130l31 76h130l156 392h390zM1164 587c0 150 -128 197 -270 197h-275l-126 -316h326l-31 -76h-325l-127 -316h275
c102 0 213 23 315 92c97 67 164 165 203 262c22 54 35 108 35 157z" />
    <glyph glyph-name="edieresis" unicode="&#xeb;" horiz-adv-x="856" 
d="M292 207c0 -89 57 -132 143 -132h55c60 0 128 17 187 60c25 18 45 38 63 61l77 -52c-23 -25 -48 -47 -77 -66c-91 -61 -191 -79 -281 -79h-54c-129 0 -232 50 -232 186c0 55 17 116 41 176c39 97 99 197 194 268c90 68 194 94 287 94h54c129 0 232 -50 232 -186
c0 -55 -17 -116 -41 -176l-15 -38h-610c-14 -40 -23 -80 -23 -116zM545 913c-28 0 -51 10 -51 39c0 10 3 22 8 34c8 20 20 40 40 54s42 19 62 19c28 0 51 -10 51 -39c0 -10 -3 -22 -8 -34c-8 -20 -20 -40 -40 -54s-42 -19 -62 -19zM857 913c-28 0 -51 10 -51 39
c0 10 2 22 7 34c8 20 21 40 41 54s41 19 61 19c28 0 51 -10 51 -39c0 -10 -2 -22 -7 -34c-8 -20 -21 -40 -41 -54s-41 -19 -61 -19zM862 515c0 89 -57 132 -143 132h-55c-63 0 -135 -24 -193 -74s-97 -111 -126 -174h494c14 40 23 80 23 116z" />
    <glyph glyph-name="ccaron" unicode="&#x10d;" horiz-adv-x="827" 
d="M292 207c0 -89 57 -132 143 -132h55c63 0 135 24 193 74c32 28 59 60 81 93l92 -35c-30 -42 -66 -81 -110 -114c-90 -68 -194 -94 -287 -94h-54c-129 0 -232 50 -232 186c0 55 17 116 41 176c39 97 99 197 194 268c90 68 194 94 287 94h54c129 0 232 -51 232 -186
c0 -7 0 -14 -1 -21l-121 -35c2 12 3 23 3 34c0 89 -57 132 -143 132h-55c-63 0 -135 -24 -193 -74c-70 -60 -112 -137 -142 -212c-21 -53 -37 -106 -37 -154zM894 1102h99l-219 -172h-133l-81 172h99l74 -110z" />
    <glyph glyph-name="cacute" unicode="&#x107;" horiz-adv-x="827" 
d="M292 207c0 -89 57 -132 143 -132h55c63 0 135 24 193 74c32 28 59 60 81 93l92 -35c-30 -42 -66 -81 -110 -114c-90 -68 -194 -94 -287 -94h-54c-129 0 -232 50 -232 186c0 55 17 116 41 176c39 97 99 197 194 268c90 68 194 94 287 94h54c129 0 232 -51 232 -186
c0 -7 0 -14 -1 -21l-121 -35c2 12 3 23 3 34c0 89 -57 132 -143 132h-55c-63 0 -135 -24 -193 -74c-70 -60 -112 -137 -142 -212c-21 -53 -37 -106 -37 -154zM852 1102h134l-255 -172h-99z" />
    <glyph glyph-name="odieresis" unicode="&#xf6;" horiz-adv-x="865" 
d="M545 913c-28 0 -51 10 -51 39c0 10 3 22 8 34c8 20 20 40 40 54s42 19 62 19c28 0 51 -10 51 -39c0 -10 -3 -22 -8 -34c-8 -20 -20 -40 -40 -54s-42 -19 -62 -19zM857 913c-28 0 -51 10 -51 39c0 10 2 22 7 34c8 20 21 40 41 54s41 19 61 19c28 0 51 -10 51 -39
c0 -10 -2 -22 -7 -34c-8 -20 -21 -40 -41 -54s-41 -19 -61 -19zM862 515c0 89 -57 132 -143 132h-55c-63 0 -135 -24 -193 -74c-70 -60 -112 -137 -142 -212c-21 -53 -37 -106 -37 -154c0 -89 57 -132 143 -132h55c63 0 135 24 193 74c70 60 112 137 142 212
c21 53 37 106 37 154zM405 -1c-129 0 -232 50 -232 186c0 55 17 116 41 176c39 97 99 197 194 268c90 68 194 94 287 94h54c129 0 232 -50 232 -186c0 -55 -17 -116 -41 -176c-39 -97 -99 -197 -194 -268c-90 -68 -194 -94 -287 -94h-54z" />
    <glyph glyph-name="four" unicode="4" horiz-adv-x="856" 
d="M738 220l-88 -220h-115l88 220h-463l26 67l741 573h67l-225 -564h134l-30 -76h-135zM653 296l129 323l-417 -323h288z" />
    <glyph glyph-name="adieresis" unicode="&#xe4;" horiz-adv-x="813" 
d="M701 723c112 0 214 -37 214 -155c0 -38 -11 -81 -28 -123l-178 -445h-115l36 91c-12 -12 -25 -24 -39 -34c-57 -42 -122 -58 -180 -58h-45c-108 0 -226 25 -226 140c0 26 6 54 18 83c26 64 76 127 143 165c81 47 166 58 244 58h45c73 0 134 -25 145 -92l37 92
c14 34 23 69 23 100c0 73 -54 102 -124 102h-45c-50 0 -107 -15 -156 -52c-21 -16 -39 -35 -54 -55l-78 51c20 22 43 42 69 60c80 55 169 72 249 72h45zM502 913c-28 0 -51 10 -51 39c0 10 3 22 8 34c8 20 20 40 40 54s41 19 61 19c28 0 52 -10 52 -39c0 -10 -3 -22 -8 -34
c-8 -20 -20 -40 -40 -54s-42 -19 -62 -19zM814 913c-28 0 -52 10 -52 39c0 10 3 22 8 34c8 20 20 40 40 54s42 19 62 19c28 0 51 -10 51 -39c0 -10 -3 -22 -8 -34c-8 -20 -20 -40 -40 -54s-41 -19 -61 -19zM695 280c0 71 -69 89 -136 89h-45c-48 0 -101 -8 -150 -38
c-43 -26 -74 -67 -91 -109c-8 -20 -12 -40 -12 -58c0 -71 69 -89 136 -89h45c48 0 101 8 150 38c43 26 74 67 91 109c8 20 12 40 12 58z" />
    <glyph glyph-name="Ydieresis" unicode="&#x178;" horiz-adv-x="900" 
d="M353 860h121l143 -441l496 441h122l-595 -529l-132 -331h-116l132 331zM563 908c-28 0 -51 10 -51 39c0 10 2 22 7 34c8 20 21 40 41 54s41 18 61 18c28 0 51 -10 51 -39c0 -10 -2 -21 -7 -33c-8 -20 -21 -40 -41 -54s-41 -19 -61 -19zM874 908c-28 0 -51 10 -51 39
c0 10 3 22 8 34c8 20 20 40 40 54s41 18 61 18c28 0 52 -10 52 -39c0 -10 -3 -21 -8 -33c-8 -20 -20 -40 -40 -54s-42 -19 -62 -19z" />
    <glyph glyph-name="Thorn" unicode="&#xde;" horiz-adv-x="900" 
d="M766 726c128 0 273 -26 273 -162c0 -28 -6 -60 -19 -91c-30 -74 -91 -144 -168 -187c-97 -54 -195 -66 -288 -66h-239l-88 -220h-116l344 860h116l-54 -134h239zM918 538c0 92 -95 112 -182 112h-239l-142 -354h239c63 0 130 9 195 46c53 30 95 80 115 131
c9 23 14 45 14 65z" />
    <glyph glyph-name="cedilla" unicode="&#xb8;" horiz-adv-x="346" 
d="M225 -187c0 45 -48 55 -90 55h-123l126 162h94l-79 -102h6c75 0 162 -14 162 -94c0 -16 -3 -33 -10 -51c-17 -43 -53 -84 -98 -108c-57 -31 -116 -38 -171 -38h-29c-74 0 -160 15 -162 92l98 36c-1 -4 -1 -9 -1 -13c0 -45 48 -54 90 -54h29c31 0 64 4 96 22
c26 14 45 38 55 63c4 11 7 20 7 30z" />
    <glyph glyph-name="p" unicode="p" horiz-adv-x="882" 
d="M432 -1c-95 0 -150 55 -150 153v6l-199 -498h-115l425 1062h115l-63 -157c18 23 37 44 59 64c64 60 145 94 217 94h53c126 0 225 -51 225 -184c0 -55 -17 -117 -41 -178c-39 -97 -99 -196 -193 -268c-88 -67 -190 -94 -281 -94h-52zM880 518c0 86 -53 129 -136 129h-53
c-61 0 -131 -25 -187 -74c-69 -60 -110 -137 -140 -212c-21 -54 -38 -108 -38 -157c0 -86 53 -129 136 -129h53c61 0 131 25 187 74c69 60 110 137 140 212c21 54 38 108 38 157z" />
    <glyph glyph-name="semicolon" unicode=";" horiz-adv-x="415" 
d="M199 144h155l-325 -361h-115zM452 583c-27 0 -49 9 -49 37c0 10 3 22 7 33c8 19 20 38 39 51s40 18 59 18c27 0 49 -9 49 -37c0 -10 -3 -21 -7 -32c-8 -19 -20 -39 -39 -52s-40 -18 -59 -18z" />
    <glyph glyph-name="Idieresis" unicode="&#xcf;" horiz-adv-x="392" 
d="M138 0l344 860h116l-344 -860h-116zM309 908c-28 0 -51 10 -51 39c0 10 2 22 7 34c8 20 21 40 41 54s41 18 61 18c28 0 51 -10 51 -39c0 -10 -2 -21 -7 -33c-8 -20 -21 -40 -41 -54s-41 -19 -61 -19zM620 908c-28 0 -51 10 -51 39c0 10 3 22 8 34c8 20 20 40 40 54
s42 18 62 18c28 0 51 -10 51 -39c0 -10 -3 -21 -8 -33c-8 -20 -20 -40 -40 -54s-42 -19 -62 -19z" />
    <glyph glyph-name="U" unicode="U" horiz-adv-x="1028" 
d="M327 200c0 -99 93 -125 186 -125h62c67 0 140 12 208 55c61 38 104 97 128 157l229 573h116l-230 -573c-33 -82 -95 -162 -180 -213c-100 -60 -205 -75 -302 -75h-62c-135 0 -275 33 -275 176c0 35 9 73 24 112l229 573h115l-229 -573c-12 -30 -19 -60 -19 -87z" />
    <glyph glyph-name="Agrave" unicode="&#xc0;" horiz-adv-x="960" 
d="M17 0l774 860h67l85 -860h-116l-23 227h-478l-204 -227h-105zM615 1096h133l83 -172h-99zM797 303l-40 403l-363 -403h403z" />
    <glyph glyph-name="dollar" unicode="$" horiz-adv-x="900" 
d="M387 -1c-114 3 -239 34 -239 157v6l122 39c-1 -7 -2 -14 -2 -20c0 -89 95 -106 179 -106h57c61 0 127 4 191 40c50 28 88 77 107 125c8 19 11 37 11 54c0 44 -26 76 -73 79l-259 46c-90 6 -149 59 -149 137c0 22 4 45 14 70c27 69 80 138 151 178c79 44 159 55 235 57
l69 171h115l-69 -172c105 -4 217 -35 217 -148l-122 -42c1 6 1 11 1 16c0 81 -82 99 -158 99h-51c-56 0 -115 -5 -173 -39c-47 -28 -81 -74 -99 -120c-8 -20 -12 -38 -12 -56c0 -41 22 -72 66 -75l260 -46c93 -6 156 -60 156 -140c0 -21 -4 -44 -14 -69
c-28 -71 -84 -142 -158 -182c-86 -47 -174 -57 -257 -59l-69 -171h-115z" />
    <glyph glyph-name="ncaron" unicode="&#x148;" 
d="M819 563c0 55 -31 84 -84 84h-43c-57 0 -120 -11 -178 -50c-54 -36 -91 -90 -113 -144l-182 -453h-115l289 722h115l-47 -118c16 18 33 34 53 49c65 50 140 70 208 70h43c96 0 173 -38 173 -139c0 -41 -12 -86 -30 -131l-181 -453h-116l181 453c15 38 27 76 27 110z
M877 1102h99l-219 -172h-133l-81 172h98l74 -110z" />
    <glyph glyph-name="Ograve" unicode="&#xd2;" horiz-adv-x="1211" 
d="M740 1096h134l82 -172h-99zM1226 591c0 146 -122 194 -261 194h-91c-99 0 -209 -23 -308 -92c-97 -67 -162 -166 -201 -263c-22 -55 -36 -111 -36 -161c0 -146 122 -194 261 -194h91c99 0 209 23 308 92c97 67 162 166 201 263c22 55 36 111 36 161zM560 -1
c-181 0 -351 55 -351 246c0 58 16 121 41 185c48 120 132 239 253 319c131 86 273 112 402 112h90c181 0 351 -55 351 -246c0 -58 -16 -121 -41 -185c-48 -120 -132 -239 -253 -319c-131 -86 -273 -112 -402 -112h-90z" />
    <glyph glyph-name="Icircumflex" unicode="&#xce;" horiz-adv-x="392" 
d="M138 0l344 860h116l-344 -860h-116zM515 1034l-161 -110h-99l219 172h133l81 -172h-99z" />
    <glyph glyph-name="e" unicode="e" horiz-adv-x="856" 
d="M292 207c0 -89 57 -132 143 -132h55c60 0 128 17 187 60c25 18 45 38 63 61l77 -52c-23 -25 -48 -47 -77 -66c-91 -61 -191 -79 -281 -79h-54c-129 0 -232 50 -232 186c0 55 17 116 41 176c39 97 99 197 194 268c90 68 194 94 287 94h54c129 0 232 -50 232 -186
c0 -55 -17 -116 -41 -176l-15 -38h-610c-14 -40 -23 -80 -23 -116zM862 515c0 89 -57 132 -143 132h-55c-63 0 -135 -24 -193 -74s-97 -111 -126 -174h494c14 40 23 80 23 116z" />
    <glyph glyph-name="breve" unicode="&#x2d8;" horiz-adv-x="363" 
d="M361 817c0 -48 65 -52 110 -52h33c34 0 71 3 108 19c25 11 47 31 56 54h93c-17 -43 -56 -82 -101 -104c-62 -31 -124 -37 -183 -37h-33c-79 0 -181 13 -181 97c0 14 4 29 10 44h92c-3 -7 -4 -15 -4 -21z" />
    <glyph glyph-name="ampersand" unicode="&#x26;" horiz-adv-x="1073" 
d="M510 454c-63 16 -131 50 -131 123c0 15 3 32 10 49c27 68 82 134 153 174c88 50 180 61 264 61h51c114 0 240 -23 247 -139l-121 -47c0 4 1 8 1 12c0 80 -81 98 -157 98h-51c-55 0 -114 -8 -171 -41c-47 -28 -82 -73 -100 -118c-7 -17 -11 -33 -11 -49
c0 -95 116 -109 206 -109h496l-30 -76h-173l-157 -392h-374c-117 0 -248 25 -248 149c0 27 6 56 18 85c27 68 82 133 153 173c41 23 83 38 125 47zM335 174c0 -80 81 -98 157 -98h259l126 316h-259c-54 0 -113 -8 -170 -41c-47 -27 -82 -72 -100 -117
c-8 -21 -13 -41 -13 -60z" />
    <glyph glyph-name="d" unicode="d" horiz-adv-x="891" 
d="M740 723c95 0 149 -55 149 -153v-5l154 385h115l-380 -950h-115l63 158c-18 -23 -37 -45 -59 -65c-64 -60 -145 -94 -217 -94h-53c-126 0 -225 51 -225 184c0 55 18 117 42 178c39 97 98 196 192 268c88 67 190 94 281 94h53zM845 518c0 86 -53 129 -136 129h-53
c-61 0 -131 -25 -187 -74c-69 -60 -110 -137 -140 -212c-21 -54 -38 -108 -38 -157c0 -86 54 -129 137 -129h52c61 0 131 25 187 74c69 60 110 137 140 212c21 54 38 108 38 157z" />
    <glyph glyph-name="dotlessi" unicode="&#x131;" horiz-adv-x="329" 
d="M107 0l289 722h115l-289 -722h-115z" />
    <glyph glyph-name="Oslash" unicode="&#xd8;" horiz-adv-x="1211" 
d="M965 785h-91c-99 0 -209 -23 -308 -92c-97 -67 -162 -166 -201 -263c-22 -55 -36 -111 -36 -161c0 -25 3 -48 11 -70l812 542c-48 32 -116 44 -187 44zM995 861c95 0 186 -14 252 -56l83 55h182l-193 -129c19 -34 27 -73 27 -116c0 -58 -16 -121 -41 -185
c-48 -120 -132 -239 -253 -319c-131 -86 -273 -112 -402 -112h-90c-95 0 -186 14 -252 56l-83 -55h-182l193 129c-19 34 -27 73 -27 116c0 58 16 121 41 185c48 120 132 239 253 319c131 86 273 112 402 112h90zM403 119c48 -32 116 -44 187 -44h91c99 0 209 23 308 92
c97 67 162 166 201 263c22 55 36 111 36 161c0 25 -3 48 -11 70z" />
    <glyph glyph-name="Acircumflex" unicode="&#xc2;" horiz-adv-x="960" 
d="M17 0l774 860h67l85 -860h-116l-23 227h-478l-204 -227h-105zM797 303l-40 403l-363 -403h403zM799 1034l-162 -110h-98l219 172h133l81 -172h-99z" />
    <glyph glyph-name="w" unicode="w" horiz-adv-x="1116" 
d="M298 722h115l38 -559l223 257l-20 302h116l12 -178l154 178h104l-251 -288l19 -271l485 559h103l-626 -722h-67l-21 310l-269 -310h-67z" />
    <glyph glyph-name="braceright" unicode="}" horiz-adv-x="528" 
d="M499 409c0 -49 41 -65 88 -65l-46 -116c-33 0 -71 -7 -104 -30c-32 -22 -54 -55 -67 -87l-70 -176c-49 -121 -187 -216 -321 -266l-3 77c88 39 175 107 208 189l71 176c26 65 70 131 135 175c-13 19 -19 43 -19 69c0 33 9 70 24 107l70 175c9 22 13 43 13 63
c0 55 -32 100 -70 126l64 77c64 -34 125 -96 125 -184c0 -26 -5 -53 -16 -82l-71 -175c-7 -18 -11 -37 -11 -53z" />
    <glyph glyph-name="nacute" unicode="&#x144;" 
d="M819 563c0 55 -31 84 -84 84h-43c-57 0 -120 -11 -178 -50c-54 -36 -91 -90 -113 -144l-182 -453h-115l289 722h115l-47 -118c16 18 33 34 53 49c65 50 140 70 208 70h43c96 0 173 -38 173 -139c0 -41 -12 -86 -30 -131l-181 -453h-116l181 453c15 38 27 76 27 110z
M835 1102h134l-255 -172h-99z" />
    <glyph glyph-name="lslash" unicode="&#x142;" horiz-adv-x="398" 
d="M365 559l156 391h116l-131 -326l135 63l-56 -139l-134 -62l-194 -486h-116l168 421l-134 -63l55 139z" />
    <glyph glyph-name="Ccaron" unicode="&#x10c;" horiz-adv-x="1168" 
d="M329 269c0 -146 122 -194 261 -194h91c99 0 209 23 308 92c46 32 86 72 118 115l85 -44c-39 -48 -86 -91 -140 -127c-131 -86 -273 -112 -402 -112h-90c-181 0 -351 55 -351 246c0 58 16 121 41 185c48 120 132 239 253 319c131 86 273 112 402 112h90
c179 0 347 -53 351 -239l-121 -44c0 4 1 9 1 13c0 146 -122 194 -261 194h-91c-99 0 -209 -23 -308 -92c-97 -67 -162 -166 -201 -263c-22 -55 -36 -111 -36 -161zM1067 1096h99l-219 -172h-133l-81 172h99l74 -109z" />
    <glyph glyph-name="Uacute" unicode="&#xda;" horiz-adv-x="1028" 
d="M327 200c0 -99 93 -125 186 -125h62c67 0 140 12 208 55c61 38 104 97 128 157l229 573h116l-230 -573c-33 -82 -95 -162 -180 -213c-100 -60 -205 -75 -302 -75h-62c-135 0 -275 33 -275 176c0 35 9 73 24 112l229 573h115l-229 -573c-12 -30 -19 -60 -19 -87zM934 1096
h133l-254 -172h-99z" />
    <glyph glyph-name="v" unicode="v" horiz-adv-x="727" 
d="M298 722h115l25 -547l462 547h107l-610 -722h-67z" />
    <glyph glyph-name="E" unicode="E" horiz-adv-x="804" 
d="M121 0l344 860h623l-31 -76h-507l-126 -316h449l-30 -76h-450l-126 -316h507l-30 -76h-623z" />
    <glyph glyph-name="B" unicode="B" horiz-adv-x="908" 
d="M831 474c63 -18 117 -59 117 -138c0 -28 -7 -59 -20 -91c-28 -71 -85 -139 -158 -181c-90 -51 -182 -64 -268 -64h-381l344 860h381c106 0 219 -25 219 -138c0 -27 -6 -56 -18 -85c-33 -82 -119 -140 -216 -163zM945 697c0 69 -64 87 -129 87h-266l-118 -294h266
c46 0 98 8 145 38c42 27 72 68 89 109c8 21 13 41 13 60zM827 311c0 83 -82 103 -160 103h-265l-135 -338h265c56 0 118 9 176 44c49 30 86 77 105 125c9 23 14 45 14 66z" />
    <glyph glyph-name="s" unicode="s" horiz-adv-x="692" 
d="M326 -1c-100 0 -209 23 -209 129c0 5 0 10 1 15l123 33c-2 -8 -3 -15 -3 -23c0 -62 59 -78 118 -78h40c43 0 88 5 132 32c38 23 63 60 78 97c7 18 11 36 11 52c0 29 -13 51 -42 56l-183 26c-71 11 -117 58 -117 123c0 19 4 40 13 62c23 57 63 115 122 151
c69 42 142 49 209 49h33c92 0 188 -23 188 -121c0 -4 -1 -8 -1 -12l-122 -35c2 8 2 16 2 23c0 54 -46 69 -97 69h-34c-37 0 -77 -5 -114 -30c-35 -23 -57 -59 -71 -94c-7 -19 -11 -37 -11 -53c0 -29 12 -51 41 -56l184 -26c71 -11 118 -57 118 -122c0 -19 -4 -40 -13 -62
c-24 -60 -67 -120 -129 -155c-76 -44 -155 -50 -228 -50h-39z" />
    <glyph glyph-name="OE" unicode="&#x152;" horiz-adv-x="1453" 
d="M1099 609c0 124 -89 176 -208 176h-76c-86 0 -183 -27 -265 -92c-91 -71 -147 -168 -185 -263c-25 -61 -41 -123 -41 -179c0 -124 88 -176 207 -176h76c86 0 183 27 265 92c90 71 148 168 185 263c25 61 42 123 42 179zM922 861c113 0 216 -29 265 -107l42 106h508
l-31 -76h-392l-126 -316h334l-30 -76h-335l-126 -316h392l-30 -76h-508l42 106c-112 -78 -237 -107 -350 -107h-76c-116 0 -221 30 -269 112c-20 34 -28 74 -28 117c0 63 18 133 46 202c47 117 122 236 237 319c114 82 243 112 359 112h76z" />
    <glyph glyph-name="caron" unicode="&#x2c7;" horiz-adv-x="363" 
d="M644 860h98l-219 -172h-133l-81 172h99l74 -110z" />
    <glyph glyph-name="eth" unicode="&#xf0;" horiz-adv-x="908" 
d="M294 211c0 -94 63 -136 153 -136h57c66 0 140 23 202 74c82 68 127 154 159 250c13 39 21 77 21 112c0 94 -63 136 -153 136h-57c-66 0 -140 -23 -202 -74c-71 -59 -115 -136 -145 -212c-21 -51 -35 -103 -35 -150zM889 679c-5 23 -11 46 -20 67l-96 -23
c48 -2 88 -17 116 -44zM416 -1c-133 0 -242 50 -242 190c0 54 16 113 40 172c39 98 101 197 197 268c48 35 99 59 151 74l21 53l248 59c-43 61 -106 108 -187 135h215c40 -29 72 -64 97 -104l219 52l-35 -86l-150 -36c19 -50 28 -106 28 -164c0 -79 -17 -163 -52 -251
c-39 -98 -101 -197 -197 -268c-93 -69 -200 -94 -295 -94h-58z" />
    <glyph glyph-name="Rcaron" unicode="&#x158;" horiz-adv-x="874" 
d="M820 860c128 0 272 -27 272 -163c0 -29 -7 -61 -20 -93c-30 -74 -91 -146 -168 -189c-52 -29 -105 -46 -158 -55l119 -360h-125l-112 349h-252l-139 -349h-116l344 860h355zM860 1096h98l-218 -172h-133l-82 172h99l74 -109zM971 672c0 92 -95 112 -182 112h-239
l-143 -359h239c63 0 130 9 195 47c54 31 95 80 116 132c9 23 14 47 14 68z" />
    <glyph glyph-name="zacute" unicode="&#x17a;" horiz-adv-x="640" 
d="M302 646l30 76h554l-27 -67l-605 -579h373l-30 -76h-554l27 67l605 579h-373zM740 1102h134l-255 -172h-99z" />
    <glyph glyph-name="uring" unicode="&#x16f;" 
d="M296 173c0 -70 52 -98 119 -98h43c48 0 102 15 149 51c50 39 82 91 103 143l181 453h116l-289 -722h-116l43 107c-12 -13 -24 -26 -38 -38c-54 -47 -120 -70 -179 -70h-43c-109 0 -209 36 -209 151c0 37 11 78 27 119l181 453h116l-182 -453c-13 -33 -22 -66 -22 -96z
M800 1041c0 27 -25 35 -51 35h-17c-19 0 -39 -3 -58 -15c-17 -11 -29 -28 -36 -45c-4 -9 -6 -18 -6 -26c0 -27 25 -35 51 -35h17c19 0 39 4 58 16c17 11 29 28 36 45c4 9 6 17 6 25zM663 904c-54 0 -111 13 -111 70c0 13 3 27 9 42c13 32 38 63 71 82c40 23 82 29 120 29h17
c54 0 111 -12 111 -69c0 -13 -3 -27 -9 -42c-13 -32 -38 -64 -71 -83c-40 -23 -82 -29 -120 -29h-17z" />
    <glyph glyph-name="I" unicode="I" horiz-adv-x="392" 
d="M138 0l344 860h116l-344 -860h-116z" />
    <glyph glyph-name="ntilde" unicode="&#xf1;" 
d="M819 563c0 55 -31 84 -84 84h-43c-57 0 -120 -11 -178 -50c-54 -36 -91 -90 -113 -144l-182 -453h-115l289 722h115l-47 -118c16 18 33 34 53 49c65 50 140 70 208 70h43c96 0 173 -38 173 -139c0 -41 -12 -86 -30 -131l-181 -453h-116l181 453c15 38 27 76 27 110z
M540 934h-92c14 35 43 69 79 89c45 25 92 31 135 31c54 0 86 -40 140 -40c19 0 40 3 60 14c16 9 29 24 35 39h93c-14 -35 -43 -69 -79 -89c-45 -25 -93 -31 -136 -31c-54 0 -86 40 -140 40c-19 0 -40 -3 -60 -14c-16 -9 -29 -24 -35 -39z" />
    <glyph glyph-name="Uring" unicode="&#x16e;" horiz-adv-x="1028" 
d="M327 200c0 -99 93 -125 186 -125h62c67 0 140 12 208 55c61 38 104 97 128 157l229 573h116l-230 -573c-33 -82 -95 -162 -180 -213c-100 -60 -205 -75 -302 -75h-62c-135 0 -275 33 -275 176c0 35 9 73 24 112l229 573h115l-229 -573c-12 -30 -19 -60 -19 -87zM808 950
c50 0 99 34 99 86c0 27 -25 35 -51 35h-17c-50 0 -99 -34 -99 -86c0 -27 25 -35 51 -35h17zM770 899c-54 0 -111 12 -111 69c0 13 3 27 9 42c13 32 38 64 71 83c40 23 82 29 120 29h18c54 0 111 -12 111 -69c0 -13 -3 -28 -9 -43c-13 -32 -38 -63 -71 -82
c-40 -23 -83 -29 -121 -29h-17z" />
    <glyph glyph-name="tcedilla" unicode="&#x163;" horiz-adv-x="467" 
d="M285 -187c0 45 -48 55 -90 55h-122l103 133l258 645h-147l30 76h148l91 228h115l-91 -228h148l-31 -76h-147l-259 -646h-22l-56 -72h6c75 0 163 -14 163 -94c0 -16 -4 -33 -11 -51c-17 -43 -53 -84 -98 -108c-57 -31 -115 -38 -170 -38h-29c-74 0 -160 15 -162 92l97 36
c-1 -4 -1 -9 -1 -13c0 -45 48 -54 90 -54h29c31 0 64 4 96 22c26 14 46 38 56 63c4 11 6 20 6 30z" />
    <glyph glyph-name="ucircumflex" unicode="&#xfb;" 
d="M296 173c0 -70 52 -98 119 -98h43c48 0 102 15 149 51c50 39 82 91 103 143l181 453h116l-289 -722h-116l43 107c-12 -13 -24 -26 -38 -38c-54 -47 -120 -70 -179 -70h-43c-109 0 -209 36 -209 151c0 37 11 78 27 119l181 453h116l-182 -453c-13 -33 -22 -66 -22 -96z
M726 1040l-162 -110h-99l219 172h133l81 -172h-98z" />
    <glyph glyph-name="Egrave" unicode="&#xc8;" horiz-adv-x="804" 
d="M121 0l344 860h623l-31 -76h-507l-126 -316h449l-30 -76h-450l-126 -316h507l-30 -76h-623zM567 1096h134l82 -172h-99z" />
    <glyph glyph-name="j" unicode="j" horiz-adv-x="363" 
d="M-145 -206c0 -39 24 -59 62 -59h24c28 0 59 11 85 34c32 28 51 64 65 99l342 854h115l-342 -854c-23 -57 -61 -115 -117 -155c-57 -40 -121 -54 -179 -54h-24c-79 0 -148 27 -151 107l121 45c-1 -6 -1 -12 -1 -17zM467 913c-28 0 -52 10 -52 39c0 10 3 22 8 34
c8 20 21 40 41 54s41 19 61 19c28 0 51 -10 51 -39c0 -10 -3 -22 -8 -34c-8 -20 -20 -40 -40 -54s-41 -19 -61 -19z" />
    <glyph glyph-name="Oacute" unicode="&#xd3;" horiz-adv-x="1211" 
d="M1025 1096h134l-255 -172h-99zM1226 591c0 146 -122 194 -261 194h-91c-99 0 -209 -23 -308 -92c-97 -67 -162 -166 -201 -263c-22 -55 -36 -111 -36 -161c0 -146 122 -194 261 -194h91c99 0 209 23 308 92c97 67 162 166 201 263c22 55 36 111 36 161zM560 -1
c-181 0 -351 55 -351 246c0 58 16 121 41 185c48 120 132 239 253 319c131 86 273 112 402 112h90c181 0 351 -55 351 -246c0 -58 -16 -121 -41 -185c-48 -120 -132 -239 -253 -319c-131 -86 -273 -112 -402 -112h-90z" />
    <glyph glyph-name="ae" unicode="&#xe6;" horiz-adv-x="1280" 
d="M764 551c0 66 -44 96 -108 96h-40c-46 0 -99 -16 -142 -52c-19 -16 -36 -34 -50 -53l-80 49c20 22 42 42 67 60c75 54 159 72 235 72h41c91 0 170 -27 191 -105c5 4 9 7 14 11c81 65 178 94 264 94h47c118 0 205 -52 205 -176c0 -58 -19 -122 -44 -186l-15 -38h-543
c-16 -44 -26 -88 -26 -128c0 -77 42 -120 117 -120h47c54 0 113 19 164 60c22 18 41 37 57 58l80 -49c-21 -24 -47 -46 -74 -66c-82 -59 -175 -79 -258 -79h-47c-87 0 -160 30 -189 96c-15 -14 -33 -27 -51 -38c-76 -46 -155 -58 -229 -58h-41c-103 0 -208 26 -208 135
c0 27 7 58 19 88c25 63 73 126 138 165c76 46 156 58 230 58h40c67 0 119 -26 129 -87c12 29 23 58 35 87c15 36 25 73 25 106zM663 285c0 65 -57 84 -118 84h-41c-44 0 -92 -9 -136 -38c-41 -27 -70 -68 -86 -109c-9 -22 -14 -43 -14 -63c0 -65 58 -84 119 -84h40
c44 0 93 9 137 38c41 27 69 68 85 109c9 22 14 43 14 63zM1289 527c0 77 -41 120 -116 120h-47c-56 0 -121 -27 -171 -74c-55 -51 -90 -112 -118 -174h426c16 44 26 88 26 128z" />
    <glyph glyph-name="c" unicode="c" horiz-adv-x="827" 
d="M292 207c0 -89 57 -132 143 -132h55c63 0 135 24 193 74c32 28 59 60 81 93l92 -35c-30 -42 -66 -81 -110 -114c-90 -68 -194 -94 -287 -94h-54c-129 0 -232 50 -232 186c0 55 17 116 41 176c39 97 99 197 194 268c90 68 194 94 287 94h54c129 0 232 -51 232 -186
c0 -7 0 -14 -1 -21l-121 -35c2 12 3 23 3 34c0 89 -57 132 -143 132h-55c-63 0 -135 -24 -193 -74c-70 -60 -112 -137 -142 -212c-21 -53 -37 -106 -37 -154z" />
    <glyph glyph-name="Lcaron" unicode="&#x13d;" horiz-adv-x="796" 
d="M121 0l344 860h116l-314 -784h507l-30 -76h-623zM854 860h146l-275 -280h-108z" />
    <glyph glyph-name="D" unicode="D" horiz-adv-x="1090" 
d="M855 860c184 0 360 -54 360 -248c0 -57 -15 -119 -40 -182c-48 -120 -133 -239 -255 -318c-133 -86 -278 -112 -409 -112h-390l344 860h390zM1095 587c0 150 -128 197 -270 197h-275l-283 -708h275c102 0 213 23 315 92c97 67 164 165 203 262c22 54 35 108 35 157z" />
    <glyph glyph-name="icircumflex" unicode="&#xee;" horiz-adv-x="329" 
d="M107 0l289 722h115l-289 -722h-115zM484 1040l-162 -110h-99l219 172h133l81 -172h-99z" />
    <glyph glyph-name="gbreve" unicode="&#x11f;" horiz-adv-x="882" 
d="M740 723c95 0 149 -55 149 -153v-5l63 157h115l-313 -782c-31 -79 -88 -157 -168 -208c-89 -57 -185 -73 -272 -73h-53c-122 0 -241 35 -241 164l121 42c-1 -6 -1 -12 -1 -18c0 -85 72 -112 152 -112h52c58 0 122 13 179 53c56 39 94 96 116 152l87 219
c-18 -23 -37 -45 -59 -65c-64 -60 -145 -94 -217 -94h-52c-126 0 -225 51 -225 184c0 55 17 117 41 178c39 97 98 195 192 267c88 67 190 94 281 94h53zM603 1059c0 -48 65 -53 110 -53h33c34 0 71 3 108 19c25 11 48 31 57 54h92c-17 -43 -56 -82 -101 -104
c-62 -31 -124 -36 -183 -36h-33c-79 0 -180 12 -180 96c0 14 3 29 9 44h92c-3 -7 -4 -14 -4 -20zM845 518c0 86 -53 129 -136 129h-53c-61 0 -131 -25 -187 -74c-69 -60 -110 -136 -140 -211c-21 -54 -37 -108 -37 -157c0 -86 53 -129 136 -129h53c61 0 131 25 187 74
c69 60 110 137 140 212c21 53 37 107 37 156z" />
    <glyph glyph-name="ij" unicode="&#x133;" horiz-adv-x="796" 
d="M445 722h115l-289 -722h-115zM232 -197c0 -50 38 -68 85 -68h30c34 0 72 9 105 34c35 26 57 63 71 99l342 854h116l-342 -854c-23 -58 -65 -117 -124 -155c-65 -42 -134 -54 -198 -54h-30c-85 0 -166 24 -174 107l120 49c0 -4 -1 -8 -1 -12zM997 902c-28 0 -52 10 -52 39
c0 10 3 22 8 34c8 20 20 40 40 54s42 18 62 18c28 0 51 -10 51 -39c0 -10 -3 -21 -8 -33c-8 -20 -20 -40 -40 -54s-41 -19 -61 -19zM573 902c-28 0 -51 10 -51 39c0 10 2 22 7 34c8 20 21 40 41 54s41 18 61 18c28 0 51 -10 51 -39c0 -10 -2 -21 -7 -33
c-8 -20 -21 -40 -41 -54s-41 -19 -61 -19z" />
    <glyph glyph-name="n" unicode="n" 
d="M819 563c0 55 -31 84 -84 84h-43c-57 0 -120 -11 -178 -50c-54 -36 -91 -90 -113 -144l-182 -453h-115l289 722h115l-47 -118c16 18 33 34 53 49c65 50 140 70 208 70h43c96 0 173 -38 173 -139c0 -41 -12 -86 -30 -131l-181 -453h-116l181 453c15 38 27 76 27 110z" />
    <glyph glyph-name="percent" unicode="%" horiz-adv-x="1419" 
d="M237 -43l1108 946h181l-1108 -946h-181zM776 719c0 44 -29 65 -72 65h-27c-31 0 -66 -11 -95 -35c-34 -28 -55 -65 -69 -101c-10 -25 -17 -50 -17 -72c0 -44 29 -65 72 -65h27c31 0 66 11 95 35c34 28 55 66 69 102c10 25 17 49 17 71zM538 435c-85 0 -162 28 -162 118
c0 30 8 62 21 95c23 58 64 117 122 157c61 42 127 55 188 55h28c85 0 161 -28 161 -118c0 -30 -8 -61 -21 -94c-23 -58 -64 -118 -122 -158c-61 -42 -127 -55 -188 -55h-27zM1267 284c0 44 -29 65 -72 65h-27c-31 0 -67 -11 -96 -35c-34 -28 -55 -66 -69 -102
c-10 -25 -17 -49 -17 -71c0 -44 29 -65 72 -65h28c31 0 66 11 95 35c34 28 55 65 69 101c10 25 17 50 17 72zM1028 0c-85 0 -161 28 -161 118c0 30 8 61 21 94c23 58 63 118 121 158c61 42 128 55 189 55h27c85 0 161 -28 161 -118c0 -30 -8 -62 -21 -95
c-23 -58 -63 -117 -121 -157c-61 -42 -128 -55 -189 -55h-27z" />
    <glyph glyph-name="q" unicode="q" horiz-adv-x="882" 
d="M740 723c95 0 149 -55 149 -153v-5l63 157h115l-425 -1062h-115l199 498c-18 -23 -37 -45 -59 -65c-64 -60 -145 -94 -217 -94h-53c-126 0 -225 51 -225 184c0 55 18 117 42 178c39 97 98 196 192 268c88 67 190 94 281 94h53zM845 518c0 86 -53 129 -136 129h-53
c-61 0 -131 -25 -187 -74c-69 -60 -110 -137 -140 -212c-21 -54 -38 -108 -38 -157c0 -86 54 -129 137 -129h52c61 0 131 25 187 74c69 60 110 137 140 212c20 55 38 107 38 157z" />
    <glyph glyph-name="Racute" unicode="&#x154;" horiz-adv-x="874" 
d="M820 860c128 0 272 -27 272 -163c0 -29 -7 -61 -20 -93c-30 -74 -91 -146 -168 -189c-52 -29 -105 -46 -158 -55l119 -360h-125l-112 349h-252l-139 -349h-116l344 860h355zM818 1096h133l-254 -172h-99zM971 672c0 92 -95 112 -182 112h-239l-143 -359h239
c63 0 130 9 195 47c54 31 95 80 116 132c9 23 14 47 14 68z" />
    <glyph glyph-name="x" unicode="x" horiz-adv-x="701" 
d="M325 722h120l88 -266l300 266h120l-393 -348l123 -374h-119l-97 292l-329 -292h-121l423 375z" />
    <glyph glyph-name="S" unicode="S" horiz-adv-x="900" 
d="M416 -1c-125 0 -268 25 -268 157v6l122 39c-1 -7 -2 -14 -2 -20c0 -89 95 -106 179 -106h57c61 0 127 4 191 40c50 28 88 77 107 125c8 19 11 37 11 54c0 44 -26 76 -73 79l-259 46c-90 6 -149 59 -149 137c0 22 4 45 14 70c27 69 80 138 151 178c90 50 181 57 267 57h52
c117 0 248 -25 248 -149l-121 -28c2 83 -81 101 -158 101h-51c-56 0 -115 -5 -173 -39c-47 -28 -81 -74 -99 -120c-8 -20 -12 -38 -12 -56c0 -41 22 -72 66 -75l260 -46c93 -6 156 -60 156 -140c0 -21 -4 -44 -14 -69c-28 -71 -84 -142 -158 -182c-96 -52 -194 -59 -286 -59
h-58z" />
    <glyph glyph-name="A" unicode="A" horiz-adv-x="960" 
d="M17 0l774 860h67l85 -860h-116l-23 227h-478l-204 -227h-105zM797 303l-40 403l-363 -403h403z" />
    <glyph glyph-name="Y" unicode="Y" horiz-adv-x="900" 
d="M353 860h121l143 -441l496 441h122l-595 -529l-132 -331h-116l132 331z" />
    <glyph glyph-name="oslash" unicode="&#xf8;" horiz-adv-x="865" 
d="M719 647h-55c-63 0 -135 -24 -193 -74c-70 -60 -112 -137 -142 -212c-22 -54 -38 -108 -37 -157l525 416c-25 19 -59 27 -98 27zM749 723c58 0 113 -10 154 -35l44 34h172l-148 -117c7 -21 10 -44 10 -68c0 -55 -17 -116 -41 -176c-39 -97 -99 -197 -194 -268
c-90 -68 -194 -94 -287 -94h-54c-58 0 -113 10 -154 35l-44 -34h-172l148 118c-7 21 -10 43 -10 67c0 55 17 116 41 176c39 97 99 197 194 268c90 68 194 94 287 94h54zM337 103c25 -19 59 -28 98 -28h55c63 0 135 24 193 74c70 60 112 137 142 212c22 54 38 108 37 157z
" />
    <glyph glyph-name="dieresis" unicode="&#xa8;" horiz-adv-x="363" 
d="M295 672c-28 0 -52 10 -52 39c0 10 3 21 8 33c8 20 20 40 40 54s42 19 62 19c28 0 51 -10 51 -39c0 -10 -3 -22 -8 -34c-8 -20 -20 -40 -40 -54s-41 -18 -61 -18zM606 672c-28 0 -51 10 -51 39c0 10 2 21 7 33c8 20 21 40 41 54s41 19 61 19c28 0 51 -10 51 -39
c0 -10 -2 -22 -7 -34c-8 -20 -21 -40 -41 -54s-41 -18 -61 -18z" />
    <glyph glyph-name="o" unicode="o" horiz-adv-x="865" 
d="M862 515c0 89 -57 132 -143 132h-55c-63 0 -135 -24 -193 -74c-70 -60 -112 -137 -142 -212c-21 -53 -37 -106 -37 -154c0 -89 57 -132 143 -132h55c63 0 135 24 193 74c70 60 112 137 142 212c21 53 37 106 37 154zM405 -1c-129 0 -232 50 -232 186c0 55 17 116 41 176
c39 97 99 197 194 268c90 68 194 94 287 94h54c129 0 232 -50 232 -186c0 -55 -17 -116 -41 -176c-39 -97 -99 -197 -194 -268c-90 -68 -194 -94 -287 -94h-54z" />
    <glyph glyph-name="sacute" unicode="&#x15b;" horiz-adv-x="692" 
d="M326 -1c-100 0 -209 23 -209 129c0 5 0 10 1 15l123 33c-2 -8 -3 -15 -3 -23c0 -62 59 -78 118 -78h40c43 0 88 5 132 32c38 23 63 60 78 97c7 18 11 36 11 52c0 29 -13 51 -42 56l-183 26c-71 11 -117 58 -117 123c0 19 4 40 13 62c23 57 63 115 122 151
c69 42 142 49 209 49h33c92 0 188 -23 188 -121c0 -4 -1 -8 -1 -12l-122 -35c2 8 2 16 2 23c0 54 -46 69 -97 69h-34c-37 0 -77 -5 -114 -30c-35 -23 -57 -59 -71 -94c-7 -19 -11 -37 -11 -53c0 -29 12 -51 41 -56l184 -26c71 -11 118 -57 118 -122c0 -19 -4 -40 -13 -62
c-24 -60 -67 -120 -129 -155c-76 -44 -155 -50 -228 -50h-39zM766 1102h134l-255 -172h-99z" />
    <glyph glyph-name="J" unicode="J" horiz-adv-x="761" 
d="M181 169c3 -73 70 -94 141 -94h48c52 0 109 11 161 45c48 32 82 80 101 128l245 612h116l-245 -612c-28 -71 -82 -140 -154 -184c-84 -51 -173 -65 -255 -65h-48c-100 0 -201 22 -225 108z" />
    <glyph glyph-name="dotaccent" unicode="&#x2d9;" horiz-adv-x="311" 
d="M424 672c-28 0 -51 10 -51 39c0 10 3 21 8 33c8 20 20 40 40 54s41 19 61 19c28 0 52 -10 52 -39c0 -10 -3 -22 -8 -34c-8 -20 -20 -40 -40 -54s-42 -18 -62 -18z" />
    <glyph glyph-name="y" unicode="y" horiz-adv-x="727" 
d="M298 722h115l22 -555l465 555h107l-891 -1062h-106l314 375z" />
    <glyph glyph-name="yacute" unicode="&#xfd;" horiz-adv-x="727" 
d="M298 722h115l22 -555l465 555h107l-891 -1062h-106l314 375zM783 1102h134l-255 -172h-99z" />
    <glyph glyph-name="dotlessj" unicode="&#x237;" horiz-adv-x="363" 
d="M-145 -206c0 -39 24 -59 62 -59h24c28 0 59 11 85 34c32 28 51 64 65 99l342 854h115l-342 -854c-23 -57 -61 -115 -117 -155c-57 -40 -121 -54 -179 -54h-24c-79 0 -148 27 -151 107l121 45c-1 -6 -1 -12 -1 -17z" />
    <glyph glyph-name="braceleft" unicode="{" horiz-adv-x="528" 
d="M169 228l46 116c33 0 71 7 104 30c32 22 54 56 67 88l71 175c36 90 125 166 220 218c35 19 104 47 104 47l2 -77c-89 -39 -178 -106 -211 -188l-70 -176c-26 -65 -71 -131 -136 -175c13 -19 19 -43 19 -69c0 -33 -8 -70 -23 -106l-71 -176c-9 -21 -12 -42 -12 -61
c0 -56 34 -101 73 -127l-64 -77c-65 34 -128 97 -128 186c0 25 5 51 16 79l70 176l-70 -176zM330 319c15 -8 27 -19 36 -33z" />
    <glyph glyph-name="numbersign" unicode="#" horiz-adv-x="934" 
d="M140 263l30 76h185l114 182h-191l30 76h209l164 263h130l-165 -263h195l165 263h130l-165 -263h167l-30 -76h-185l-114 -182h192l-31 -76h-208l-165 -263h-130l165 263h-195l-164 -263h-130l164 263h-167zM679 339l114 182h-194l-114 -182h194z" />
    <glyph glyph-name="quoteleft" unicode="&#x2018;" horiz-adv-x="441" 
d="M579 860h108l-237 -280h-146z" />
    <glyph glyph-name="ffl" unicode="&#xfb04;" horiz-adv-x="1202" 
d="M322 646l30 76h124l46 115c14 34 44 66 80 84c49 25 99 30 145 30h15c53 0 113 -6 134 -45l-116 -69c2 5 3 9 3 13c0 21 -29 25 -51 25h-16c-33 0 -69 -12 -79 -38l-45 -115h278l45 115c14 34 45 66 81 84c49 25 98 30 144 30h16c53 0 113 -6 134 -45l-116 -69
c2 5 3 9 3 13c0 21 -29 25 -51 25h-16c-33 0 -69 -12 -79 -38l-46 -115h145l-31 -76h-144l-259 -646h-115l258 646h-278l-258 -646h-116l259 646h-124zM983 0l380 950h116l-380 -950h-116z" />
    <glyph glyph-name="perthousandzero" horiz-adv-x="597" 
d="M531 282c0 47 -34 67 -79 67h-28c-33 0 -70 -10 -101 -35c-35 -28 -56 -66 -71 -102c-10 -24 -16 -47 -16 -69c0 -47 33 -67 78 -67h29c33 0 70 10 101 35c35 28 55 65 70 101c10 24 17 48 17 70zM284 0c-87 0 -168 28 -168 120c0 29 8 60 21 92c24 59 64 118 123 158
c63 42 132 55 194 55h29c87 0 167 -28 167 -120c0 -29 -7 -61 -20 -93c-24 -59 -64 -117 -123 -157c-63 -42 -132 -55 -194 -55h-29z" />
    <glyph glyph-name="lcaron" unicode="&#x13e;" horiz-adv-x="323" 
d="M104 0l380 950h115l-380 -950h-115zM744 950h146l-274 -280h-108z" />
    <glyph glyph-name="three" unicode="3" 
d="M710 297c0 76 -72 95 -144 95h-98l31 76h97c51 0 107 9 160 41c46 28 79 72 97 117c9 22 14 44 14 64c0 76 -72 95 -144 95h-48c-51 0 -107 -9 -160 -41c-28 -18 -52 -42 -70 -68l-85 46c26 31 56 57 92 78c84 49 172 61 253 61h48c113 0 234 -26 234 -146
c0 -28 -6 -58 -18 -89c-36 -88 -134 -154 -241 -175c56 -18 102 -58 102 -129c0 -28 -7 -57 -19 -88c-27 -67 -79 -133 -149 -174c-84 -49 -173 -61 -254 -61h-47c-111 0 -230 25 -234 139l121 46c0 -5 -1 -9 -1 -14c0 -76 72 -95 144 -95h48c51 0 107 9 160 41
c46 28 79 73 97 118c9 22 14 43 14 63z" />
    <glyph glyph-name="Ucircumflex" unicode="&#xdb;" horiz-adv-x="1028" 
d="M327 200c0 -99 93 -125 186 -125h62c67 0 140 12 208 55c61 38 104 97 128 157l229 573h116l-230 -573c-33 -82 -95 -162 -180 -213c-100 -60 -205 -75 -302 -75h-62c-135 0 -275 33 -275 176c0 35 9 73 24 112l229 573h115l-229 -573c-12 -30 -19 -60 -19 -87zM833 1034
l-162 -110h-98l218 172h133l81 -172h-98z" />
    <glyph glyph-name="ohungarumlaut" unicode="&#x151;" horiz-adv-x="865" 
d="M504 930l208 172h129l-241 -172h-96zM971 1102h130l-242 -172h-95zM862 515c0 89 -57 132 -143 132h-55c-63 0 -135 -24 -193 -74c-70 -60 -112 -137 -142 -212c-21 -53 -37 -106 -37 -154c0 -89 57 -132 143 -132h55c63 0 135 24 193 74c70 60 112 137 142 212
c21 53 37 106 37 154zM405 -1c-129 0 -232 50 -232 186c0 55 17 116 41 176c39 97 99 197 194 268c90 68 194 94 287 94h54c129 0 232 -50 232 -186c0 -55 -17 -116 -41 -176c-39 -97 -99 -197 -194 -268c-90 -68 -194 -94 -287 -94h-54z" />
    <glyph glyph-name="bracketleft" unicode="[" horiz-adv-x="484" 
d="M20 -340l497 1243h277l-31 -76h-161l-436 -1091h161l-31 -76h-276z" />
    <glyph glyph-name="oacute" unicode="&#xf3;" horiz-adv-x="865" 
d="M852 1102h134l-255 -172h-99zM862 515c0 89 -57 132 -143 132h-55c-63 0 -135 -24 -193 -74c-70 -60 -112 -137 -142 -212c-21 -53 -37 -106 -37 -154c0 -89 57 -132 143 -132h55c63 0 135 24 193 74c70 60 112 137 142 212c21 53 37 106 37 154zM405 -1
c-129 0 -232 50 -232 186c0 55 17 116 41 176c39 97 99 197 194 268c90 68 194 94 287 94h54c129 0 232 -50 232 -186c0 -55 -17 -116 -41 -176c-39 -97 -99 -197 -194 -268c-90 -68 -194 -94 -287 -94h-54z" />
    <glyph glyph-name="nine" unicode="9" horiz-adv-x="848" 
d="M786 861c121 0 244 -32 244 -160c0 -33 -7 -70 -22 -107l-127 -317c-31 -78 -89 -156 -168 -206c-89 -56 -185 -72 -272 -72h-53c-120 0 -237 33 -241 157l120 44v-13c0 -85 72 -112 152 -112h53c57 0 121 13 178 53c55 38 93 93 115 149l68 169c-16 -18 -34 -34 -53 -49
c-65 -50 -140 -69 -207 -69h-53c-121 0 -245 32 -245 160c0 33 8 69 23 106c30 75 88 151 165 198c89 55 183 69 270 69h53zM910 676c0 84 -74 109 -154 109h-53c-57 0 -119 -12 -177 -50c-53 -35 -91 -88 -112 -141c-11 -28 -18 -56 -18 -82c0 -84 74 -108 154 -108h53
c57 0 119 11 177 49c53 35 91 88 112 141c11 28 18 56 18 82z" />
    <glyph glyph-name="backslash" unicode="\" horiz-adv-x="649" 
d="M435 -43l-39 946h162l39 -946h-162z" />
    <glyph glyph-name="atilde" unicode="&#xe3;" horiz-adv-x="813" 
d="M701 723c112 0 214 -37 214 -155c0 -38 -11 -81 -28 -123l-178 -445h-115l36 91c-12 -12 -25 -24 -39 -34c-57 -42 -122 -58 -180 -58h-45c-108 0 -226 25 -226 140c0 26 6 54 18 83c26 64 76 127 143 165c81 47 166 58 244 58h45c73 0 134 -25 145 -92l37 92
c14 34 23 69 23 100c0 73 -54 102 -124 102h-45c-50 0 -107 -15 -156 -52c-21 -16 -39 -35 -54 -55l-78 51c20 22 43 42 69 60c80 55 169 72 249 72h45zM514 934h-92c14 35 43 69 79 89c45 25 92 31 135 31c54 0 86 -40 140 -40c19 0 40 3 60 14c16 9 29 24 35 39h93
c-14 -35 -43 -69 -79 -89c-45 -25 -93 -31 -136 -31c-54 0 -86 40 -140 40c-19 0 -40 -3 -60 -14c-16 -9 -29 -24 -35 -39zM695 280c0 71 -69 89 -136 89h-45c-48 0 -101 -8 -150 -38c-43 -26 -74 -67 -91 -109c-8 -20 -12 -40 -12 -58c0 -71 69 -89 136 -89h45
c48 0 101 8 150 38c43 26 74 67 91 109c8 20 12 40 12 58z" />
    <glyph glyph-name="Aacute" unicode="&#xc1;" horiz-adv-x="960" 
d="M17 0l774 860h67l85 -860h-116l-23 227h-478l-204 -227h-105zM900 1096h134l-255 -172h-99zM797 303l-40 403l-363 -403h403z" />
    <glyph glyph-name="ccedilla" unicode="&#xe7;" horiz-adv-x="827" 
d="M292 207c0 -89 57 -132 143 -132h55c63 0 135 24 193 74c32 28 59 60 81 93l92 -35c-30 -42 -66 -81 -110 -114c-87 -66 -188 -93 -279 -94l-55 -71h6c75 0 163 -14 163 -94c0 -16 -4 -33 -11 -51c-17 -43 -53 -84 -98 -108c-57 -31 -115 -38 -170 -38h-29
c-74 0 -160 15 -162 92l97 36c-1 -4 -1 -9 -1 -13c0 -45 48 -54 90 -54h29c31 0 64 4 96 22c26 14 46 38 56 63c4 11 6 20 6 30c0 45 -48 55 -90 55h-122l102 132c-114 8 -201 60 -201 185c0 55 17 116 41 176c39 97 99 197 194 268c90 68 194 94 287 94h54
c129 0 232 -51 232 -186c0 -7 0 -14 -1 -21l-121 -35c2 12 3 23 3 34c0 89 -57 132 -143 132h-55c-63 0 -135 -24 -193 -74c-70 -60 -112 -137 -142 -212c-21 -53 -37 -106 -37 -154z" />
    <glyph glyph-name="Lslash" unicode="&#x141;" horiz-adv-x="813" 
d="M761 0h-623l116 289l-124 -52l50 128l125 51l177 444h116l-155 -386l360 149l-51 -128l-360 -149l-108 -270h508z" />
    <glyph glyph-name="Sacute" unicode="&#x15a;" horiz-adv-x="900" 
d="M416 -1c-125 0 -268 25 -268 157v6l122 39c-1 -7 -2 -14 -2 -20c0 -89 95 -106 179 -106h57c61 0 127 4 191 40c50 28 88 77 107 125c8 19 11 37 11 54c0 44 -26 76 -73 79l-259 46c-90 6 -149 59 -149 137c0 22 4 45 14 70c27 69 80 138 151 178c90 50 181 57 267 57h52
c117 0 248 -25 248 -149l-121 -28c2 83 -81 101 -158 101h-51c-56 0 -115 -5 -173 -39c-47 -28 -81 -74 -99 -120c-8 -20 -12 -38 -12 -56c0 -41 22 -72 66 -75l260 -46c93 -6 156 -60 156 -140c0 -21 -4 -44 -14 -69c-28 -71 -84 -142 -158 -182c-96 -52 -194 -59 -286 -59
h-58zM865 1096h134l-255 -172h-99z" />
    <glyph glyph-name="visiblespace" unicode="&#x2420;" horiz-adv-x="692" 
d="M35 0h115l-39 -98h392l39 98h115l-69 -174h-623c23 58 47 116 70 174z" />
    <glyph glyph-name="aring" unicode="&#xe5;" horiz-adv-x="813" 
d="M701 723c112 0 214 -37 214 -155c0 -38 -11 -81 -28 -123l-178 -445h-115l36 91c-12 -12 -25 -24 -39 -34c-57 -42 -122 -58 -180 -58h-45c-108 0 -226 25 -226 140c0 26 6 54 18 83c26 64 76 127 143 165c81 47 166 58 244 58h45c73 0 134 -25 145 -92l37 92
c14 34 23 69 23 100c0 73 -54 102 -124 102h-45c-50 0 -107 -15 -156 -52c-21 -16 -39 -35 -54 -55l-78 51c20 22 43 42 69 60c80 55 169 72 249 72h45zM695 280c0 71 -69 89 -136 89h-45c-48 0 -101 -8 -150 -38c-43 -26 -74 -67 -91 -109c-8 -20 -12 -40 -12 -58
c0 -71 69 -89 136 -89h45c48 0 101 8 150 38c43 26 74 67 91 109c8 20 12 40 12 58zM783 1041c0 27 -25 35 -51 35h-18c-19 0 -38 -3 -57 -15c-17 -11 -29 -28 -36 -45c-4 -9 -6 -18 -6 -26c0 -27 25 -35 51 -35h17c19 0 39 4 58 16c17 11 29 28 36 45c4 9 6 17 6 25z
M646 904c-54 0 -111 13 -111 70c0 13 3 27 9 42c13 32 38 63 71 82c40 23 82 29 120 29h17c54 0 111 -12 111 -69c0 -13 -3 -27 -9 -42c-13 -32 -38 -64 -71 -83c-40 -23 -82 -29 -120 -29h-17z" />
    <glyph glyph-name="m" unicode="m" horiz-adv-x="1254" 
d="M784 569c0 49 -26 78 -74 78h-39c-53 0 -111 -13 -163 -50s-86 -91 -107 -144l-182 -453h-115l289 722h115l-45 -113c14 16 29 30 46 44c59 48 130 70 193 70h39c92 0 161 -38 161 -134c0 -7 0 -13 -1 -20c21 31 46 59 77 84c59 48 131 70 194 70h39
c92 0 161 -39 161 -135c0 -42 -13 -89 -32 -135l-181 -453h-115l181 453c16 39 29 80 29 116c0 49 -26 78 -74 78h-39c-53 0 -111 -13 -163 -50s-87 -91 -108 -144l-181 -453h-115l181 453c16 39 29 80 29 116z" />
    <glyph glyph-name="ograve" unicode="&#xf2;" horiz-adv-x="865" 
d="M567 1102h134l82 -172h-99zM862 515c0 89 -57 132 -143 132h-55c-63 0 -135 -24 -193 -74c-70 -60 -112 -137 -142 -212c-21 -53 -37 -106 -37 -154c0 -89 57 -132 143 -132h55c63 0 135 24 193 74c70 60 112 137 142 212c21 53 37 106 37 154zM405 -1
c-129 0 -232 50 -232 186c0 55 17 116 41 176c39 97 99 197 194 268c90 68 194 94 287 94h54c129 0 232 -50 232 -186c0 -55 -17 -116 -41 -176c-39 -97 -99 -197 -194 -268c-90 -68 -194 -94 -287 -94h-54z" />
    <glyph glyph-name="Cacute" unicode="&#x106;" horiz-adv-x="1168" 
d="M329 269c0 -146 122 -194 261 -194h91c99 0 209 23 308 92c46 32 86 72 118 115l85 -44c-39 -48 -86 -91 -140 -127c-131 -86 -273 -112 -402 -112h-90c-181 0 -351 55 -351 246c0 58 16 121 41 185c48 120 132 239 253 319c131 86 273 112 402 112h90
c179 0 347 -53 351 -239l-121 -44c0 4 1 9 1 13c0 146 -122 194 -261 194h-91c-99 0 -209 -23 -308 -92c-97 -67 -162 -166 -201 -263c-22 -55 -36 -111 -36 -161zM1025 1096h134l-255 -172h-99z" />
    <glyph glyph-name="six" unicode="6" horiz-adv-x="848" 
d="M925 673c0 85 -72 112 -152 112h-53l31 76h52c120 0 238 -33 242 -157l-121 -44c0 5 1 9 1 13zM282 184c0 -84 74 -109 154 -109h53c57 0 119 12 177 50c53 35 91 88 112 141c11 28 18 56 18 82c0 84 -75 108 -155 108h-52c-57 0 -120 -11 -178 -49
c-53 -35 -90 -88 -111 -141c-11 -28 -18 -56 -18 -82zM672 532c121 0 244 -32 244 -160c0 -33 -8 -69 -23 -106c-30 -75 -87 -151 -164 -198c-89 -55 -184 -69 -271 -69h-52c-121 0 -245 32 -245 160c0 33 8 70 23 107l127 317c31 78 89 156 168 206c89 56 185 72 272 72
c-10 -25 -21 -51 -31 -76c-57 0 -121 -13 -178 -53c-55 -38 -94 -93 -116 -149l-67 -169c16 18 34 34 53 49c65 50 140 69 207 69h53z" />
    <glyph glyph-name="egrave" unicode="&#xe8;" horiz-adv-x="856" 
d="M292 207c0 -89 57 -132 143 -132h55c60 0 128 17 187 60c25 18 45 38 63 61l77 -52c-23 -25 -48 -47 -77 -66c-91 -61 -191 -79 -281 -79h-54c-129 0 -232 50 -232 186c0 55 17 116 41 176c39 97 99 197 194 268c90 68 194 94 287 94h54c129 0 232 -50 232 -186
c0 -55 -17 -116 -41 -176l-15 -38h-610c-14 -40 -23 -80 -23 -116zM567 1102h134l82 -172h-99zM862 515c0 89 -57 132 -143 132h-55c-63 0 -135 -24 -193 -74s-97 -111 -126 -174h494c14 40 23 80 23 116z" />
    <glyph glyph-name="cwm" horiz-adv-x="0" 
d="M127 -14c-5 -13 -17 -24 -35 -24c-19 0 -37 16 -37 37c0 5 1 10 3 15l344 860c5 13 16 24 34 24c19 0 38 -17 38 -38c0 -5 -1 -9 -3 -14z" />
    <glyph glyph-name="hyphen" unicode="-" horiz-adv-x="502" 
d="M198 323l31 76h363l-30 -76h-364z" />
    <glyph glyph-name="scaron" unicode="&#x161;" horiz-adv-x="692" 
d="M326 -1c-100 0 -209 23 -209 129c0 5 0 10 1 15l123 33c-2 -8 -3 -15 -3 -23c0 -62 59 -78 118 -78h40c43 0 88 5 132 32c38 23 63 60 78 97c7 18 11 36 11 52c0 29 -13 51 -42 56l-183 26c-71 11 -117 58 -117 123c0 19 4 40 13 62c23 57 63 115 122 151
c69 42 142 49 209 49h33c92 0 188 -23 188 -121c0 -4 -1 -8 -1 -12l-122 -35c2 8 2 16 2 23c0 54 -46 69 -97 69h-34c-37 0 -77 -5 -114 -30c-35 -23 -57 -59 -71 -94c-7 -19 -11 -37 -11 -53c0 -29 12 -51 41 -56l184 -26c71 -11 118 -57 118 -122c0 -19 -4 -40 -13 -62
c-24 -60 -67 -120 -129 -155c-76 -44 -155 -50 -228 -50h-39zM808 1102h98l-218 -172h-133l-81 172h98l74 -110z" />
    <glyph glyph-name="Zacute" unicode="&#x179;" horiz-adv-x="882" 
d="M357 784l30 76h796l-27 -67l-891 -717h604l-30 -76h-796l27 67l891 717h-604zM861 1096h134l-255 -172h-99z" />
    <glyph glyph-name="igrave" unicode="&#xec;" horiz-adv-x="329" 
d="M107 0l289 722h115l-289 -722h-115zM299 1102h133l83 -172h-99z" />
    <glyph glyph-name="acircumflex" unicode="&#xe2;" horiz-adv-x="813" 
d="M701 723c112 0 214 -37 214 -155c0 -38 -11 -81 -28 -123l-178 -445h-115l36 91c-12 -12 -25 -24 -39 -34c-57 -42 -122 -58 -180 -58h-45c-108 0 -226 25 -226 140c0 26 6 54 18 83c26 64 76 127 143 165c81 47 166 58 244 58h45c73 0 134 -25 145 -92l37 92
c14 34 23 69 23 100c0 73 -54 102 -124 102h-45c-50 0 -107 -15 -156 -52c-21 -16 -39 -35 -54 -55l-78 51c20 22 43 42 69 60c80 55 169 72 249 72h45zM695 280c0 71 -69 89 -136 89h-45c-48 0 -101 -8 -150 -38c-43 -26 -74 -67 -91 -109c-8 -20 -12 -40 -12 -58
c0 -71 69 -89 136 -89h45c48 0 101 8 150 38c43 26 74 67 91 109c8 20 12 40 12 58zM708 1040l-161 -110h-99l219 172h133l81 -172h-99z" />
    <glyph glyph-name="M" unicode="M" horiz-adv-x="1341" 
d="M121 0l344 860h67l164 -755l801 755h67l-344 -860h-116l243 607l-643 -607h-67l-141 649l-259 -649h-116z" />
    <glyph glyph-name="N" unicode="N" horiz-adv-x="1081" 
d="M121 0l344 860h67l374 -707l283 707h115l-344 -860h-67l-374 707l-282 -707h-116z" />
    <glyph glyph-name="at" unicode="@" horiz-adv-x="1159" 
d="M303 269c0 -146 122 -194 261 -194h91c93 0 190 5 290 46c34 14 67 34 94 59l39 -77c-22 -15 -46 -27 -70 -38c-132 -57 -261 -66 -384 -66h-90c-181 0 -351 55 -351 246c0 58 16 121 41 185c48 120 132 239 253 319c131 86 273 112 402 112h90c181 0 351 -55 351 -246
c0 -58 -16 -121 -41 -185c-24 -61 -72 -119 -135 -155c-77 -44 -156 -55 -230 -55h-20l30 76h21c44 0 91 7 136 35c39 24 68 61 83 99c22 55 36 111 36 161c0 146 -122 194 -261 194h-91c-99 0 -209 -23 -308 -92c-97 -67 -162 -166 -201 -263c-22 -55 -36 -111 -36 -161z
M877 495c0 50 -38 69 -85 69h-30c-34 0 -73 -10 -106 -35c-35 -26 -58 -63 -72 -99c-9 -22 -15 -45 -15 -65c0 -50 39 -69 86 -69h30c34 0 73 10 106 35c36 27 55 63 71 99c9 22 15 45 15 65zM624 220c-89 0 -175 26 -175 121c0 28 8 58 20 89c23 59 65 117 124 155
c65 42 135 55 199 55h31c51 0 88 -24 96 -70l27 70h116l-168 -420h-116l28 70c-5 -5 -10 -10 -16 -15c-41 -36 -90 -55 -135 -55h-31z" />
    <glyph glyph-name="idieresis" unicode="&#xef;" horiz-adv-x="329" 
d="M107 0l289 722h115l-289 -722h-115zM277 913c-28 0 -51 10 -51 39c0 10 3 22 8 34c8 20 20 40 40 54s41 19 61 19c28 0 52 -10 52 -39c0 -10 -3 -22 -8 -34c-8 -20 -20 -40 -40 -54s-42 -19 -62 -19zM589 913c-28 0 -52 10 -52 39c0 10 3 22 8 34c8 20 20 40 40 54
s42 19 62 19c28 0 51 -10 51 -39c0 -10 -3 -22 -8 -34c-8 -20 -20 -40 -40 -54s-41 -19 -61 -19z" />
    <glyph glyph-name="colon" unicode=":" horiz-adv-x="392" 
d="M196 0c-27 0 -49 9 -49 37c0 10 3 22 7 33c8 19 20 38 39 51s40 19 59 19c27 0 49 -10 49 -38c0 -10 -3 -21 -7 -32c-8 -19 -20 -39 -39 -52s-40 -18 -59 -18zM429 583c-27 0 -49 9 -49 37c0 10 3 22 7 33c8 19 20 38 39 51s40 18 59 18c27 0 49 -9 49 -37
c0 -10 -3 -21 -7 -32c-8 -19 -20 -39 -39 -52s-40 -18 -59 -18z" />
    <glyph glyph-name="l" unicode="l" horiz-adv-x="323" 
d="M104 0l380 950h115l-380 -950h-115z" />
    <glyph glyph-name="Iacute" unicode="&#xcd;" horiz-adv-x="392" 
d="M138 0l344 860h116l-344 -860h-116zM616 1096h134l-255 -172h-99z" />
    <glyph glyph-name="two" unicode="2" 
d="M771 861c112 0 235 -25 235 -144c0 -27 -6 -56 -18 -85c-73 -184 -286 -306 -482 -412c-88 -48 -177 -96 -265 -144h525l-31 -76h-666l31 76c135 73 270 147 405 220c153 83 309 192 367 336c8 21 13 41 13 60c0 75 -74 93 -145 93h-48c-51 0 -106 -8 -159 -40
c-29 -17 -53 -41 -71 -67l-84 46c26 30 56 57 92 77c84 48 172 60 253 60h48z" />
    <glyph glyph-name="zero" unicode="0" horiz-adv-x="900" 
d="M790 785h-53c-66 0 -141 -23 -197 -79c-79 -79 -119 -181 -157 -276c-32 -81 -67 -166 -67 -238c0 -13 2 -26 4 -38c11 -56 67 -79 133 -79h53c66 0 141 23 197 79c79 79 120 181 158 276c32 81 66 166 66 238c0 13 -1 26 -3 38c-11 56 -68 79 -134 79zM820 861
c97 0 189 -20 217 -96c8 -22 12 -46 12 -71c0 -81 -37 -174 -73 -264c-47 -118 -98 -241 -207 -335c-88 -76 -196 -96 -293 -96h-53c-97 0 -189 20 -217 96c-8 22 -11 46 -11 71c0 81 36 174 72 264c47 118 98 241 207 335c88 76 197 96 294 96h52z" />
    <glyph glyph-name="g" unicode="g" horiz-adv-x="882" 
d="M740 723c95 0 149 -55 149 -153v-5l63 157h115l-313 -782c-31 -79 -88 -157 -168 -208c-89 -57 -185 -73 -272 -73h-53c-122 0 -241 35 -241 164l121 42c-1 -6 -1 -12 -1 -18c0 -85 72 -112 152 -112h52c58 0 122 13 179 53c56 39 94 96 116 152l87 219
c-18 -23 -37 -45 -59 -65c-64 -60 -145 -94 -217 -94h-52c-126 0 -225 51 -225 184c0 55 17 117 41 178c39 97 98 195 192 267c88 67 190 94 281 94h53zM845 518c0 86 -53 129 -136 129h-53c-61 0 -131 -25 -187 -74c-69 -60 -110 -136 -140 -211c-21 -54 -37 -108 -37 -157
c0 -86 53 -129 136 -129h53c61 0 131 25 187 74c69 60 110 137 140 212c21 53 37 107 37 156z" />
    <glyph glyph-name="Tcedilla" unicode="&#x162;" horiz-adv-x="796" 
d="M450 -187c0 45 -49 55 -91 55h-122l104 133l313 783h-321l31 76h756l-30 -76h-321l-313 -784h-23l-55 -72h6c75 0 162 -14 162 -94c0 -16 -4 -33 -11 -51c-17 -43 -52 -84 -97 -108c-57 -31 -116 -38 -171 -38h-29c-74 0 -160 15 -162 92l98 36c-1 -4 -1 -9 -1 -13
c0 -45 48 -54 90 -54h29c31 0 63 4 95 22c26 14 46 38 56 63c4 11 7 20 7 30z" />
    <glyph glyph-name="Tcaron" unicode="&#x164;" horiz-adv-x="796" 
d="M333 784l31 76h756l-30 -76h-321l-313 -784h-116l314 784h-321zM860 1096h98l-218 -172h-133l-82 172h99l74 -109z" />
    <glyph glyph-name="hungarumlaut" unicode="&#x2dd;" horiz-adv-x="363" 
d="M253 688l208 172h129l-241 -172h-96zM720 860h130l-241 -172h-96z" />
    <glyph glyph-name="Lacute" unicode="&#x139;" horiz-adv-x="796" 
d="M121 0l344 860h116l-314 -784h507l-30 -76h-623zM599 1096h133l-254 -172h-99z" />
    <glyph glyph-name="quotesinglbase" unicode="&#x201a;" horiz-adv-x="441" 
d="M259 108h146l-275 -280h-108z" />
    <glyph glyph-name="grave" unicode="`" horiz-adv-x="346" 
d="M368 860h134l82 -172h-99z" />
    <glyph glyph-name="otilde" unicode="&#xf5;" horiz-adv-x="865" 
d="M558 934h-93c14 35 43 69 79 89c45 25 93 31 136 31c54 0 85 -40 139 -40c19 0 41 3 61 14c16 9 28 24 34 39h93c-14 -35 -43 -69 -79 -89c-45 -25 -93 -31 -136 -31c-54 0 -85 40 -139 40c-19 0 -40 -3 -60 -14c-16 -9 -29 -24 -35 -39zM862 515c0 89 -57 132 -143 132
h-55c-63 0 -135 -24 -193 -74c-70 -60 -112 -137 -142 -212c-21 -53 -37 -106 -37 -154c0 -89 57 -132 143 -132h55c63 0 135 24 193 74c70 60 112 137 142 212c21 53 37 106 37 154zM405 -1c-129 0 -232 50 -232 186c0 55 17 116 41 176c39 97 99 197 194 268
c90 68 194 94 287 94h54c129 0 232 -50 232 -186c0 -55 -17 -116 -41 -176c-39 -97 -99 -197 -194 -268c-90 -68 -194 -94 -287 -94h-54z" />
    <glyph glyph-name="uhungarumlaut" unicode="&#x171;" 
d="M296 173c0 -70 52 -98 119 -98h43c48 0 102 15 149 51c50 39 82 91 103 143l181 453h116l-289 -722h-116l43 107c-12 -13 -24 -26 -38 -38c-54 -47 -120 -70 -179 -70h-43c-109 0 -209 36 -209 151c0 37 11 78 27 119l181 453h116l-182 -453c-13 -33 -22 -66 -22 -96z
M478 930l208 172h129l-241 -172h-96zM945 1102h130l-242 -172h-95z" />
    <glyph glyph-name="dcroat" unicode="&#x111;" horiz-adv-x="908" 
d="M397 -1c-126 0 -225 51 -225 184c0 55 18 117 42 178c39 97 98 196 192 268c88 67 190 94 281 94h26l30 75h239l61 152h115l-60 -152h112l-30 -76h-113l-289 -722h-115l63 158c-18 -23 -37 -45 -59 -65c-64 -60 -145 -94 -217 -94h-53zM845 518c0 86 -53 129 -136 129
h-53c-61 0 -131 -25 -187 -74c-69 -60 -110 -137 -140 -212c-21 -54 -38 -108 -38 -157c0 -86 54 -129 137 -129h52c61 0 131 25 187 74c69 60 110 137 140 212c21 54 38 108 38 157zM764 722c81 -9 125 -62 125 -152v-5l63 157h-188z" />
    <glyph glyph-name="K" unicode="K" horiz-adv-x="917" 
d="M465 860h116l-172 -430c220 144 441 287 662 430h150l-518 -337l174 -523h-125l-152 456l-244 -158l-119 -298h-116z" />
    <glyph glyph-name="zdotaccent" unicode="&#x17c;" horiz-adv-x="640" 
d="M302 646l30 76h554l-27 -67l-605 -579h373l-30 -76h-554l27 67l605 579h-373zM589 913c-28 0 -52 10 -52 39c0 10 3 22 8 34c8 20 20 40 40 54s42 19 62 19c28 0 51 -10 51 -39c0 -10 -3 -22 -8 -34c-8 -20 -20 -40 -40 -54s-41 -19 -61 -19z" />
    <glyph glyph-name="period" unicode="." horiz-adv-x="392" 
d="M196 0c-27 0 -49 9 -49 37c0 10 3 22 7 33c8 19 20 38 39 51s40 19 59 19c27 0 49 -10 49 -38c0 -10 -3 -21 -7 -32c-8 -19 -20 -39 -39 -52s-40 -18 -59 -18z" />
    <glyph glyph-name="k" unicode="k" horiz-adv-x="753" 
d="M492 950h116l-380 -950h-116zM893 722h131l-417 -297l128 -425h-127l-106 351l-187 -134l52 130z" />
    <glyph glyph-name="W" unicode="W" horiz-adv-x="1349" 
d="M361 860h116l53 -696l288 328l-28 368h116l19 -246l215 246h107l-314 -359l26 -337l610 696h107l-754 -860h-66l-29 380l-333 -380h-67z" />
    <glyph glyph-name="X" unicode="X" horiz-adv-x="856" 
d="M372 860h123l139 -340l410 340h129l-506 -420l181 -440h-123l-150 364l-438 -364h-128l534 443z" />
    <glyph glyph-name="ogonek" unicode="&#x2db;" horiz-adv-x="346" 
d="M13 -363c-75 0 -162 15 -162 95c0 16 4 33 11 51c35 88 154 103 235 161l165 117l-13 -61l-166 -117c-47 -33 -110 -52 -129 -100c-4 -11 -6 -21 -6 -31c0 -45 48 -54 90 -54h29c31 0 64 4 96 22c14 8 25 18 35 30l35 -63c-53 -37 -130 -50 -191 -50h-29z" />
    <glyph glyph-name="agrave" unicode="&#xe0;" horiz-adv-x="813" 
d="M701 723c112 0 214 -37 214 -155c0 -38 -11 -81 -28 -123l-178 -445h-115l36 91c-12 -12 -25 -24 -39 -34c-57 -42 -122 -58 -180 -58h-45c-108 0 -226 25 -226 140c0 26 6 54 18 83c26 64 76 127 143 165c81 47 166 58 244 58h45c73 0 134 -25 145 -92l37 92
c14 34 23 69 23 100c0 73 -54 102 -124 102h-45c-50 0 -107 -15 -156 -52c-21 -16 -39 -35 -54 -55l-78 51c20 22 43 42 69 60c80 55 169 72 249 72h45zM524 1102h133l83 -172h-99zM695 280c0 71 -69 89 -136 89h-45c-48 0 -101 -8 -150 -38c-43 -26 -74 -67 -91 -109
c-8 -20 -12 -40 -12 -58c0 -71 69 -89 136 -89h45c48 0 101 8 150 38c43 26 74 67 91 109c8 20 12 40 12 58z" />
    <glyph glyph-name="aogonek" unicode="&#x105;" horiz-adv-x="813" 
d="M795 545c0 73 -54 102 -124 102h-45c-50 0 -107 -15 -156 -52c-21 -16 -39 -35 -54 -55l-78 51c20 22 43 42 69 60c80 55 169 72 249 72h45c112 0 214 -37 214 -155c0 -38 -11 -81 -28 -123l-169 -423l-5 -22l-166 -117c-47 -33 -109 -52 -128 -100c-4 -11 -7 -21 -7 -31
c0 -45 48 -54 90 -54h29c31 0 64 4 96 22c14 8 25 18 35 30l35 -63c-53 -37 -129 -50 -190 -50h-29c-75 0 -162 15 -162 95c0 16 3 33 10 51c35 88 154 103 235 161l80 56h-47l36 91c-12 -12 -25 -24 -39 -34c-57 -42 -122 -58 -180 -58h-45c-108 0 -226 25 -226 140
c0 26 6 54 18 83c26 64 76 127 143 165c81 47 166 58 244 58h45c73 0 134 -25 145 -92l37 92c14 34 23 69 23 100zM695 280c0 71 -69 89 -136 89h-45c-48 0 -101 -8 -150 -38c-43 -26 -74 -67 -91 -109c-8 -20 -12 -40 -12 -58c0 -71 69 -89 136 -89h45c48 0 101 8 150 38
c43 26 74 67 91 109c8 20 12 40 12 58z" />
    <glyph glyph-name="quotedbl" unicode="&#x22;" horiz-adv-x="510" 
d="M396 860h115l-111 -280h-116zM802 860l-111 -280h-116l112 280h115z" />
    <glyph glyph-name="t" unicode="t" horiz-adv-x="467" 
d="M287 646l30 76h148l91 228h115l-91 -228h148l-31 -76h-147l-259 -646h-115l258 646h-147z" />
    <glyph glyph-name="question" unicode="?" horiz-adv-x="761" 
d="M729 861c107 0 216 -28 216 -141c0 -29 -7 -62 -20 -94c-27 -66 -76 -131 -144 -173c-66 -41 -137 -56 -203 -60l-50 -124h-115l80 199h79c47 0 99 10 146 41c44 29 74 73 92 117c9 24 15 48 15 69c0 69 -61 90 -126 90h-43c-47 0 -99 -10 -146 -41
c-26 -18 -47 -40 -64 -65l-87 43c24 30 54 57 88 78c79 48 162 61 239 61h43zM363 0c-27 0 -49 9 -49 37c0 10 3 22 7 33c8 19 20 38 39 51s40 19 59 19c27 0 49 -10 49 -38c0 -10 -3 -21 -7 -32c-8 -19 -20 -39 -39 -52s-40 -18 -59 -18z" />
    <glyph glyph-name="Adieresis" unicode="&#xc4;" horiz-adv-x="960" 
d="M17 0l774 860h67l85 -860h-116l-23 227h-478l-204 -227h-105zM593 908c-28 0 -51 10 -51 39c0 10 2 22 7 34c8 20 21 40 41 54s41 18 61 18c28 0 51 -10 51 -39c0 -10 -2 -21 -7 -33c-8 -20 -21 -40 -41 -54s-41 -19 -61 -19zM904 908c-28 0 -51 10 -51 39
c0 10 3 22 8 34c8 20 20 40 40 54s42 18 62 18c28 0 51 -10 51 -39c0 -10 -3 -21 -8 -33c-8 -20 -20 -40 -40 -54s-42 -19 -62 -19zM797 303l-40 403l-363 -403h403z" />
    <glyph glyph-name="five" unicode="5" horiz-adv-x="830" 
d="M779 374c0 75 -57 104 -129 104h-46c-81 0 -173 -47 -236 -121h-116c67 168 135 335 202 503h593l-30 -76h-478l-137 -343c63 68 152 113 232 113h46c114 0 219 -36 219 -156c0 -38 -10 -80 -27 -122c-31 -78 -89 -155 -168 -205c-89 -56 -185 -72 -272 -72h-52
c-110 0 -218 27 -239 126l117 57c2 -82 73 -107 152 -107h53c57 0 121 13 178 52c55 38 93 94 115 149c13 34 23 68 23 98z" />
    <glyph glyph-name="Aring" unicode="&#xc5;" horiz-adv-x="960" 
d="M17 0l774 860h67l85 -860h-116l-23 227h-478l-204 -227h-105zM797 303l-40 403l-363 -403h403zM805 1071c-50 0 -99 -34 -99 -86c0 -27 25 -35 51 -35h17c19 0 39 4 58 16c17 11 29 27 36 44c4 9 6 18 6 26c0 27 -25 35 -51 35h-18zM737 899c-54 0 -112 12 -112 69
c0 13 3 27 9 42c13 32 38 64 71 83c40 23 83 29 121 29h17c54 0 111 -12 111 -69c0 -13 -3 -28 -9 -43c-13 -32 -38 -63 -71 -82c-40 -23 -82 -29 -120 -29h-17z" />
    <glyph glyph-name="z" unicode="z" horiz-adv-x="640" 
d="M302 646l30 76h554l-27 -67l-605 -579h373l-30 -76h-554l27 67l605 579h-373z" />
    <glyph glyph-name="Ccedilla" unicode="&#xc7;" horiz-adv-x="1168" 
d="M329 269c0 -146 122 -194 261 -194h91c99 0 209 23 308 92c46 32 86 72 118 115l85 -44c-39 -48 -86 -91 -140 -127c-131 -86 -273 -112 -402 -112h-10l-55 -71h6c75 0 163 -14 163 -94c0 -16 -4 -33 -11 -51c-17 -43 -53 -84 -98 -108c-57 -31 -115 -38 -170 -38h-29
c-74 0 -160 15 -162 92l97 36c-1 -4 -1 -9 -1 -13c0 -45 48 -54 90 -54h29c31 0 64 4 96 22c26 14 46 38 56 63c4 11 6 20 6 30c0 45 -48 55 -90 55h-122l102 131c-175 2 -338 59 -338 246c0 58 16 121 41 185c48 120 132 239 253 319c131 86 273 112 402 112h90
c179 0 347 -53 351 -239l-121 -44c0 4 1 9 1 13c0 146 -122 194 -261 194h-91c-99 0 -209 -23 -308 -92c-97 -67 -162 -166 -201 -263c-22 -55 -36 -111 -36 -161z" />
    <glyph glyph-name="Idotaccent" unicode="&#x130;" horiz-adv-x="392" 
d="M138 0l344 860h116l-344 -860h-116zM465 908c-28 0 -51 10 -51 39c0 10 2 22 7 34c8 20 21 40 41 54s41 18 61 18c28 0 51 -10 51 -39c0 -10 -2 -21 -7 -33c-8 -20 -21 -40 -41 -54s-41 -19 -61 -19z" />
    <glyph glyph-name="sterling" unicode="&#xa3;" horiz-adv-x="830" 
d="M900 701c0 57 -38 84 -93 84h-35c-40 0 -85 -15 -122 -46c-44 -37 -71 -84 -90 -131l-56 -140h332l-30 -76h-332l-56 -139c-29 -73 -87 -142 -166 -177h528l-30 -76h-670c10 25 21 51 31 76c99 0 164 105 192 177l56 139h-122l31 76h121l56 140c28 69 74 139 142 187
c69 49 146 66 216 66h35c97 0 181 -34 181 -137v-10l-121 -37c1 8 2 16 2 24z" />
    <glyph glyph-name="eight" unicode="8" horiz-adv-x="865" 
d="M277 178c0 -83 81 -103 159 -103h53c56 0 117 9 175 44c49 30 86 77 105 125c9 23 15 46 15 67c0 83 -82 103 -160 103h-52c-56 0 -118 -10 -176 -45c-49 -30 -86 -77 -105 -125c-9 -23 -14 -45 -14 -66zM783 475c65 -18 121 -58 121 -139c0 -29 -6 -60 -19 -92
c-28 -71 -85 -139 -158 -181c-90 -51 -183 -64 -269 -64h-52c-119 0 -250 27 -250 154c0 29 7 59 20 91c28 71 85 140 158 182c43 24 85 39 128 49c-45 15 -83 47 -83 103c0 19 4 38 12 59c25 63 73 126 137 166c73 46 151 58 223 58h52c100 0 200 -27 200 -133
c0 -28 -6 -60 -19 -91c-31 -78 -111 -138 -201 -162zM492 571c0 -62 52 -81 110 -81h53c42 0 87 9 129 38c40 28 68 68 84 109c9 23 15 46 15 67c0 62 -52 81 -110 81h-53c-42 0 -87 -9 -129 -38c-40 -28 -68 -69 -84 -110c-9 -23 -15 -45 -15 -66z" />
    <glyph glyph-name="Ntilde" unicode="&#xd1;" horiz-adv-x="1081" 
d="M121 0l344 860h67l374 -707l283 707h115l-344 -860h-67l-374 707l-282 -707h-116zM666 929h-93c14 35 43 69 79 89c45 25 93 31 136 31c54 0 86 -40 140 -40c19 0 40 3 60 14c16 9 29 24 35 39h92c-14 -35 -43 -69 -79 -89c-45 -25 -92 -31 -135 -31
c-54 0 -86 40 -140 40c-19 0 -40 -3 -60 -14c-16 -9 -29 -24 -35 -39z" />
    <glyph glyph-name="Z" unicode="Z" horiz-adv-x="882" 
d="M357 784l30 76h796l-27 -67l-891 -717h604l-30 -76h-796l27 67l891 717h-604z" />
    <glyph glyph-name="T" unicode="T" horiz-adv-x="796" 
d="M333 784l31 76h756l-30 -76h-321l-313 -784h-116l314 784h-321z" />
    <glyph glyph-name="parenleft" unicode="(" horiz-adv-x="476" 
d="M236 -39c0 -93 19 -175 70 -222l-69 -70c-77 57 -115 163 -115 292c0 102 25 213 70 325c66 165 173 329 320 465c67 62 142 116 219 152l12 -70c-61 -33 -119 -83 -171 -136c-121 -125 -207 -268 -264 -411c-45 -111 -72 -222 -72 -325z" />
    <glyph glyph-name="Eacute" unicode="&#xc9;" horiz-adv-x="804" 
d="M121 0l344 860h623l-31 -76h-507l-126 -316h449l-30 -76h-450l-126 -316h507l-30 -76h-623zM852 1096h134l-255 -172h-99z" />
    <glyph glyph-name="zcaron" unicode="&#x17e;" horiz-adv-x="640" 
d="M302 646l30 76h554l-27 -67l-605 -579h373l-30 -76h-554l27 67l605 579h-373zM782 1102h98l-218 -172h-133l-81 172h98l74 -110z" />
    <glyph glyph-name="IJ" unicode="&#x132;" horiz-adv-x="1047" 
d="M502 167c1 -69 60 -92 126 -92h44c48 0 101 12 149 45c47 33 78 81 97 128l245 612h115l-245 -612c-28 -70 -78 -139 -149 -184c-79 -50 -165 -65 -243 -65h-43c-96 0 -192 23 -212 108zM138 0l344 860h116l-344 -860h-116z" />
    <glyph glyph-name="guilsinglleft" unicode="&#x2039;" horiz-adv-x="476" 
d="M373 361l25 -361h-151l-25 361l314 361h151z" />
    <glyph glyph-name="quotedblbase" unicode="&#x201e;" horiz-adv-x="796" 
d="M66 -172l239 280h116l-270 -280h-85zM589 108h145l-273 -280h-108z" />
    <glyph glyph-name="abreve" unicode="&#x103;" horiz-adv-x="813" 
d="M701 723c112 0 214 -37 214 -155c0 -38 -11 -81 -28 -123l-178 -445h-115l36 91c-12 -12 -25 -24 -39 -34c-57 -42 -122 -58 -180 -58h-45c-108 0 -226 25 -226 140c0 26 6 54 18 83c26 64 76 127 143 165c81 47 166 58 244 58h45c73 0 134 -25 145 -92l37 92
c14 34 23 69 23 100c0 73 -54 102 -124 102h-45c-50 0 -107 -15 -156 -52c-21 -16 -39 -35 -54 -55l-78 51c20 22 43 42 69 60c80 55 169 72 249 72h45zM568 1059c0 -48 65 -53 110 -53h34c34 0 70 3 107 19c25 11 48 31 57 54h92c-17 -43 -55 -82 -100 -104
c-62 -31 -124 -36 -183 -36h-34c-79 0 -180 12 -180 96c0 14 3 29 9 44h93c-3 -7 -5 -14 -5 -20zM695 280c0 71 -69 89 -136 89h-45c-48 0 -101 -8 -150 -38c-43 -26 -74 -67 -91 -109c-8 -20 -12 -40 -12 -58c0 -71 69 -89 136 -89h45c48 0 101 8 150 38
c43 26 74 67 91 109c8 20 12 40 12 58z" />
    <glyph glyph-name="G" unicode="G" horiz-adv-x="1237" 
d="M329 269c0 -146 122 -194 261 -194h91c96 0 201 15 301 74c84 50 147 129 179 210l13 33h-412l31 76h527l-187 -468h-115l79 198c-32 -40 -71 -75 -115 -105c-107 -71 -226 -94 -332 -94h-90c-181 0 -351 55 -351 246c0 58 16 121 41 185c48 120 132 239 253 319
c131 86 273 112 402 112h90c165 0 321 -45 347 -199l-117 -54c-9 133 -127 177 -260 177h-91c-99 0 -209 -23 -308 -92c-97 -67 -162 -166 -201 -263c-22 -55 -36 -111 -36 -161z" />
    <glyph glyph-name="h" unicode="h" horiz-adv-x="787" 
d="M786 568c0 50 -26 79 -75 79h-38c-51 0 -108 -13 -158 -50c-51 -38 -85 -91 -106 -144l-181 -453h-116l380 950h116l-135 -339c13 15 26 29 42 42c57 48 127 70 188 70h39c92 0 163 -38 163 -135c0 -42 -14 -89 -32 -135l-181 -453h-116l182 453c16 39 28 79 28 115z" />
    <glyph glyph-name="aacute" unicode="&#xe1;" horiz-adv-x="813" 
d="M701 723c112 0 214 -37 214 -155c0 -38 -11 -81 -28 -123l-178 -445h-115l36 91c-12 -12 -25 -24 -39 -34c-57 -42 -122 -58 -180 -58h-45c-108 0 -226 25 -226 140c0 26 6 54 18 83c26 64 76 127 143 165c81 47 166 58 244 58h45c73 0 134 -25 145 -92l37 92
c14 34 23 69 23 100c0 73 -54 102 -124 102h-45c-50 0 -107 -15 -156 -52c-21 -16 -39 -35 -54 -55l-78 51c20 22 43 42 69 60c80 55 169 72 249 72h45zM809 1102h134l-255 -172h-99zM695 280c0 71 -69 89 -136 89h-45c-48 0 -101 -8 -150 -38c-43 -26 -74 -67 -91 -109
c-8 -20 -12 -40 -12 -58c0 -71 69 -89 136 -89h45c48 0 101 8 150 38c43 26 74 67 91 109c8 20 12 40 12 58z" />
    <glyph glyph-name="eacute" unicode="&#xe9;" horiz-adv-x="856" 
d="M292 207c0 -89 57 -132 143 -132h55c60 0 128 17 187 60c25 18 45 38 63 61l77 -52c-23 -25 -48 -47 -77 -66c-91 -61 -191 -79 -281 -79h-54c-129 0 -232 50 -232 186c0 55 17 116 41 176c39 97 99 197 194 268c90 68 194 94 287 94h54c129 0 232 -50 232 -186
c0 -55 -17 -116 -41 -176l-15 -38h-610c-14 -40 -23 -80 -23 -116zM852 1102h134l-255 -172h-99zM862 515c0 89 -57 132 -143 132h-55c-63 0 -135 -24 -193 -74s-97 -111 -126 -174h494c14 40 23 80 23 116z" />
    <glyph glyph-name="Scaron" unicode="&#x160;" horiz-adv-x="900" 
d="M416 -1c-125 0 -268 25 -268 157v6l122 39c-1 -7 -2 -14 -2 -20c0 -89 95 -106 179 -106h57c61 0 127 4 191 40c50 28 88 77 107 125c8 19 11 37 11 54c0 44 -26 76 -73 79l-259 46c-90 6 -149 59 -149 137c0 22 4 45 14 70c27 69 80 138 151 178c90 50 181 57 267 57h52
c117 0 248 -25 248 -149l-121 -28c2 83 -81 101 -158 101h-51c-56 0 -115 -5 -173 -39c-47 -28 -81 -74 -99 -120c-8 -20 -12 -38 -12 -56c0 -41 22 -72 66 -75l260 -46c93 -6 156 -60 156 -140c0 -21 -4 -44 -14 -69c-28 -71 -84 -142 -158 -182c-96 -52 -194 -59 -286 -59
h-58zM907 1096h99l-219 -172h-133l-81 172h99l74 -109z" />
    <glyph glyph-name="greater" unicode="&#x3e;" horiz-adv-x="848" 
d="M767 361l-453 252l57 143l580 -324l-56 -142l-839 -323l57 142z" />
    <glyph glyph-name="oe" unicode="&#x153;" horiz-adv-x="1367" 
d="M854 198c0 -79 45 -123 122 -123h48c55 0 117 18 169 60c22 18 42 38 58 59l79 -50c-22 -24 -46 -47 -74 -66c-84 -59 -177 -79 -262 -79h-48c-101 0 -183 37 -204 125c-11 -11 -23 -21 -36 -31c-83 -66 -181 -94 -268 -94h-49c-120 0 -210 53 -210 179
c0 57 18 120 43 183c39 96 97 195 189 268c83 66 181 94 268 94h48c101 0 183 -37 204 -125c11 11 23 21 36 31c83 66 181 94 268 94h49c120 0 210 -52 210 -178c0 -57 -18 -121 -43 -184l-16 -38h-555c-15 -43 -26 -86 -26 -125zM819 525c0 79 -45 122 -122 122h-48
c-58 0 -123 -26 -175 -74c-67 -61 -106 -138 -136 -212c-22 -56 -40 -112 -40 -163c0 -79 45 -123 122 -123h48c58 0 123 26 175 74c67 61 106 138 136 212c22 56 40 113 40 164zM1375 525c0 79 -45 122 -122 122h-48c-58 0 -123 -26 -175 -74c-55 -51 -92 -112 -120 -174
h439c15 43 26 87 26 126z" />
    <glyph glyph-name="Nacute" unicode="&#x143;" horiz-adv-x="1081" 
d="M121 0l344 860h67l374 -707l283 707h115l-344 -860h-67l-374 707l-282 -707h-116zM961 1096h133l-255 -172h-99z" />
    <glyph glyph-name="lacute" unicode="&#x13a;" horiz-adv-x="323" 
d="M104 0l380 950h115l-380 -950h-115zM600 1188h134l-255 -172h-99z" />
    <glyph glyph-name="less" unicode="&#x3c;" horiz-adv-x="848" 
d="M370 361l452 -252l-57 -142l-580 323l57 142l839 324l-57 -143z" />
    <glyph glyph-name="asciicircum" unicode="^" horiz-adv-x="934" 
d="M775 769l-451 -425h-119l546 516h120l133 -516h-119z" />
    <glyph glyph-name="seven" unicode="7" 
d="M383 784l30 76h666l-27 -67l-717 -793h-153l709 784h-508z" />
    <glyph glyph-name="Ocircumflex" unicode="&#xd4;" horiz-adv-x="1211" 
d="M1226 591c0 146 -122 194 -261 194h-91c-99 0 -209 -23 -308 -92c-97 -67 -162 -166 -201 -263c-22 -55 -36 -111 -36 -161c0 -146 122 -194 261 -194h91c99 0 209 23 308 92c97 67 162 166 201 263c22 55 36 111 36 161zM560 -1c-181 0 -351 55 -351 246
c0 58 16 121 41 185c48 120 132 239 253 319c131 86 273 112 402 112h90c181 0 351 -55 351 -246c0 -58 -16 -121 -41 -185c-48 -120 -132 -239 -253 -319c-131 -86 -273 -112 -402 -112h-90zM925 1034l-162 -110h-99l219 172h133l81 -172h-98z" />
    <glyph glyph-name="F" unicode="F" horiz-adv-x="778" 
d="M121 0l344 860h623l-31 -76h-507l-126 -316h449l-30 -76h-450l-156 -392h-116z" />
    <glyph glyph-name="tilde" unicode="&#x2dc;" horiz-adv-x="363" 
d="M307 692h-93c14 35 43 69 79 89c45 25 93 32 136 32c54 0 86 -40 140 -40c19 0 40 2 60 13c16 9 29 25 35 40h92c-14 -35 -43 -69 -79 -89c-45 -25 -92 -32 -135 -32c-54 0 -86 40 -140 40c-19 0 -40 -3 -60 -14c-16 -9 -29 -24 -35 -39z" />
    <glyph glyph-name="iacute" unicode="&#xed;" horiz-adv-x="329" 
d="M107 0l289 722h115l-289 -722h-115zM584 1102h134l-255 -172h-99z" />
    <glyph glyph-name="Otilde" unicode="&#xd5;" horiz-adv-x="1211" 
d="M731 929h-93c14 35 43 69 79 89c45 25 93 31 136 31c54 0 85 -40 139 -40c19 0 41 3 61 14c16 9 28 24 34 39h93c-14 -35 -43 -69 -79 -89c-45 -25 -93 -31 -136 -31c-54 0 -85 40 -139 40c-19 0 -40 -3 -60 -14c-16 -9 -29 -24 -35 -39zM1226 591
c0 146 -122 194 -261 194h-91c-99 0 -209 -23 -308 -92c-97 -67 -162 -166 -201 -263c-22 -55 -36 -111 -36 -161c0 -146 122 -194 261 -194h91c99 0 209 23 308 92c97 67 162 166 201 263c22 55 36 111 36 161zM560 -1c-181 0 -351 55 -351 246c0 58 16 121 41 185
c48 120 132 239 253 319c131 86 273 112 402 112h90c181 0 351 -55 351 -246c0 -58 -16 -121 -41 -185c-48 -120 -132 -239 -253 -319c-131 -86 -273 -112 -402 -112h-90z" />
    <glyph glyph-name="parenright" unicode=")" horiz-adv-x="476" 
d="M476 903c74 -57 108 -160 108 -285c0 -105 -26 -218 -72 -332c-66 -164 -170 -328 -316 -465c-65 -62 -139 -116 -214 -152l-13 69c60 33 118 84 168 137c119 125 203 268 260 411c46 114 74 229 74 334c0 89 -16 168 -64 214z" />
    <glyph glyph-name="germandbls" unicode="&#xdf;" horiz-adv-x="856" 
d="M835 707c0 61 -54 78 -111 78h-38c-41 0 -86 -9 -127 -36c-38 -25 -65 -63 -80 -101l-260 -648h-115l259 648c24 61 71 120 133 158c73 44 150 55 221 55h37c99 0 201 -24 201 -129c0 -26 -5 -55 -17 -84c-24 -60 -65 -122 -126 -162c47 -21 82 -62 82 -127
c0 -32 -8 -68 -22 -104c-28 -69 -73 -139 -141 -189c-67 -49 -144 -67 -213 -67h-47c-92 0 -173 31 -181 121l119 49c0 -3 -1 -7 -1 -10c0 -57 38 -84 93 -84h48c39 0 83 16 119 47c43 38 69 86 88 133c11 27 18 54 18 79c0 77 -66 101 -139 101h-98l31 76h97
c29 0 63 12 90 36c33 29 53 65 67 101c8 20 13 41 13 59z" />
    <glyph glyph-name="a" unicode="a" horiz-adv-x="813" 
d="M701 723c112 0 214 -37 214 -155c0 -38 -11 -81 -28 -123l-178 -445h-115l36 91c-12 -12 -25 -24 -39 -34c-57 -42 -122 -58 -180 -58h-45c-108 0 -226 25 -226 140c0 26 6 54 18 83c26 64 76 127 143 165c81 47 166 58 244 58h45c73 0 134 -25 145 -92l37 92
c14 34 23 69 23 100c0 73 -54 102 -124 102h-45c-50 0 -107 -15 -156 -52c-21 -16 -39 -35 -54 -55l-78 51c20 22 43 42 69 60c80 55 169 72 249 72h45zM695 280c0 71 -69 89 -136 89h-45c-48 0 -101 -8 -150 -38c-43 -26 -74 -67 -91 -109c-8 -20 -12 -40 -12 -58
c0 -71 69 -89 136 -89h45c48 0 101 8 150 38c43 26 74 67 91 109c8 20 12 40 12 58z" />
    <glyph glyph-name="scedilla" unicode="&#x15f;" horiz-adv-x="692" 
d="M288 0c-85 5 -171 35 -171 128c0 5 0 10 1 15l123 33c-2 -8 -3 -15 -3 -23c0 -62 59 -78 118 -78h40c43 0 88 5 132 32c38 23 63 60 78 97c7 18 11 36 11 52c0 29 -13 51 -42 56l-183 26c-71 11 -117 58 -117 123c0 19 4 40 13 62c23 57 63 115 122 151
c69 42 142 49 209 49h33c92 0 188 -23 188 -121c0 -4 -1 -8 -1 -12l-122 -35c2 8 2 16 2 23c0 54 -46 69 -97 69h-34c-37 0 -77 -5 -114 -30c-35 -23 -57 -59 -71 -94c-7 -19 -11 -37 -11 -53c0 -29 12 -51 41 -56l184 -26c71 -11 118 -57 118 -122c0 -19 -4 -40 -13 -62
c-24 -60 -67 -120 -129 -155c-71 -41 -143 -49 -212 -50l-55 -71h6c75 0 162 -14 162 -94c0 -16 -3 -33 -10 -51c-17 -43 -53 -84 -98 -108c-57 -31 -116 -38 -171 -38h-29c-74 0 -160 15 -162 92l98 36c-1 -4 -1 -9 -1 -13c0 -45 48 -54 90 -54h29c31 0 64 4 96 22
c26 14 45 38 55 63c4 11 7 20 7 30c0 45 -48 55 -90 55h-123z" />
    <glyph glyph-name="ugrave" unicode="&#xf9;" 
d="M296 173c0 -70 52 -98 119 -98h43c48 0 102 15 149 51c50 39 82 91 103 143l181 453h116l-289 -722h-116l43 107c-12 -13 -24 -26 -38 -38c-54 -47 -120 -70 -179 -70h-43c-109 0 -209 36 -209 151c0 37 11 78 27 119l181 453h116l-182 -453c-13 -33 -22 -66 -22 -96z
M541 1102h134l82 -172h-99z" />
    <glyph glyph-name="uacute" unicode="&#xfa;" 
d="M296 173c0 -70 52 -98 119 -98h43c48 0 102 15 149 51c50 39 82 91 103 143l181 453h116l-289 -722h-116l43 107c-12 -13 -24 -26 -38 -38c-54 -47 -120 -70 -179 -70h-43c-109 0 -209 36 -209 151c0 37 11 78 27 119l181 453h116l-182 -453c-13 -33 -22 -66 -22 -96z
M826 1102h134l-255 -172h-99z" />
    <glyph glyph-name="Ncaron" unicode="&#x147;" horiz-adv-x="1081" 
d="M121 0l344 860h67l374 -707l283 707h115l-344 -860h-67l-374 707l-282 -707h-116zM1002 1096h99l-219 -172h-133l-81 172h99l74 -109z" />
    <glyph glyph-name="one" unicode="1" horiz-adv-x="588" 
d="M280 0l277 693l-253 -105l58 143l310 129h67l-344 -860h-115z" />
    <glyph glyph-name="f" unicode="f" horiz-adv-x="510" 
d="M322 646l30 76h126l46 115c13 33 41 65 76 84c44 24 90 30 132 30h12c49 0 102 -7 119 -45l-118 -69c2 6 3 11 3 15c0 17 -16 23 -35 23h-12c-29 0 -53 -16 -62 -38l-46 -115h126l-30 -76h-126l-259 -646h-115l258 646h-125z" />
    <glyph glyph-name="Ugrave" unicode="&#xd9;" horiz-adv-x="1028" 
d="M327 200c0 -99 93 -125 186 -125h62c67 0 140 12 208 55c61 38 104 97 128 157l229 573h116l-230 -573c-33 -82 -95 -162 -180 -213c-100 -60 -205 -75 -302 -75h-62c-135 0 -275 33 -275 176c0 35 9 73 24 112l229 573h115l-229 -573c-12 -30 -19 -60 -19 -87zM648 1096
h134l82 -172h-99z" />
    <glyph glyph-name="macron" unicode="&#xaf;" horiz-adv-x="363" 
d="M256 719l27 67h426l-27 -67h-426z" />
    <glyph glyph-name="dash" horiz-adv-x="545" 
d="M198 323l31 76h406l-30 -76h-407z" />
    <glyph glyph-name="thorn" unicode="&#xfe;" horiz-adv-x="882" 
d="M432 -1c-95 0 -150 55 -150 153v6l-199 -498h-115l480 1200h115l-118 -295c18 23 37 44 59 64c64 60 145 94 217 94h53c126 0 225 -51 225 -184c0 -55 -17 -117 -41 -178c-39 -97 -99 -196 -193 -268c-88 -67 -190 -94 -281 -94h-52zM880 518c0 86 -53 129 -136 129h-53
c-61 0 -131 -25 -187 -74c-69 -60 -110 -137 -140 -212c-23 -52 -38 -109 -38 -157c0 -86 53 -129 136 -129h53c61 0 131 25 187 74c69 60 110 137 140 212c21 54 38 108 38 157z" />
    <glyph glyph-name="space" unicode=" " horiz-adv-x="518" 
 />
    </font>
</defs>
</svg>
