<?xml version="1.0" standalone="no"?>
<!DOCTYPE svg PUBLIC "-//W3C//DTD SVG 1.1//EN" "http://www.w3.org/Graphics/SVG/1.1/DTD/svg11.dtd" >
<!--
Created with mf2outline.
-->
<svg xmlns="http://www.w3.org/2000/svg" xmlns:xlink="http://www.w3.org/1999/xlink" version="1.1">
<metadata>
Created by FontForge 20201107 at Fri Sep 22 07:54:44 2023
 By 
Copyright (c) 2023, Metaflop (http://www.metaflop.com), Simon Egli, Marco Mueller, Alexis Reigel, with Reserved Font Name Bespoke. Dual licensed under the GPL v3 (http://www.gnu.org/copyleft/gpl.html) and the OFL v1.1 (http://scripts.sil.org/OFL_web).
</metadata>
<defs>
<font id="Bespoke-JlGSXURF3v" horiz-adv-x="950" >
  <font-face 
    font-family="Bespoke"
    font-weight="500"
    font-stretch="normal"
    units-per-em="1000"
    panose-1="2 0 5 3 0 0 0 0 0 0"
    ascent="800"
    descent="-200"
    x-height="828"
    cap-height="920"
    bbox="-220 -320 1850 1285"
    underline-thickness="50"
    underline-position="-100"
    unicode-range="U+0020-FB04"
  />
    <missing-glyph />
    <glyph glyph-name="fi" unicode="fi" horiz-adv-x="940" 
d="M84 760v68h132v32c0 37 0 96 6 98s196 2 296 2s290 0 296 -2c5 -2 6 -42 6 -77l-136 -1c0 6 -1 11 -3 11c-3 1 -109 1 -163 1s-160 0 -163 -1s-3 -19 -3 -31v-32h468v-828h-136v760h-332v-760h-136v760h-132z" />
    <glyph glyph-name="guillemotright" unicode="&#x3e;&#x3e;" horiz-adv-x="940" 
d="M470 414l-230 -414h-150l230 414l-230 414h150zM850 414l-230 -414h-150l230 414l-230 414h150z" />
    <glyph glyph-name="guillemotleft" unicode="&#x3c;&#x3c;" horiz-adv-x="940" 
d="M240 414l230 -414h-150l-230 414l230 414h150zM620 414l230 -414h-150l-230 414l230 414h150z" />
    <glyph glyph-name="quotedblright" unicode="&#x2019;&#x2019;" horiz-adv-x="920" 
d="M151 621l146 299h146l-184 -299h-108zM642 920h146l-184 -299h-108z" />
    <glyph glyph-name="exclamdown" unicode="&#x21;&#x2018;" horiz-adv-x="576" 
d="M220 -300v851h136v-851h-136zM288 862c30 0 83 0 85 -2s2 -55 2 -85s0 -82 -2 -84s-55 -2 -85 -2s-83 0 -85 2s-2 54 -2 84s0 83 2 85s55 2 85 2z" />
    <glyph glyph-name="fl" unicode="fl" horiz-adv-x="990" 
d="M84 760v68h132v48c0 31 1 80 5 82s142 2 214 2s211 0 215 -2c3 -1 4 -26 4 -51l-136 -31c0 6 0 16 -2 16h-162c-2 0 -2 -10 -2 -16v-48h162v-68h-162v-760h-136v760h-132zM734 0v950h136v-950h-136z" />
    <glyph glyph-name="questiondown" unicode="&#x3f;&#x2018;" horiz-adv-x="860" 
d="M490 -242h66c72 0 152 1 154 5l138 -4c-1 -36 -2 -62 -5 -64c-7 -5 -231 -5 -353 -5s-346 0 -353 5s-7 166 -7 259s0 254 7 259c6 4 163 5 285 5v333h136v-401h-68c-76 0 -216 0 -220 -4s-4 -124 -4 -192s0 -188 4 -192s144 -4 220 -4zM490 862c30 0 83 0 85 -2
s2 -55 2 -85s0 -82 -2 -84s-55 -2 -85 -2s-83 0 -85 2s-2 54 -2 84s0 83 2 85s55 2 85 2z" />
    <glyph glyph-name="endash" unicode="&#x2d;&#x2d;" horiz-adv-x="940" 
d="M60 380v68h820v-68h-820z" />
    <glyph glyph-name="emdash" unicode="&#x2013;&#x2d;" horiz-adv-x="1640" 
d="M60 380v68h1520v-68h-1520z" />
    <glyph glyph-name="quotedblleft" unicode="&#x2018;&#x2018;" horiz-adv-x="920" 
d="M132 621l184 299h108l-146 -299h-146zM661 920h108l-146 -299h-146z" />
    <glyph glyph-name="ring" unicode="&#x2da;" horiz-adv-x="420" 
d="M211 897h-2c-31 0 -85 0 -87 -1s-2 -44 -2 -68s0 -67 2 -68s58 -1 88 -1s86 0 88 1s2 44 2 68s0 67 -2 68s-56 1 -87 1zM210 943c61 0 173 -1 177 -3c3 -1 3 -32 3 -65v-94c0 -33 0 -64 -3 -65c-4 -2 -116 -3 -177 -3s-173 1 -177 3c-3 1 -3 32 -3 65v94c0 33 0 64 3 65
c4 2 116 3 177 3z" />
    <glyph glyph-name="rcaron" unicode="&#x159;" horiz-adv-x="580" 
d="M120 0v828h73c0 2 1 3 1 3c6 7 175 7 271 7c118 0 331 0 338 -7s7 -211 7 -326h-136c0 90 0 255 -4 260s-132 5 -205 5s-201 0 -205 -5s-4 -170 -4 -260v-505h-136zM507 1263h146l-167 -184h-196l-167 184h146l119 -101z" />
    <glyph glyph-name="Eng" unicode="&#x14a;" horiz-adv-x="1250" 
d="M140 0v920h86l748 -761v761h136v-1041c0 -67 0 -181 -6 -185s-195 -4 -297 -4s-290 0 -296 4c-4 2 -5 42 -6 88l136 2c0 -13 2 -23 3 -24c3 -2 107 -2 163 -2s161 0 164 2s3 76 3 119v172l-698 710v-761h-136z" />
    <glyph glyph-name="Q" unicode="Q" horiz-adv-x="1400" 
d="M700 862c-162 0 -456 0 -465 -8s-9 -254 -9 -394s0 -386 9 -394s303 -8 465 -8c103 0 259 2 361 2l-309 238h205l214 -165c3 85 3 231 3 327c0 140 0 386 -9 394s-303 8 -465 8zM1298 0c-6 -9 -224 -10 -419 -10h-179c-207 0 -586 0 -598 9s-12 296 -12 461s0 452 12 461
s391 9 598 9s586 0 598 -9s12 -296 12 -461c0 -134 -7 -347 -7 -428l41 -32h-46z" />
    <glyph glyph-name="Abreve" unicode="&#x102;" horiz-adv-x="1110" 
d="M20 0l492 920h86l492 -920h-154l-82 154h-673l-82 -154h-79zM837 1142v-42c0 -44 -1 -90 -5 -92c-6 -3 -183 -3 -277 -3s-271 0 -277 3c-4 2 -5 48 -5 92v42h108c0 -28 1 -73 4 -75s112 -2 170 -2s167 0 170 2s4 47 4 75h108zM817 222l-300 560l-299 -560h599z" />
    <glyph glyph-name="i" unicode="i" horiz-adv-x="380" 
d="M122 0v828h136v-828h-136zM190 1217c31 0 86 0 88 -2s2 -57 2 -88s0 -87 -2 -89c-1 -1 -15 -1 -33 -1h-110c-18 0 -32 0 -33 1c-2 2 -2 58 -2 89s0 86 2 88s57 2 88 2z" />
    <glyph glyph-name="quoteright" unicode="&#x2019;" horiz-adv-x="510" 
d="M260 920h147l-185 -299h-109z" />
    <glyph glyph-name="Gbreve" unicode="&#x11e;" horiz-adv-x="1430" 
d="M1232 -0c0 -9 -199 -10 -374 -10h-158c-207 0 -586 0 -598 9s-12 296 -12 461s0 452 12 461s391 9 598 9s586 0 598 -9c7 -5 10 -90 11 -192l-137 -2c-1 70 -3 123 -7 127c-9 8 -303 8 -465 8s-456 0 -465 -8s-9 -254 -9 -394s0 -386 9 -394s303 -8 465 -8
c160 0 456 0 465 6c7 4 8 100 9 196h-474v68h474v52h68v-52h68v-328h-78zM982 1142v-42c0 -44 -1 -90 -5 -92c-6 -3 -183 -3 -277 -3s-271 0 -277 3c-4 2 -5 48 -5 92v42h108c0 -28 1 -73 4 -75s112 -2 170 -2s167 0 170 2s4 47 4 75h108z" />
    <glyph glyph-name="Ohungarumlaut" unicode="&#x150;" horiz-adv-x="1400" 
d="M450 989l155 184h190l-205 -184h-140zM905 1173h190l-205 -184h-140zM700 862c-162 0 -456 0 -465 -8s-9 -254 -9 -394s0 -386 9 -394s303 -8 465 -8s456 0 465 8s9 254 9 394s0 386 -9 394s-303 8 -465 8zM700 930c207 0 586 0 598 -9s12 -296 12 -461s0 -452 -12 -461
s-391 -9 -598 -9s-586 0 -598 9s-12 296 -12 461s0 452 12 461s391 9 598 9z" />
    <glyph glyph-name="racute" unicode="&#x155;" horiz-adv-x="580" 
d="M120 0v828h73c0 2 1 3 1 3c6 7 175 7 271 7c118 0 331 0 338 -7s7 -211 7 -326h-136c0 90 0 255 -4 260s-132 5 -205 5s-201 0 -205 -5s-4 -170 -4 -260v-505h-136zM454 1263h198l-221 -184h-146z" />
    <glyph glyph-name="udieresis" unicode="&#xfc;" 
d="M830 828v-828h-73c0 -2 -1 -4 -1 -4c-6 -6 -185 -6 -286 -6c-123 0 -346 0 -353 6s-7 189 -7 293v539h136v-539c0 -79 0 -221 4 -226s143 -5 220 -5s216 0 220 5s4 147 4 226v539h136zM290 1217c31 0 86 0 88 -2s2 -57 2 -88s0 -87 -2 -89c-1 -1 -15 -1 -33 -1h-110
c-18 0 -32 0 -33 1c-2 2 -2 58 -2 89s0 86 2 88s57 2 88 2zM650 1217c31 0 86 0 88 -2s2 -57 2 -88s0 -87 -2 -89c-1 -1 -15 -1 -33 -1h-110c-18 0 -32 0 -33 1c-2 2 -2 58 -2 89s0 86 2 88s57 2 88 2z" />
    <glyph glyph-name="slash" unicode="/" horiz-adv-x="750" 
d="M40 -46l515 1012h155l-515 -1012h-155z" />
    <glyph glyph-name="asciitilde" unicode="~" horiz-adv-x="980" 
d="M216 290h-136c0 78 0 218 5 223s146 5 225 5c133 0 227 -140 360 -140c34 0 90 1 92 4s2 103 2 156h136c0 -78 0 -218 -5 -223s-146 -5 -225 -5c-133 0 -227 140 -360 140c-34 0 -90 -1 -92 -4s-2 -103 -2 -156z" />
    <glyph glyph-name="section" unicode="&#xa7;" 
d="M111 -197l136 2c1 -24 1 -43 3 -44c4 -3 144 -3 220 -3s216 0 220 3s4 106 4 165s0 161 -4 164s-144 3 -220 3c-121 0 -346 0 -353 4s-7 136 -7 213c0 56 3 140 3 184c-3 48 -3 139 -3 200c0 83 0 226 7 231s232 5 353 5s346 0 353 -5c4 -2 5 -39 6 -86l-137 -3
c-1 13 -1 22 -2 23c-4 3 -144 3 -220 3s-216 0 -220 -3s-4 -106 -4 -165s0 -161 4 -164s144 -3 220 -3c121 0 346 0 353 -4s7 -136 7 -213c0 -56 -3 -140 -3 -184c3 -48 3 -139 3 -200c0 -83 0 -226 -7 -231s-232 -5 -353 -5s-346 0 -353 5c-4 3 -5 51 -6 108zM470 161
c75 0 216 0 220 3s4 93 4 146s0 143 -4 146s-145 3 -220 3s-216 0 -220 -3s-4 -93 -4 -146s0 -143 4 -146s145 -3 220 -3z" />
    <glyph glyph-name="guilsinglright" unicode="&#x203a;" horiz-adv-x="550" 
d="M460 414l-221 -414h-149l221 414l-221 414h149z" />
    <glyph glyph-name="Edieresis" unicode="&#xcb;" horiz-adv-x="930" 
d="M140 0v920h720v-68h-584v-524h516v-68h-516v-192h584v-68h-720zM320 1127c31 0 86 0 88 -2s2 -57 2 -88s0 -86 -2 -88s-57 -2 -88 -2s-86 0 -88 2s-2 57 -2 88s0 86 2 88s57 2 88 2zM680 1127c31 0 86 0 88 -2s2 -57 2 -88s0 -86 -2 -88s-57 -2 -88 -2s-86 0 -88 2
s-2 57 -2 88s0 86 2 88s57 2 88 2z" />
    <glyph glyph-name="eng" unicode="&#x14b;" 
d="M120 0v828h73c0 2 2 4 2 4c7 6 215 6 330 6c108 0 303 0 309 -6s6 -190 6 -293v-660c0 -66 0 -181 -5 -185s-163 -4 -249 -4s-244 0 -249 4c-3 2 -4 42 -5 88l137 1c0 -13 0 -22 1 -23c2 -2 75 -2 116 -2s114 0 116 2s2 77 2 119v660c0 78 0 221 -4 226s-112 5 -175 5
c-92 0 -259 0 -264 -5s-5 -146 -5 -226v-539h-136z" />
    <glyph glyph-name="r" unicode="r" horiz-adv-x="580" 
d="M120 0v828h73c0 2 1 3 1 3c6 7 175 7 271 7c118 0 331 0 338 -7s7 -211 7 -326h-136c0 90 0 255 -4 260s-132 5 -205 5s-201 0 -205 -5s-4 -170 -4 -260v-505h-136z" />
    <glyph glyph-name="u" unicode="u" 
d="M830 828v-828h-73c0 -2 -1 -4 -1 -4c-6 -6 -185 -6 -286 -6c-123 0 -346 0 -353 6s-7 189 -7 293v539h136v-539c0 -79 0 -221 4 -226s143 -5 220 -5s216 0 220 5s4 147 4 226v539h136z" />
    <glyph glyph-name="Odieresis" unicode="&#xd6;" horiz-adv-x="1400" 
d="M520 1127c31 0 86 0 88 -2s2 -57 2 -88s0 -86 -2 -88s-57 -2 -88 -2s-86 0 -88 2s-2 57 -2 88s0 86 2 88s57 2 88 2zM880 1127c31 0 86 0 88 -2s2 -57 2 -88s0 -86 -2 -88s-57 -2 -88 -2s-86 0 -88 2s-2 57 -2 88s0 86 2 88s57 2 88 2zM700 862c-162 0 -456 0 -465 -8
s-9 -254 -9 -394s0 -386 9 -394s303 -8 465 -8s456 0 465 8s9 254 9 394s0 386 -9 394s-303 8 -465 8zM700 930c207 0 586 0 598 -9s12 -296 12 -461s0 -452 -12 -461s-391 -9 -598 -9s-586 0 -598 9s-12 296 -12 461s0 452 12 461s391 9 598 9z" />
    <glyph glyph-name="Zdotaccent" unicode="&#x17b;" horiz-adv-x="1020" 
d="M50 852v68h920v-86l-752 -766h752v-68h-920v86l752 766h-752zM510 1127c31 0 86 0 88 -2s2 -57 2 -88s0 -86 -2 -88s-57 -2 -88 -2s-86 0 -88 2s-2 57 -2 88s0 86 2 88s57 2 88 2z" />
    <glyph glyph-name="Igrave" unicode="&#xcc;" horiz-adv-x="456" 
d="M160 0v920h136v-920h-136zM-36 1173h198l169 -184h-146z" />
    <glyph glyph-name="P" unicode="P" horiz-adv-x="1020" 
d="M140 0v920h383c149 0 419 0 428 -7s9 -225 9 -349s0 -341 -9 -348s-279 -7 -428 -7h-247v-209h-136zM276 852v-575h247c103 0 289 0 295 6s6 182 6 281s0 276 -6 282s-192 6 -295 6h-247z" />
    <glyph glyph-name="tcaron" unicode="&#x165;" horiz-adv-x="540" 
d="M44 760v68h158v122h136v-122h158v-68h-158v-760h-136v760h-158zM690 950h147l-185 -299h-109z" />
    <glyph glyph-name="Scedilla" unicode="&#x15e;" horiz-adv-x="1040" 
d="M513 -266h4c54 0 153 0 156 1s4 46 4 73s-1 72 -4 73s-104 2 -158 2h-101l38 107c-149 0 -355 1 -363 5c-5 3 -7 50 -8 107l136 2c1 -24 3 -41 5 -42c6 -4 193 -4 293 -4s287 0 293 4s6 115 6 180s0 176 -6 180s-193 4 -293 4c-146 0 -417 0 -426 5s-9 157 -9 247
s0 242 9 247s280 5 426 5s417 0 426 -5c5 -3 7 -46 8 -100l-137 -2c-1 20 -2 34 -4 35c-6 4 -193 4 -293 4s-287 0 -293 -4s-6 -115 -6 -180s0 -176 6 -180s193 -4 293 -4c146 0 417 0 426 -5s9 -157 9 -247s0 -242 -9 -247c-8 -5 -239 -5 -389 -5l-18 -53
c93 0 241 0 246 -2c5 -3 5 -80 5 -127s0 -123 -5 -126c-3 -2 -65 -2 -133 -2h-264c-68 0 -130 0 -133 2c-4 2 -5 38 -5 76l109 1c0 -13 2 -23 3 -24c3 -1 102 -1 156 -1z" />
    <glyph glyph-name="b" unicode="b" horiz-adv-x="1030" 
d="M540 -10h-61c-119 0 -272 1 -275 10h-74v950h136v-115c73 3 194 3 274 3c141 0 394 0 402 -8s8 -270 8 -416s0 -408 -8 -416s-261 -8 -402 -8zM540 770c-96 0 -264 0 -269 -7s-5 -228 -5 -349s0 -342 5 -349s173 -7 269 -7s264 0 269 7s5 228 5 349s0 342 -5 349
s-173 7 -269 7z" />
    <glyph glyph-name="Yacute" unicode="&#xdd;" horiz-adv-x="1040" 
d="M10 920h161l387 -608l388 608h84l-442 -693v-227h-136v227zM586 1173h198l-221 -184h-146z" />
    <glyph glyph-name="ecircumflex" unicode="&#xea;" horiz-adv-x="990" 
d="M919 145c-1 -79 -2 -144 -7 -148c-8 -7 -269 -7 -412 -7c-145 0 -404 0 -412 8s-8 270 -8 416s0 408 8 416s267 8 412 8s404 0 412 -8s8 -270 8 -416v-34h-704c0 -124 1 -309 6 -315c6 -7 179 -7 278 -7c98 0 272 0 278 6c2 2 4 37 5 83zM784 448c0 124 -1 309 -6 315
c-6 7 -179 7 -278 7s-272 0 -278 -7c-5 -6 -6 -191 -6 -315h568zM500 1180l-119 -101h-146l167 184h196l167 -184h-146z" />
    <glyph glyph-name="ocircumflex" unicode="&#xf4;" horiz-adv-x="1000" 
d="M500 770c-99 0 -272 0 -278 -7s-6 -228 -6 -349s0 -342 6 -349s179 -7 278 -7s272 0 278 7s6 228 6 349s0 342 -6 349s-179 7 -278 7zM500 838c145 0 404 0 412 -8s8 -270 8 -416s0 -408 -8 -416s-267 -8 -412 -8s-404 0 -412 8s-8 270 -8 416s0 408 8 416s267 8 412 8z
M500 1180l-119 -101h-146l167 184h196l167 -184h-146z" />
    <glyph glyph-name="eogonek" unicode="&#x119;" horiz-adv-x="990" 
d="M586 -320h-264c-68 0 -130 0 -133 2c-5 3 -5 79 -5 126c0 108 149 88 226 143l52 39c-148 0 -366 0 -374 8s-8 270 -8 416s0 408 8 416s267 8 412 8s404 0 412 -8s8 -270 8 -416v-34h-704c0 -124 1 -309 6 -315c6 -7 179 -7 278 -7c98 0 272 0 278 6c2 2 4 37 5 83
l136 -2c-1 -79 -2 -144 -7 -148c-8 -7 -238 -7 -384 -7l-124 -94c-42 -30 -112 -34 -112 -88c0 -27 1 -72 4 -73s102 -1 156 -1h4c54 0 153 0 156 1s4 46 4 73l107 -94c-1 -18 -2 -31 -4 -32c-3 -2 -65 -2 -133 -2zM784 448c0 124 -1 309 -6 315c-6 7 -179 7 -278 7
s-272 0 -278 -7c-5 -6 -6 -191 -6 -315h568z" />
    <glyph glyph-name="ffi" unicode="&#xfb03;" horiz-adv-x="1390" 
d="M84 760v68h131v42c0 33 0 86 4 88s146 2 220 2s216 0 220 -2c3 -1 4 -32 4 -61l-136 -27c0 9 0 22 -2 22h-172c-2 0 -2 -13 -2 -22v-42h332v32c0 37 0 96 6 98s191 2 288 2s281 0 287 -2c5 -2 6 -42 6 -77l-136 -1c0 6 -1 11 -3 11c-3 1 -102 1 -154 1s-152 0 -155 -1
s-3 -19 -3 -31v-32h451v-828h-136v760h-315v-760h-136v760h-332v-760h-136v760h-131z" />
    <glyph glyph-name="plus" unicode="+" horiz-adv-x="980" 
d="M422 828h136v-380h342v-68h-342v-380h-136v380h-342v68h342v380z" />
    <glyph glyph-name="Eogonek" unicode="&#x118;" horiz-adv-x="930" 
d="M900 -320h-264c-68 0 -130 0 -133 2c-5 3 -5 79 -5 126c0 108 149 88 226 143l66 49h-650v920h720v-68h-584v-524h516v-68h-516v-192h584v-15l2 1l-2 -15v-39h-4l-138 -104c-42 -30 -112 -34 -112 -88c0 -27 1 -72 4 -73s102 -1 156 -1h4c54 0 153 0 156 1s4 46 4 73
l107 -94c-1 -18 -2 -31 -4 -32c-3 -2 -65 -2 -133 -2z" />
    <glyph glyph-name="R" unicode="R" horiz-adv-x="1010" 
d="M140 0v920h383c148 0 419 0 428 -7s9 -218 9 -338s0 -330 -9 -337c-4 -3 -60 -5 -134 -6l183 -232h-181l-170 231h-373v-231h-136zM276 852v-553h336c96 0 202 1 206 5c6 6 6 175 6 271s0 265 -6 271s-192 6 -295 6h-247z" />
    <glyph glyph-name="ecaron" unicode="&#x11b;" horiz-adv-x="990" 
d="M919 145c-1 -79 -2 -144 -7 -148c-8 -7 -269 -7 -412 -7c-145 0 -404 0 -412 8s-8 270 -8 416s0 408 8 416s267 8 412 8s404 0 412 -8s8 -270 8 -416v-34h-704c0 -124 1 -309 6 -315c6 -7 179 -7 278 -7c98 0 272 0 278 6c2 2 4 37 5 83zM619 1263h146l-167 -184h-196
l-167 184h146l119 -101zM784 448c0 124 -1 309 -6 315c-6 7 -179 7 -278 7s-272 0 -278 -7c-5 -6 -6 -191 -6 -315h568z" />
    <glyph glyph-name="V" unicode="V" horiz-adv-x="1052" 
d="M16 920h153l392 -774l393 774h82l-467 -920h-86z" />
    <glyph glyph-name="AE" unicode="&#xc6;" horiz-adv-x="1610" 
d="M20 0l704 920h816v-68h-612v-524h569v-68h-569v-192h612v-68h-748v187h-538v7l-148 -194h-86zM301 255h491v642z" />
    <glyph glyph-name="bracketright" unicode="]" horiz-adv-x="560" 
d="M60 966h320v-1266h-320v68h184v1130h-184v68z" />
    <glyph glyph-name="H" unicode="H" horiz-adv-x="1200" 
d="M140 0v920h136v-592h648v592h136v-920h-136v260h-648v-260h-136z" />
    <glyph glyph-name="exclam" unicode="!" horiz-adv-x="576" 
d="M220 311v609h136v-609h-136zM288 173c30 0 83 0 85 -2s2 -54 2 -84s0 -83 -2 -85s-55 -2 -85 -2s-83 0 -85 2s-2 55 -2 85s0 82 2 84s55 2 85 2z" />
    <glyph glyph-name="Aogonek" unicode="&#x104;" horiz-adv-x="1110" 
d="M1124 -320h-264c-68 0 -130 0 -133 2c-5 3 -5 79 -5 126c0 108 149 88 226 143l66 49h-78l-82 154h-673l-82 -154h-79l492 920h86l470 -879l18 13l-5 -38l9 -16h-10l-138 -104c-42 -30 -112 -34 -112 -88c0 -27 1 -72 4 -73s102 -1 156 -1h4c54 0 153 0 156 1s4 46 4 73
l107 -94c-1 -18 -2 -31 -4 -32c-3 -2 -65 -2 -133 -2zM817 222l-300 560l-299 -560h599z" />
    <glyph glyph-name="L" unicode="L" horiz-adv-x="920" 
d="M140 0v920h136v-852h584v-68h-720z" />
    <glyph glyph-name="comma" unicode="," horiz-adv-x="470" 
d="M186 166h152l-204 -414h-112z" />
    <glyph glyph-name="ydieresis" unicode="&#xff;" horiz-adv-x="840" 
d="M10 828h149l296 -651l296 651h79l-370 -814l1 -14h-7l-136 -300h-80l142 313zM240 1217c31 0 86 0 88 -2s2 -57 2 -88s0 -87 -2 -89c-1 -1 -15 -1 -33 -1h-110c-18 0 -32 0 -33 1c-2 2 -2 58 -2 89s0 86 2 88s57 2 88 2zM600 1217c31 0 86 0 88 -2s2 -57 2 -88
s0 -87 -2 -89c-1 -1 -15 -1 -33 -1h-110c-18 0 -32 0 -33 1c-2 2 -2 58 -2 89s0 86 2 88s57 2 88 2z" />
    <glyph glyph-name="O" unicode="O" horiz-adv-x="1400" 
d="M700 862c-162 0 -456 0 -465 -8s-9 -254 -9 -394s0 -386 9 -394s303 -8 465 -8s456 0 465 8s9 254 9 394s0 386 -9 394s-303 8 -465 8zM700 930c207 0 586 0 598 -9s12 -296 12 -461s0 -452 -12 -461s-391 -9 -598 -9s-586 0 -598 9s-12 296 -12 461s0 452 12 461
s391 9 598 9z" />
    <glyph glyph-name="bar" unicode="|" horiz-adv-x="400" 
d="M132 -46v1012h136v-1012h-136z" />
    <glyph glyph-name="underscore" unicode="_" horiz-adv-x="940" 
d="M60 -143v68h820v-68h-820z" />
    <glyph glyph-name="circumflex" unicode="&#x2c6;" horiz-adv-x="420" 
d="M210 837l-119 -101h-146l167 184h196l167 -184h-146z" />
    <glyph glyph-name="Ecircumflex" unicode="&#xca;" horiz-adv-x="930" 
d="M140 0v920h720v-68h-584v-524h516v-68h-516v-192h584v-68h-720zM500 1090l-119 -101h-146l167 184h196l167 -184h-146z" />
    <glyph glyph-name="asterisk" unicode="*" horiz-adv-x="930" 
d="M397 920h136v-166l217 51v-143l-156 -36l156 -166h-182l-103 110l-103 -110h-182l156 166l-156 36v143l217 -51v166z" />
    <glyph glyph-name="dcaron" unicode="&#x10f;" horiz-adv-x="1030" 
d="M1120 950h147l-185 -299h-109zM490 770c-96 0 -264 0 -269 -7s-5 -228 -5 -349s0 -342 5 -349s173 -7 269 -7s264 0 269 7s5 228 5 349s0 342 -5 349s-173 7 -269 7zM826 0c-3 -9 -156 -10 -275 -10h-61c-141 0 -394 0 -402 8s-8 270 -8 416s0 408 8 416s261 8 402 8
c80 0 201 -3 274 -3v115h136v-950h-74z" />
    <glyph glyph-name="Ecaron" unicode="&#x11a;" horiz-adv-x="930" 
d="M140 0v920h720v-68h-584v-524h516v-68h-516v-192h584v-68h-720zM619 1173h146l-167 -184h-196l-167 184h146l119 -101z" />
    <glyph glyph-name="Udieresis" unicode="&#xdc;" horiz-adv-x="1188" 
d="M1054 920v-629c0 -107 0 -289 -9 -295s-296 -6 -451 -6s-442 0 -451 6s-9 188 -9 295v629h136v-629c0 -82 0 -223 6 -228s209 -5 318 -5s312 0 318 5s6 146 6 228v629h136zM414 1127c31 0 86 0 88 -2s2 -57 2 -88s0 -86 -2 -88s-57 -2 -88 -2s-86 0 -88 2s-2 57 -2 88
s0 86 2 88s57 2 88 2zM774 1127c31 0 86 0 88 -2s2 -57 2 -88s0 -86 -2 -88s-57 -2 -88 -2s-86 0 -88 2s-2 57 -2 88s0 86 2 88s57 2 88 2z" />
    <glyph glyph-name="Zcaron" unicode="&#x17d;" horiz-adv-x="1020" 
d="M50 852v68h920v-86l-752 -766h752v-68h-920v86l752 766h-752zM629 1173h146l-167 -184h-196l-167 184h146l119 -101z" />
    <glyph glyph-name="acute" unicode="&#xb4;" horiz-adv-x="400" 
d="M196 920h198l-221 -184h-146z" />
    <glyph glyph-name="uni1E9E" unicode="&#x1e9e;" horiz-adv-x="1940" 
d="M81 102l136 2c1 -24 2 -41 4 -42c5 -4 175 -4 266 -4s261 0 266 4s5 115 5 180s0 176 -5 180s-175 4 -266 4c-137 0 -391 0 -399 5s-8 157 -8 247s0 242 8 247s262 5 399 5s391 0 399 -5c4 -3 6 -46 7 -100l-136 -2c-1 20 -2 34 -4 35c-5 4 -175 4 -266 4s-261 0 -266 -4
s-5 -115 -5 -180s0 -176 5 -180s175 -4 266 -4c137 0 391 0 399 -5s8 -157 8 -247s0 -242 -8 -247s-262 -5 -399 -5s-391 0 -399 5c-4 3 -6 50 -7 107zM1036 102l137 2c1 -24 2 -41 4 -42c5 -4 175 -4 266 -4s261 0 266 4s5 115 5 180s0 176 -5 180s-175 4 -266 4
c-137 0 -391 0 -399 5s-8 157 -8 247s0 242 8 247s262 5 399 5s391 0 399 -5c4 -3 6 -46 7 -100l-137 -2c-1 20 -1 34 -3 35c-5 4 -175 4 -266 4s-261 0 -266 -4s-5 -115 -5 -180s0 -176 5 -180s175 -4 266 -4c137 0 391 0 399 -5s8 -157 8 -247s0 -242 -8 -247
s-262 -5 -399 -5s-391 0 -399 5c-4 3 -7 50 -8 107z" />
    <glyph glyph-name="Uhungarumlaut" unicode="&#x170;" horiz-adv-x="1188" 
d="M1054 920v-629c0 -107 0 -289 -9 -295s-296 -6 -451 -6s-442 0 -451 6s-9 188 -9 295v629h136v-629c0 -82 0 -223 6 -228s209 -5 318 -5s312 0 318 5s6 146 6 228v629h136zM344 989l155 184h190l-205 -184h-140zM799 1173h190l-205 -184h-140z" />
    <glyph glyph-name="Atilde" unicode="&#xc3;" horiz-adv-x="1110" 
d="M20 0l492 920h86l492 -920h-154l-82 154h-673l-82 -154h-79zM381 994h-108v52c0 37 0 72 3 74c2 2 47 2 96 2h93c64 0 116 -54 180 -54c28 0 80 0 82 1s2 43 2 67h108v-52c0 -37 0 -72 -3 -74c-4 -3 -124 -3 -189 -3c-64 0 -116 55 -180 55c-28 0 -80 0 -82 -1
s-2 -43 -2 -67zM817 222l-300 560l-299 -560h599z" />
    <glyph glyph-name="Dcaron" unicode="&#x10e;" horiz-adv-x="1260" 
d="M140 0v920h398c210 0 598 0 610 -9s12 -290 12 -451s0 -442 -12 -451s-400 -9 -610 -9h-398zM659 1173h146l-167 -184h-196l-167 184h146l119 -101zM276 68h262c165 0 466 0 476 8s10 247 10 384s0 376 -10 384s-311 8 -476 8h-262v-784z" />
    <glyph glyph-name="equal" unicode="=" horiz-adv-x="980" 
d="M80 546v68h820v-68h-820zM80 214v68h820v-68h-820z" />
    <glyph glyph-name="C" unicode="C" horiz-adv-x="1350" 
d="M1309 225c-1 -117 -4 -220 -11 -226c-12 -9 -391 -9 -598 -9s-586 0 -598 9s-12 296 -12 461s0 452 12 461s391 9 598 9s586 0 598 -9c7 -6 10 -109 11 -226l-136 -1c-1 86 -3 156 -8 160c-9 8 -303 8 -465 8s-456 0 -465 -8s-9 -254 -9 -394s0 -386 9 -394
s303 -8 465 -8s456 0 465 8c5 4 7 74 8 160z" />
    <glyph glyph-name="Eth" unicode="&#xd0;" horiz-adv-x="1340" 
d="M618 920c210 0 598 0 610 -9s12 -290 12 -451s0 -442 -12 -451s-400 -9 -610 -9h-398v426h-150v68h150v426h398zM356 68h262c165 0 466 0 476 8s10 247 10 384s0 376 -10 384s-311 8 -476 8h-262v-358h374v-68h-374v-358z" />
    <glyph glyph-name="edieresis" unicode="&#xeb;" horiz-adv-x="990" 
d="M919 145c-1 -79 -2 -144 -7 -148c-8 -7 -269 -7 -412 -7c-145 0 -404 0 -412 8s-8 270 -8 416s0 408 8 416s267 8 412 8s404 0 412 -8s8 -270 8 -416v-34h-704c0 -124 1 -309 6 -315c6 -7 179 -7 278 -7c98 0 272 0 278 6c2 2 4 37 5 83zM320 1217c31 0 86 0 88 -2
s2 -57 2 -88s0 -87 -2 -89c-1 -1 -15 -1 -33 -1h-110c-18 0 -32 0 -33 1c-2 2 -2 58 -2 89s0 86 2 88s57 2 88 2zM680 1217c31 0 86 0 88 -2s2 -57 2 -88s0 -87 -2 -89c-1 -1 -15 -1 -33 -1h-110c-18 0 -32 0 -33 1c-2 2 -2 58 -2 89s0 86 2 88s57 2 88 2zM784 448
c0 124 -1 309 -6 315c-6 7 -179 7 -278 7s-272 0 -278 -7c-5 -6 -6 -191 -6 -315h568z" />
    <glyph glyph-name="ccaron" unicode="&#x10d;" horiz-adv-x="954" 
d="M919 206c-1 -107 -2 -203 -7 -208c-8 -8 -267 -8 -412 -8s-404 0 -412 8s-8 270 -8 416s0 408 8 416s267 8 412 8s404 0 412 -8c5 -5 6 -101 7 -208l-136 -1c-1 76 -2 138 -5 142c-6 7 -179 7 -278 7s-272 0 -278 -7s-6 -228 -6 -349s0 -342 6 -349s179 -7 278 -7
s272 0 278 7c3 4 4 66 5 142zM619 1263h146l-167 -184h-196l-167 184h146l119 -101z" />
    <glyph glyph-name="cacute" unicode="&#x107;" horiz-adv-x="954" 
d="M919 206c-1 -107 -2 -203 -7 -208c-8 -8 -267 -8 -412 -8s-404 0 -412 8s-8 270 -8 416s0 408 8 416s267 8 412 8s404 0 412 -8c5 -5 6 -101 7 -208l-136 -1c-1 76 -2 138 -5 142c-6 7 -179 7 -278 7s-272 0 -278 -7s-6 -228 -6 -349s0 -342 6 -349s179 -7 278 -7
s272 0 278 7c3 4 4 66 5 142zM566 1263h198l-221 -184h-146z" />
    <glyph glyph-name="odieresis" unicode="&#xf6;" horiz-adv-x="1000" 
d="M320 1217c31 0 86 0 88 -2s2 -57 2 -88s0 -87 -2 -89c-1 -1 -15 -1 -33 -1h-110c-18 0 -32 0 -33 1c-2 2 -2 58 -2 89s0 86 2 88s57 2 88 2zM680 1217c31 0 86 0 88 -2s2 -57 2 -88s0 -87 -2 -89c-1 -1 -15 -1 -33 -1h-110c-18 0 -32 0 -33 1c-2 2 -2 58 -2 89s0 86 2 88
s57 2 88 2zM500 770c-99 0 -272 0 -278 -7s-6 -228 -6 -349s0 -342 6 -349s179 -7 278 -7s272 0 278 7s6 228 6 349s0 342 -6 349s-179 7 -278 7zM500 838c145 0 404 0 412 -8s8 -270 8 -416s0 -408 -8 -416s-267 -8 -412 -8s-404 0 -412 8s-8 270 -8 416s0 408 8 416
s267 8 412 8z" />
    <glyph glyph-name="four" unicode="4" horiz-adv-x="990" 
d="M753 242v-242h-136v242h-523v86l573 592h86v-610h143v-68h-143zM617 310v389l-377 -389h377z" />
    <glyph glyph-name="adieresis" unicode="&#xe4;" horiz-adv-x="940" 
d="M81 712c1 65 2 116 6 119c7 7 237 7 363 7s356 0 363 -7s7 -209 7 -324v-507h-73c0 -3 0 -5 -1 -5c-6 -5 -193 -5 -296 -5c-125 0 -356 0 -363 5s-7 162 -7 253s0 249 7 254s238 5 363 5c67 0 169 -1 234 -1v1c0 90 0 253 -5 258s-148 5 -229 5s-224 0 -229 -5
c-2 -2 -3 -24 -4 -55zM270 1217c31 0 86 0 88 -2s2 -57 2 -88s0 -87 -2 -89c-1 -1 -15 -1 -33 -1h-110c-18 0 -32 0 -33 1c-2 2 -2 58 -2 89s0 86 2 88s57 2 88 2zM630 1217c31 0 86 0 88 -2s2 -57 2 -88s0 -87 -2 -89c-1 -1 -15 -1 -33 -1h-110c-18 0 -32 0 -33 1
c-2 2 -2 58 -2 89s0 86 2 88s57 2 88 2zM450 439c-80 0 -224 0 -229 -4s-5 -121 -5 -187s0 -182 5 -186s149 -4 229 -4s224 0 229 4s5 120 5 186s0 183 -5 187s-149 4 -229 4z" />
    <glyph glyph-name="Ydieresis" unicode="&#x178;" horiz-adv-x="1040" 
d="M10 920h161l387 -608l388 608h84l-442 -693v-227h-136v227zM340 1127c31 0 86 0 88 -2s2 -57 2 -88s0 -86 -2 -88s-57 -2 -88 -2s-86 0 -88 2s-2 57 -2 88s0 86 2 88s57 2 88 2zM700 1127c31 0 86 0 88 -2s2 -57 2 -88s0 -86 -2 -88s-57 -2 -88 -2s-86 0 -88 2
s-2 57 -2 88s0 86 2 88s57 2 88 2z" />
    <glyph glyph-name="Thorn" unicode="&#xde;" horiz-adv-x="1040" 
d="M140 0v920h136v-150h247c148 0 419 0 428 -6s9 -198 9 -308s0 -301 -9 -307s-280 -6 -428 -6h-247v-143h-136zM276 702v-491h247c102 0 289 0 295 5s6 154 6 240s0 236 -6 241s-193 5 -295 5h-247z" />
    <glyph glyph-name="cedilla" unicode="&#xb8;" horiz-adv-x="400" 
d="M198 -266h4c54 0 153 0 156 1s4 46 4 73s-1 72 -4 73s-104 2 -158 2h-101l51 144h100l-31 -90c93 0 241 0 246 -2c5 -3 5 -80 5 -127s0 -123 -5 -126c-3 -2 -65 -2 -133 -2h-264c-68 0 -130 0 -133 2c-4 2 -5 38 -5 76l109 1c0 -13 2 -23 3 -24c3 -1 102 -1 156 -1z" />
    <glyph glyph-name="p" unicode="p" horiz-adv-x="1020" 
d="M194 828c3 9 156 10 275 10h61c141 0 394 0 402 -8s8 -270 8 -416s0 -408 -8 -416s-261 -8 -402 -8c-80 0 -201 3 -274 3v-293h-136v1128h74zM530 770c-96 0 -264 0 -269 -7s-5 -228 -5 -349s0 -342 5 -349s173 -7 269 -7s264 0 269 7s5 228 5 349s0 342 -5 349
s-173 7 -269 7z" />
    <glyph glyph-name="semicolon" unicode=";" horiz-adv-x="480" 
d="M176 166h152l-204 -414h-112zM252 828c30 0 83 0 85 -2s2 -55 2 -85s0 -82 -2 -84s-55 -2 -85 -2s-83 0 -85 2s-2 54 -2 84s0 83 2 85s55 2 85 2z" />
    <glyph glyph-name="Idieresis" unicode="&#xcf;" horiz-adv-x="456" 
d="M160 0v920h136v-920h-136zM48 1127c31 0 86 0 88 -2s2 -57 2 -88s0 -86 -2 -88s-57 -2 -88 -2s-86 0 -88 2s-2 57 -2 88s0 86 2 88s57 2 88 2zM408 1127c31 0 86 0 88 -2s2 -57 2 -88s0 -86 -2 -88s-57 -2 -88 -2s-86 0 -88 2s-2 57 -2 88s0 86 2 88s57 2 88 2z" />
    <glyph glyph-name="U" unicode="U" horiz-adv-x="1188" 
d="M1054 920v-629c0 -107 0 -289 -9 -295s-296 -6 -451 -6s-442 0 -451 6s-9 188 -9 295v629h136v-629c0 -82 0 -223 6 -228s209 -5 318 -5s312 0 318 5s6 146 6 228v629h136z" />
    <glyph glyph-name="Agrave" unicode="&#xc0;" horiz-adv-x="1110" 
d="M20 0l492 920h86l492 -920h-154l-82 154h-673l-82 -154h-79zM291 1173h198l169 -184h-146zM817 222l-300 560l-299 -560h599z" />
    <glyph glyph-name="dollar" unicode="$" horiz-adv-x="1040" 
d="M81 102l136 2c1 -24 3 -41 5 -42c6 -4 193 -4 293 -4s287 0 293 4s6 115 6 180s0 176 -6 180s-193 4 -293 4c-146 0 -417 0 -426 5s-9 157 -9 247s0 242 9 247c7 4 209 5 358 5v174h136v-174c149 0 351 -1 358 -5c5 -3 7 -46 8 -100l-137 -2c-1 20 -2 34 -4 35
c-6 4 -193 4 -293 4s-287 0 -293 -4s-6 -115 -6 -180s0 -176 6 -180s193 -4 293 -4c146 0 417 0 426 -5s9 -157 9 -247s0 -242 -9 -247c-7 -4 -209 -5 -358 -5v-174h-136v174c-149 0 -351 1 -358 5c-5 3 -7 50 -8 107z" />
    <glyph glyph-name="ncaron" unicode="&#x148;" 
d="M120 0v828h73c0 2 2 4 2 4c7 6 215 6 330 6c108 0 303 0 309 -6s6 -190 6 -293v-539h-136v539c0 78 0 221 -4 226s-112 5 -175 5c-92 0 -259 0 -264 -5s-5 -146 -5 -226v-539h-136zM599 1263h146l-167 -184h-196l-167 184h146l119 -101z" />
    <glyph glyph-name="Ograve" unicode="&#xd2;" horiz-adv-x="1400" 
d="M436 1173h198l169 -184h-146zM700 862c-162 0 -456 0 -465 -8s-9 -254 -9 -394s0 -386 9 -394s303 -8 465 -8s456 0 465 8s9 254 9 394s0 386 -9 394s-303 8 -465 8zM700 930c207 0 586 0 598 -9s12 -296 12 -461s0 -452 -12 -461s-391 -9 -598 -9s-586 0 -598 9
s-12 296 -12 461s0 452 12 461s391 9 598 9z" />
    <glyph glyph-name="Icircumflex" unicode="&#xce;" horiz-adv-x="456" 
d="M160 0v920h136v-920h-136zM228 1090l-119 -101h-146l167 184h196l167 -184h-146z" />
    <glyph glyph-name="e" unicode="e" horiz-adv-x="990" 
d="M919 145c-1 -79 -2 -144 -7 -148c-8 -7 -269 -7 -412 -7c-145 0 -404 0 -412 8s-8 270 -8 416s0 408 8 416s267 8 412 8s404 0 412 -8s8 -270 8 -416v-34h-704c0 -124 1 -309 6 -315c6 -7 179 -7 278 -7c98 0 272 0 278 6c2 2 4 37 5 83zM784 448c0 124 -1 309 -6 315
c-6 7 -179 7 -278 7s-272 0 -278 -7c-5 -6 -6 -191 -6 -315h568z" />
    <glyph glyph-name="breve" unicode="&#x2d8;" horiz-adv-x="420" 
d="M492 889v-42c0 -44 -1 -90 -5 -92c-6 -3 -183 -3 -277 -3s-271 0 -277 3c-4 2 -5 48 -5 92v42h108c0 -28 1 -73 4 -75s112 -2 170 -2s167 0 170 2s4 47 4 75h108z" />
    <glyph glyph-name="ampersand" unicode="&#x26;" horiz-adv-x="1240" 
d="M964 798l-137 -2c-1 34 -1 60 -4 62c-5 4 -171 4 -261 4s-256 0 -261 -4s-5 -115 -5 -180s0 -176 5 -180s171 -4 261 -4h604v-68h-202v-426h-402c-135 0 -386 0 -394 5s-8 154 -8 242c0 65 3 164 3 213c-3 50 -3 151 -3 218c0 90 0 242 8 247s259 5 394 5s386 0 394 -5
c5 -3 7 -61 8 -127zM828 426h-266c-90 0 -256 0 -261 -4s-5 -112 -5 -175s0 -171 5 -175s171 -4 261 -4h266v358z" />
    <glyph glyph-name="d" unicode="d" horiz-adv-x="1030" 
d="M490 770c-96 0 -264 0 -269 -7s-5 -228 -5 -349s0 -342 5 -349s173 -7 269 -7s264 0 269 7s5 228 5 349s0 342 -5 349s-173 7 -269 7zM826 0c-3 -9 -156 -10 -275 -10h-61c-141 0 -394 0 -402 8s-8 270 -8 416s0 408 8 416s261 8 402 8c80 0 201 -3 274 -3v115h136v-950
h-74z" />
    <glyph glyph-name="dotlessi" unicode="&#x131;" horiz-adv-x="380" 
d="M122 0v828h136v-828h-136z" />
    <glyph glyph-name="Oslash" unicode="&#xd8;" horiz-adv-x="1400" 
d="M700 862c-162 0 -456 0 -465 -8s-9 -254 -9 -394c0 -91 3 -227 3 -313l865 712c-99 3 -280 3 -394 3zM700 -10h-179c-195 0 -413 1 -419 10h-52l46 38c-6 85 -6 292 -6 422c0 165 0 452 12 461s391 9 598 9h179c195 0 413 -1 419 -10h52l-46 -38c6 -85 6 -292 6 -422
c0 -165 0 -452 -12 -461s-391 -9 -598 -9zM306 61c99 -3 280 -3 394 -3c162 0 456 0 465 8s9 254 9 394c0 91 -3 227 -3 313z" />
    <glyph glyph-name="Acircumflex" unicode="&#xc2;" horiz-adv-x="1110" 
d="M20 0l492 920h86l492 -920h-154l-82 154h-673l-82 -154h-79zM817 222l-300 560l-299 -560h599zM555 1090l-119 -101h-146l167 184h196l167 -184h-146z" />
    <glyph glyph-name="w" unicode="w" horiz-adv-x="1290" 
d="M10 828h150l319 -678l128 272l-191 406h150l116 -246l115 246h77l-154 -328l165 -350l318 678h77l-389 -828h-86l-160 341l-160 -341h-86z" />
    <glyph glyph-name="braceright" unicode="}" horiz-adv-x="610" 
d="M358 -290l-135 47c19 38 19 143 19 216v184c0 53 1 130 1 184c-1 54 -1 131 -1 184v184c0 73 0 178 -19 216l135 47c20 -56 20 -176 20 -263v-184c0 -40 0 -112 3 -114s91 -2 139 -2v-136c-48 0 -136 0 -139 -2s-3 -74 -3 -114v-184c0 -87 0 -207 -20 -263z" />
    <glyph glyph-name="nacute" unicode="&#x144;" 
d="M120 0v828h73c0 2 2 4 2 4c7 6 215 6 330 6c108 0 303 0 309 -6s6 -190 6 -293v-539h-136v539c0 78 0 221 -4 226s-112 5 -175 5c-92 0 -259 0 -264 -5s-5 -146 -5 -226v-539h-136zM546 1263h198l-221 -184h-146z" />
    <glyph glyph-name="lslash" unicode="&#x142;" horiz-adv-x="460" 
d="M162 560v390h136v-323l124 62v-143l-124 -61v-485h-136v418l-124 -62v143z" />
    <glyph glyph-name="Ccaron" unicode="&#x10c;" horiz-adv-x="1350" 
d="M1309 225c-1 -117 -4 -220 -11 -226c-12 -9 -391 -9 -598 -9s-586 0 -598 9s-12 296 -12 461s0 452 12 461s391 9 598 9s586 0 598 -9c7 -6 10 -109 11 -226l-136 -1c-1 86 -3 156 -8 160c-9 8 -303 8 -465 8s-456 0 -465 -8s-9 -254 -9 -394s0 -386 9 -394
s303 -8 465 -8s456 0 465 8c5 4 7 74 8 160zM819 1173h146l-167 -184h-196l-167 184h146l119 -101z" />
    <glyph glyph-name="Uacute" unicode="&#xda;" horiz-adv-x="1188" 
d="M1054 920v-629c0 -107 0 -289 -9 -295s-296 -6 -451 -6s-442 0 -451 6s-9 188 -9 295v629h136v-629c0 -82 0 -223 6 -228s209 -5 318 -5s312 0 318 5s6 146 6 228v629h136zM660 1173h198l-221 -184h-146z" />
    <glyph glyph-name="v" unicode="v" horiz-adv-x="840" 
d="M10 828h149l296 -668l296 668h79l-367 -828h-86z" />
    <glyph glyph-name="E" unicode="E" horiz-adv-x="930" 
d="M140 0v920h720v-68h-584v-524h516v-68h-516v-192h584v-68h-720z" />
    <glyph glyph-name="B" unicode="B" horiz-adv-x="1050" 
d="M140 0v920h410c128 0 360 0 368 -6s8 -204 8 -316c0 -75 -2 -188 -2 -257c16 0 26 0 28 -1c8 -3 8 -105 8 -168s0 -166 -8 -169s-266 -3 -402 -3h-410zM276 852v-509h274c83 0 230 0 235 5s5 163 5 250s0 244 -5 249s-152 5 -235 5h-274zM276 275v-207h274
c91 0 264 0 269 2s5 64 5 102s0 99 -5 101s-172 2 -264 2h-279z" />
    <glyph glyph-name="s" unicode="s" horiz-adv-x="800" 
d="M61 90l136 2c1 -18 2 -30 3 -31c4 -3 131 -3 200 -3s196 0 200 3s4 102 4 158s0 155 -4 158s-131 3 -200 3c-114 0 -326 0 -333 5s-7 143 -7 224s0 219 7 224s219 5 333 5s326 0 333 -5c4 -2 5 -41 6 -90l-136 -2c-1 15 -2 25 -3 26c-4 3 -131 3 -200 3s-196 0 -200 -3
s-4 -102 -4 -158s0 -155 4 -158s131 -3 200 -3c114 0 326 0 333 -5s7 -143 7 -224s0 -219 -7 -224s-219 -5 -333 -5s-326 0 -333 5c-4 2 -5 44 -6 95z" />
    <glyph glyph-name="OE" unicode="&#x152;" horiz-adv-x="1680" 
d="M624 862c-137 0 -382 0 -390 -8s-8 -256 -8 -394s0 -386 8 -394s253 -8 390 -8s382 0 390 8s8 256 8 394s0 386 -8 394s-253 8 -390 8zM1148 0c-6 -9 -249 -10 -432 -10h-92c-182 0 -512 0 -523 9s-11 298 -11 461s0 452 11 461s341 9 523 9h92c183 0 426 -1 432 -10h462
v-68h-452v-524h384v-68h-384v-192h452v-68h-462z" />
    <glyph glyph-name="caron" unicode="&#x2c7;" horiz-adv-x="420" 
d="M329 920h146l-167 -184h-196l-167 184h146l119 -101z" />
    <glyph glyph-name="eth" unicode="&#xf0;" horiz-adv-x="1050" 
d="M325 678v69l97 23c-95 0 -196 -2 -200 -7c-6 -7 -6 -228 -6 -349s0 -342 6 -349s189 -7 293 -7s287 0 293 7s6 228 6 349c0 132 -47 253 -127 347zM606 838c-84 65 -187 106 -301 112h227c80 -20 151 -57 212 -106l198 46v-70l-64 -15c2 -26 2 -72 3 -124
c44 -80 69 -171 69 -267c0 -146 0 -408 -9 -416s-277 -8 -426 -8s-417 0 -426 8s-9 270 -9 416s0 408 9 416s277 8 426 8h91z" />
    <glyph glyph-name="Rcaron" unicode="&#x158;" horiz-adv-x="1010" 
d="M140 0v920h383c148 0 419 0 428 -7s9 -218 9 -338s0 -330 -9 -337c-4 -3 -60 -5 -134 -6l183 -232h-181l-170 231h-373v-231h-136zM579 1173h146l-167 -184h-196l-167 184h146l119 -101zM276 852v-553h336c96 0 202 1 206 5c6 6 6 175 6 271s0 265 -6 271s-192 6 -295 6
h-247z" />
    <glyph glyph-name="zacute" unicode="&#x17a;" horiz-adv-x="740" 
d="M50 760v68h640v-86l-481 -674h481v-68h-640v86l481 674h-481zM436 1263h198l-221 -184h-146z" />
    <glyph glyph-name="uring" unicode="&#x16f;" 
d="M830 828v-828h-73c0 -2 -1 -4 -1 -4c-6 -6 -185 -6 -286 -6c-123 0 -346 0 -353 6s-7 189 -7 293v539h136v-539c0 -79 0 -221 4 -226s143 -5 220 -5s216 0 220 5s4 147 4 226v539h136zM470 1240c-30 0 -86 0 -88 -1s-2 -44 -2 -68s0 -67 2 -68s58 -2 88 -2s86 1 88 2
s2 44 2 68s0 67 -2 68s-58 1 -88 1zM470 1285c61 0 173 0 177 -2c3 -1 3 -32 3 -65v-94c0 -33 0 -65 -3 -66c-4 -2 -116 -2 -177 -2s-173 0 -177 2c-3 1 -3 33 -3 66v94c0 33 0 64 3 65c4 2 116 2 177 2z" />
    <glyph glyph-name="I" unicode="I" horiz-adv-x="456" 
d="M160 0v920h136v-920h-136z" />
    <glyph glyph-name="ntilde" unicode="&#xf1;" 
d="M120 0v828h73c0 2 2 4 2 4c7 6 215 6 330 6c108 0 303 0 309 -6s6 -190 6 -293v-539h-136v539c0 78 0 221 -4 226s-112 5 -175 5c-92 0 -259 0 -264 -5s-5 -146 -5 -226v-539h-136zM306 1083h-108v53c0 37 0 72 3 74c2 2 47 2 96 2h93c64 0 116 -54 180 -54
c28 0 80 0 82 1s2 43 2 67h108v-52c0 -37 0 -72 -3 -74c-4 -3 -124 -3 -189 -3c-64 0 -116 55 -180 55c-28 0 -80 -1 -82 -2s-2 -43 -2 -67z" />
    <glyph glyph-name="Uring" unicode="&#x16e;" horiz-adv-x="1188" 
d="M1054 920v-629c0 -107 0 -289 -9 -295s-296 -6 -451 -6s-442 0 -451 6s-9 188 -9 295v629h136v-629c0 -82 0 -223 6 -228s209 -5 318 -5s312 0 318 5s6 146 6 228v629h136zM594 1150c-30 0 -86 0 -88 -1s-2 -44 -2 -68s0 -67 2 -68s58 -1 88 -1s86 0 88 1s2 44 2 68
s0 67 -2 68s-58 1 -88 1zM594 1196c61 0 173 -1 177 -3c3 -1 3 -32 3 -65v-94c0 -33 0 -64 -3 -65c-4 -2 -116 -3 -177 -3s-173 1 -177 3c-3 1 -3 32 -3 65v94c0 33 0 64 3 65c4 2 116 3 177 3z" />
    <glyph glyph-name="tcedilla" unicode="&#x163;" horiz-adv-x="540" 
d="M268 -266h4c54 0 153 0 156 1s4 46 4 73s-1 72 -4 73s-104 2 -158 2h-101l41 117h-8v760h-158v68h158v122h136v-122h158v-68h-158v-760h-27l-22 -63c93 0 241 0 246 -2c5 -3 5 -80 5 -127s0 -123 -5 -126c-3 -2 -65 -2 -133 -2h-264c-68 0 -130 0 -133 2
c-4 2 -5 38 -5 76l109 1c0 -13 2 -23 3 -24c3 -1 102 -1 156 -1z" />
    <glyph glyph-name="ucircumflex" unicode="&#xfb;" 
d="M830 828v-828h-73c0 -2 -1 -4 -1 -4c-6 -6 -185 -6 -286 -6c-123 0 -346 0 -353 6s-7 189 -7 293v539h136v-539c0 -79 0 -221 4 -226s143 -5 220 -5s216 0 220 5s4 147 4 226v539h136zM470 1180l-119 -101h-146l167 184h196l167 -184h-146z" />
    <glyph glyph-name="Egrave" unicode="&#xc8;" horiz-adv-x="930" 
d="M140 0v920h720v-68h-584v-524h516v-68h-516v-192h584v-68h-720zM236 1173h198l169 -184h-146z" />
    <glyph glyph-name="j" unicode="j" horiz-adv-x="420" 
d="M300 828v-949c0 -66 0 -181 -5 -185s-167 -4 -255 -4s-250 0 -255 4c-3 2 -4 42 -5 88l137 1c0 -13 0 -22 1 -23c2 -2 79 -2 122 -2s120 0 122 2s2 77 2 119v949h136zM229 1217c31 0 86 0 88 -2s2 -57 2 -88s0 -87 -2 -89c-1 -1 -15 -1 -33 -1h-110c-18 0 -32 0 -33 1
c-2 2 -2 58 -2 89s0 86 2 88s57 2 88 2z" />
    <glyph glyph-name="Oacute" unicode="&#xd3;" horiz-adv-x="1400" 
d="M766 1173h198l-221 -184h-146zM700 862c-162 0 -456 0 -465 -8s-9 -254 -9 -394s0 -386 9 -394s303 -8 465 -8s456 0 465 8s9 254 9 394s0 386 -9 394s-303 8 -465 8zM700 930c207 0 586 0 598 -9s12 -296 12 -461s0 -452 -12 -461s-391 -9 -598 -9s-586 0 -598 9
s-12 296 -12 461s0 452 12 461s391 9 598 9z" />
    <glyph glyph-name="ae" unicode="&#xe6;" horiz-adv-x="1480" 
d="M91 712c1 65 3 116 6 119c7 7 220 7 339 7c85 0 220 -2 292 -2c82 2 214 2 301 2c132 0 365 0 373 -8s8 -271 8 -416v-34h-627c0 -124 1 -309 5 -315c5 -7 154 -7 241 -7c85 0 235 0 240 6c2 2 3 36 4 82l136 -1c-1 -79 -3 -144 -7 -148c-8 -7 -242 -7 -373 -7
c-84 0 -210 2 -292 2c-69 -2 -213 -2 -301 -2c-117 0 -332 0 -339 5s-7 162 -7 253s0 249 7 254s222 5 339 5c60 0 151 -1 211 -1v1c0 89 0 253 -4 258s-134 5 -207 5s-202 0 -206 -5c-1 -2 -2 -24 -3 -55zM436 439c-72 0 -202 0 -206 -4s-4 -121 -4 -187s0 -182 4 -186
s134 -4 206 -4s203 0 207 4s4 120 4 186s0 183 -4 187s-135 4 -207 4zM1274 448c0 124 -1 309 -5 315c-5 7 -153 7 -240 7s-236 0 -241 -7c-4 -6 -5 -191 -5 -315h491z" />
    <glyph glyph-name="c" unicode="c" horiz-adv-x="954" 
d="M919 206c-1 -107 -2 -203 -7 -208c-8 -8 -267 -8 -412 -8s-404 0 -412 8s-8 270 -8 416s0 408 8 416s267 8 412 8s404 0 412 -8c5 -5 6 -101 7 -208l-136 -1c-1 76 -2 138 -5 142c-6 7 -179 7 -278 7s-272 0 -278 -7s-6 -228 -6 -349s0 -342 6 -349s179 -7 278 -7
s272 0 278 7c3 4 4 66 5 142z" />
    <glyph glyph-name="Lcaron" unicode="&#x13d;" horiz-adv-x="920" 
d="M140 0v920h136v-852h584v-68h-720zM600 920h147l-185 -299h-109z" />
    <glyph glyph-name="D" unicode="D" horiz-adv-x="1260" 
d="M140 0v920h398c210 0 598 0 610 -9s12 -290 12 -451s0 -442 -12 -451s-400 -9 -610 -9h-398zM276 68h262c165 0 466 0 476 8s10 247 10 384s0 376 -10 384s-311 8 -476 8h-262v-784z" />
    <glyph glyph-name="icircumflex" unicode="&#xee;" horiz-adv-x="380" 
d="M122 0v828h136v-828h-136zM190 1180l-119 -101h-146l167 184h196l167 -184h-146z" />
    <glyph glyph-name="gbreve" unicode="&#x11f;" horiz-adv-x="1020" 
d="M490 838h61c119 0 272 -1 275 -10h74v-884c0 -90 0 -244 -8 -249s-264 -5 -402 -5s-394 0 -402 5c-6 4 -8 92 -8 173h136c0 -53 1 -104 5 -106c5 -4 177 -4 269 -4s264 0 269 4s5 116 5 182v59c-73 -3 -194 -3 -274 -3c-141 0 -394 0 -402 8s-8 267 -8 411s0 403 8 411
s261 8 402 8zM772 1231v-42c0 -44 -1 -90 -5 -92c-6 -3 -183 -3 -277 -3s-271 0 -277 3c-4 2 -5 48 -5 92v42h108c0 -28 1 -73 4 -75c2 -1 29 -1 64 -1h212c35 0 62 0 64 1c3 2 4 47 4 75h108zM490 770c-96 0 -264 0 -269 -7s-5 -225 -5 -344s0 -337 5 -344s173 -7 269 -7
s264 0 269 7s5 225 5 344s0 337 -5 344s-173 7 -269 7z" />
    <glyph glyph-name="ij" unicode="&#x133;" horiz-adv-x="920" 
d="M180 828h136v-828h-136v828zM800 828v-949c0 -67 0 -181 -6 -185s-189 -4 -288 -4s-282 0 -288 4c-3 2 -5 42 -6 88l137 2c0 -13 1 -23 2 -24c3 -2 101 -2 155 -2s152 0 155 2s3 77 3 119v949h136zM735 1201c31 0 86 0 88 -2s2 -57 2 -88s0 -87 -2 -89
c-1 -1 -15 -1 -33 -1h-110c-18 0 -32 0 -33 1c-2 2 -2 58 -2 89s0 86 2 88s57 2 88 2zM245 1201c31 0 86 0 88 -2s2 -57 2 -88s0 -87 -2 -89c-1 -1 -15 -1 -33 -1h-110c-18 0 -32 0 -33 1c-2 2 -2 58 -2 89s0 86 2 88s57 2 88 2z" />
    <glyph glyph-name="n" unicode="n" 
d="M120 0v828h73c0 2 2 4 2 4c7 6 215 6 330 6c108 0 303 0 309 -6s6 -190 6 -293v-539h-136v539c0 78 0 221 -4 226s-112 5 -175 5c-92 0 -259 0 -264 -5s-5 -146 -5 -226v-539h-136z" />
    <glyph glyph-name="percent" unicode="%" horiz-adv-x="1640" 
d="M296 -46l866 1012h182l-866 -1012h-182zM436 852c-49 0 -134 0 -137 -3s-3 -100 -3 -153s0 -150 3 -153s88 -3 137 -3s135 0 138 3s3 100 3 153s0 150 -3 153s-89 3 -138 3zM436 920c94 0 265 0 271 -4s6 -142 6 -220s0 -216 -6 -220s-177 -4 -271 -4s-264 0 -270 4
s-6 142 -6 220s0 216 6 220s176 4 270 4zM1204 380c-49 0 -135 0 -138 -3s-3 -100 -3 -153s0 -150 3 -153s89 -3 138 -3s134 0 137 3s3 100 3 153s0 150 -3 153s-88 3 -137 3zM1204 448c94 0 264 0 270 -4s6 -142 6 -220s0 -216 -6 -220s-176 -4 -270 -4s-265 0 -271 4
s-6 142 -6 220s0 216 6 220s177 4 271 4z" />
    <glyph glyph-name="q" unicode="q" horiz-adv-x="1020" 
d="M490 838h61c119 0 272 -1 275 -10h74v-1128h-136v293c-73 -3 -194 -3 -274 -3c-141 0 -394 0 -402 8s-8 270 -8 416s0 408 8 416s261 8 402 8zM490 770c-96 0 -264 0 -269 -7s-5 -228 -5 -349s0 -342 5 -349s173 -7 269 -7s264 0 269 7s5 228 5 349s0 342 -5 349
s-173 7 -269 7z" />
    <glyph glyph-name="Racute" unicode="&#x154;" horiz-adv-x="1010" 
d="M140 0v920h383c148 0 419 0 428 -7s9 -218 9 -338s0 -330 -9 -337c-4 -3 -60 -5 -134 -6l183 -232h-181l-170 231h-373v-231h-136zM526 1173h198l-221 -184h-146zM276 852v-553h336c96 0 202 1 206 5c6 6 6 175 6 271s0 265 -6 271s-192 6 -295 6h-247z" />
    <glyph glyph-name="x" unicode="x" horiz-adv-x="810" 
d="M37 828h164l227 -319l255 319h90l-303 -378l320 -450h-164l-243 341l-273 -341h-90l321 401z" />
    <glyph glyph-name="S" unicode="S" horiz-adv-x="1040" 
d="M81 102l136 2c1 -24 3 -41 5 -42c6 -4 193 -4 293 -4s287 0 293 4s6 115 6 180s0 176 -6 180s-193 4 -293 4c-146 0 -417 0 -426 5s-9 157 -9 247s0 242 9 247s280 5 426 5s417 0 426 -5c5 -3 7 -46 8 -100l-137 -2c-1 20 -2 34 -4 35c-6 4 -193 4 -293 4s-287 0 -293 -4
s-6 -115 -6 -180s0 -176 6 -180s193 -4 293 -4c146 0 417 0 426 -5s9 -157 9 -247s0 -242 -9 -247s-280 -5 -426 -5s-417 0 -426 5c-5 3 -7 50 -8 107z" />
    <glyph glyph-name="A" unicode="A" horiz-adv-x="1110" 
d="M20 0l492 920h86l492 -920h-154l-82 154h-673l-82 -154h-79zM817 222l-300 560l-299 -560h599z" />
    <glyph glyph-name="Y" unicode="Y" horiz-adv-x="1040" 
d="M10 920h161l387 -608l388 608h84l-442 -693v-227h-136v227z" />
    <glyph glyph-name="oslash" unicode="&#xf8;" horiz-adv-x="1000" 
d="M500 770c-99 0 -272 0 -278 -7s-6 -228 -6 -349c0 -61 1 -147 1 -219l519 572c-59 3 -166 3 -236 3zM500 -10h-124c-135 0 -285 1 -288 10h-48l43 48c-3 84 -3 257 -3 366c0 146 0 408 8 416s267 8 412 8h124c135 0 285 -1 288 -10h48l-43 -48c3 -84 3 -257 3 -366
c0 -146 0 -408 -8 -416s-267 -8 -412 -8zM264 61c59 -3 166 -3 236 -3c99 0 272 0 278 7s6 228 6 349c0 61 -1 147 -1 219z" />
    <glyph glyph-name="dieresis" unicode="&#xa8;" horiz-adv-x="420" 
d="M30 874c31 0 86 0 88 -2s2 -57 2 -88s0 -86 -2 -88s-57 -2 -88 -2s-86 0 -88 2s-2 57 -2 88s0 86 2 88s57 2 88 2zM390 874c31 0 86 0 88 -2s2 -57 2 -88s0 -86 -2 -88s-57 -2 -88 -2s-86 0 -88 2s-2 57 -2 88s0 86 2 88s57 2 88 2z" />
    <glyph glyph-name="o" unicode="o" horiz-adv-x="1000" 
d="M500 770c-99 0 -272 0 -278 -7s-6 -228 -6 -349s0 -342 6 -349s179 -7 278 -7s272 0 278 7s6 228 6 349s0 342 -6 349s-179 7 -278 7zM500 838c145 0 404 0 412 -8s8 -270 8 -416s0 -408 -8 -416s-267 -8 -412 -8s-404 0 -412 8s-8 270 -8 416s0 408 8 416s267 8 412 8z
" />
    <glyph glyph-name="sacute" unicode="&#x15b;" horiz-adv-x="800" 
d="M61 90l136 2c1 -18 2 -30 3 -31c4 -3 131 -3 200 -3s196 0 200 3s4 102 4 158s0 155 -4 158s-131 3 -200 3c-114 0 -326 0 -333 5s-7 143 -7 224s0 219 7 224s219 5 333 5s326 0 333 -5c4 -2 5 -41 6 -90l-136 -2c-1 15 -2 25 -3 26c-4 3 -131 3 -200 3s-196 0 -200 -3
s-4 -102 -4 -158s0 -155 4 -158s131 -3 200 -3c114 0 326 0 333 -5s7 -143 7 -224s0 -219 -7 -224s-219 -5 -333 -5s-326 0 -333 5c-4 2 -5 44 -6 95zM466 1263h198l-221 -184h-146z" />
    <glyph glyph-name="J" unicode="J" horiz-adv-x="880" 
d="M750 920v-672c0 -91 0 -248 -8 -253s-247 -5 -377 -5s-369 0 -377 5c-4 3 -6 41 -7 91l137 3c1 -16 2 -26 3 -27c5 -4 160 -4 244 -4s239 0 244 4s5 120 5 186v672h136z" />
    <glyph glyph-name="dotaccent" unicode="&#x2d9;" horiz-adv-x="360" 
d="M180 874c31 0 86 0 88 -2s2 -57 2 -88s0 -86 -2 -88s-57 -2 -88 -2s-86 0 -88 2s-2 57 -2 88s0 86 2 88s57 2 88 2z" />
    <glyph glyph-name="y" unicode="y" horiz-adv-x="840" 
d="M10 828h149l296 -651l296 651h79l-370 -814l1 -14h-7l-136 -300h-80l142 313z" />
    <glyph glyph-name="yacute" unicode="&#xfd;" horiz-adv-x="840" 
d="M10 828h149l296 -651l296 651h79l-370 -814l1 -14h-7l-136 -300h-80l142 313zM486 1263h198l-221 -184h-146z" />
    <glyph glyph-name="dotlessj" unicode="&#x237;" horiz-adv-x="420" 
d="M300 828v-949c0 -66 0 -181 -5 -185s-167 -4 -255 -4s-250 0 -255 4c-3 2 -4 42 -5 88l137 1c0 -13 0 -22 1 -23c2 -2 79 -2 122 -2s120 0 122 2s2 77 2 119v949h136z" />
    <glyph glyph-name="braceleft" unicode="{" horiz-adv-x="610" 
d="M249 962l137 -38c-18 -39 -18 -142 -18 -215v-184c0 -53 -1 -130 -1 -184c1 -54 1 -131 1 -184v-184c0 -73 0 -176 18 -215l-137 -38c-17 59 -17 171 -17 253v184c0 40 0 112 -3 114s-91 2 -139 2v136c48 0 136 0 139 2s3 74 3 114v184c0 82 0 194 17 253z" />
    <glyph glyph-name="numbersign" unicode="#" horiz-adv-x="1080" 
d="M40 288v68h218l51 208h-229v68h246l70 288h138l-71 -288h238l70 288h138l-71 -288h202v-68h-218l-51 -208h229v-68h-246l-70 -288h-138l71 288h-238l-70 -288h-138l71 288h-202zM633 356l51 208h-237l-51 -208h237z" />
    <glyph glyph-name="quoteleft" unicode="&#x2018;" horiz-adv-x="510" 
d="M279 920h109l-147 -299h-147z" />
    <glyph glyph-name="ffl" unicode="&#xfb04;" horiz-adv-x="1390" 
d="M84 760v68h131v48c0 31 0 80 4 82s142 2 214 2s209 0 213 -2c3 -1 4 -26 4 -51l-136 -31c0 6 0 16 -2 16h-159c-2 0 -2 -10 -2 -16v-48h319v48c0 31 0 80 4 82s142 2 214 2s209 0 213 -2c3 -1 4 -26 4 -51l-136 -31c0 6 0 16 -2 16h-159c-2 0 -2 -10 -2 -16v-48h166v-68
h-166v-760h-136v760h-319v-760h-136v760h-131zM1134 0v950h136v-950h-136z" />
    <glyph glyph-name="perthousandzero" horiz-adv-x="690" 
d="M345 380c-51 0 -143 0 -146 -3s-3 -99 -3 -153s0 -150 3 -153s95 -3 146 -3s143 0 146 3s3 99 3 153s0 150 -3 153s-95 3 -146 3zM345 448c97 0 273 0 279 -4s6 -142 6 -220s0 -216 -6 -220s-182 -4 -279 -4s-273 0 -279 4s-6 142 -6 220s0 216 6 220s182 4 279 4z" />
    <glyph glyph-name="lcaron" unicode="&#x13e;" horiz-adv-x="376" 
d="M120 0v950h136v-950h-136zM476 950h147l-185 -299h-109z" />
    <glyph glyph-name="three" unicode="3" 
d="M60 122l137 2c1 -34 2 -60 4 -62c5 -4 160 -4 244 -4s239 0 244 4s5 115 5 180s0 176 -5 180s-160 4 -244 4h-85v68h85c84 0 239 0 244 4s5 115 5 180s0 176 -5 180s-160 4 -244 4s-239 0 -244 -4c-2 -2 -3 -28 -4 -62l-137 2c1 66 3 124 8 127c8 5 248 5 377 5
s369 0 377 -5s8 -158 8 -247c0 -67 -3 -168 -3 -218c3 -50 3 -151 3 -218c0 -89 0 -242 -8 -247s-248 -5 -377 -5s-369 0 -377 5c-5 3 -7 61 -8 127z" />
    <glyph glyph-name="Ucircumflex" unicode="&#xdb;" horiz-adv-x="1188" 
d="M1054 920v-629c0 -107 0 -289 -9 -295s-296 -6 -451 -6s-442 0 -451 6s-9 188 -9 295v629h136v-629c0 -82 0 -223 6 -228s209 -5 318 -5s312 0 318 5s6 146 6 228v629h136zM594 1090l-119 -101h-146l167 184h196l167 -184h-146z" />
    <glyph glyph-name="ohungarumlaut" unicode="&#x151;" horiz-adv-x="1000" 
d="M250 1079l155 184h190l-205 -184h-140zM705 1263h190l-205 -184h-140zM500 770c-99 0 -272 0 -278 -7s-6 -228 -6 -349s0 -342 6 -349s179 -7 278 -7s272 0 278 7s6 228 6 349s0 342 -6 349s-179 7 -278 7zM500 838c145 0 404 0 412 -8s8 -270 8 -416s0 -408 -8 -416
s-267 -8 -412 -8s-404 0 -412 8s-8 270 -8 416s0 408 8 416s267 8 412 8z" />
    <glyph glyph-name="bracketleft" unicode="[" horiz-adv-x="560" 
d="M180 -300v1266h320v-68h-184v-1130h184v-68h-320z" />
    <glyph glyph-name="oacute" unicode="&#xf3;" horiz-adv-x="1000" 
d="M566 1263h198l-221 -184h-146zM500 770c-99 0 -272 0 -278 -7s-6 -228 -6 -349s0 -342 6 -349s179 -7 278 -7s272 0 278 7s6 228 6 349s0 342 -6 349s-179 7 -278 7zM500 838c145 0 404 0 412 -8s8 -270 8 -416s0 -408 -8 -416s-267 -8 -412 -8s-404 0 -412 8
s-8 270 -8 416s0 408 8 416s267 8 412 8z" />
    <glyph glyph-name="nine" unicode="9" horiz-adv-x="980" 
d="M71 134l136 2c1 -40 1 -72 4 -74c5 -4 176 -4 269 -4s264 0 269 4s5 138 5 214v83c-73 -2 -195 -2 -274 -2c-138 0 -394 0 -402 6s-8 180 -8 281s0 274 8 280s264 6 402 6s394 0 402 -6s8 -179 8 -280v-368c0 -101 0 -274 -8 -280s-264 -6 -402 -6s-394 0 -402 6
c-5 3 -6 66 -7 138zM480 862c-93 0 -264 0 -269 -4s-5 -138 -5 -214s0 -211 5 -215s176 -4 269 -4s264 0 269 4s5 139 5 215s0 210 -5 214s-176 4 -269 4z" />
    <glyph glyph-name="backslash" unicode="\" horiz-adv-x="750" 
d="M547 -46l-507 1012h163l507 -1012h-163z" />
    <glyph glyph-name="atilde" unicode="&#xe3;" horiz-adv-x="940" 
d="M81 712c1 65 2 116 6 119c7 7 237 7 363 7s356 0 363 -7s7 -209 7 -324v-507h-73c0 -3 0 -5 -1 -5c-6 -5 -193 -5 -296 -5c-125 0 -356 0 -363 5s-7 162 -7 253s0 249 7 254s238 5 363 5c67 0 169 -1 234 -1v1c0 90 0 253 -5 258s-148 5 -229 5s-224 0 -229 -5
c-2 -2 -3 -24 -4 -55zM276 1083h-108v53c0 37 0 72 3 74c2 2 47 2 96 2h93c64 0 116 -54 180 -54c28 0 80 0 82 1s2 43 2 67h108v-52c0 -37 0 -72 -3 -74c-4 -3 -124 -3 -189 -3c-64 0 -116 55 -180 55c-28 0 -80 -1 -82 -2s-2 -43 -2 -67zM450 439c-80 0 -224 0 -229 -4
s-5 -121 -5 -187s0 -182 5 -186s149 -4 229 -4s224 0 229 4s5 120 5 186s0 183 -5 187s-149 4 -229 4z" />
    <glyph glyph-name="Aacute" unicode="&#xc1;" horiz-adv-x="1110" 
d="M20 0l492 920h86l492 -920h-154l-82 154h-673l-82 -154h-79zM621 1173h198l-221 -184h-146zM817 222l-300 560l-299 -560h599z" />
    <glyph glyph-name="ccedilla" unicode="&#xe7;" horiz-adv-x="954" 
d="M498 -266h4c54 0 153 0 156 1s4 46 4 73s-1 72 -4 73s-104 2 -158 2h-101l38 107c-146 0 -342 1 -349 8c-8 8 -8 270 -8 416s0 408 8 416s267 8 412 8s404 0 412 -8c5 -5 6 -101 7 -208l-136 -1c-1 76 -2 138 -5 142c-6 7 -179 7 -278 7s-272 0 -278 -7s-6 -228 -6 -349
s0 -342 6 -349s179 -7 278 -7s272 0 278 7c3 4 4 66 5 142l136 -1c-1 -107 -2 -203 -7 -208c-8 -8 -227 -8 -375 -8l-18 -53c93 0 241 0 246 -2c5 -3 5 -80 5 -127s0 -123 -5 -126c-3 -2 -65 -2 -133 -2h-264c-68 0 -130 0 -133 2c-4 2 -5 38 -5 76l109 1c0 -13 2 -23 3 -24
c3 -1 102 -1 156 -1z" />
    <glyph glyph-name="Lslash" unicode="&#x141;" horiz-adv-x="940" 
d="M880 0h-720v308l-120 -55v138l120 55v474h136v-411l344 158v-138l-344 -158v-303h584v-68z" />
    <glyph glyph-name="Sacute" unicode="&#x15a;" horiz-adv-x="1040" 
d="M81 102l136 2c1 -24 3 -41 5 -42c6 -4 193 -4 293 -4s287 0 293 4s6 115 6 180s0 176 -6 180s-193 4 -293 4c-146 0 -417 0 -426 5s-9 157 -9 247s0 242 9 247s280 5 426 5s417 0 426 -5c5 -3 7 -46 8 -100l-137 -2c-1 20 -2 34 -4 35c-6 4 -193 4 -293 4s-287 0 -293 -4
s-6 -115 -6 -180s0 -176 6 -180s193 -4 293 -4c146 0 417 0 426 -5s9 -157 9 -247s0 -242 -9 -247s-280 -5 -426 -5s-417 0 -426 5c-5 3 -7 50 -8 107zM581 1150h198l-221 -184h-146z" />
    <glyph glyph-name="visiblespace" unicode="&#x2420;" horiz-adv-x="800" 
d="M40 0h136v-86h448v86h136v-154h-720v154z" />
    <glyph glyph-name="aring" unicode="&#xe5;" horiz-adv-x="940" 
d="M81 712c1 65 2 116 6 119c7 7 237 7 363 7s356 0 363 -7s7 -209 7 -324v-507h-73c0 -3 0 -5 -1 -5c-6 -5 -193 -5 -296 -5c-125 0 -356 0 -363 5s-7 162 -7 253s0 249 7 254s238 5 363 5c67 0 169 -1 234 -1v1c0 90 0 253 -5 258s-148 5 -229 5s-224 0 -229 -5
c-2 -2 -3 -24 -4 -55zM450 439c-80 0 -224 0 -229 -4s-5 -121 -5 -187s0 -182 5 -186s149 -4 229 -4s224 0 229 4s5 120 5 186s0 183 -5 187s-149 4 -229 4zM450 1240c-30 0 -86 0 -88 -1s-2 -44 -2 -68s0 -67 2 -68s58 -2 88 -2s86 1 88 2s2 44 2 68s0 67 -2 68
s-58 1 -88 1zM450 1285c61 0 173 0 177 -2c3 -1 3 -32 3 -65v-94c0 -33 0 -65 -3 -66c-4 -2 -116 -2 -177 -2s-173 0 -177 2c-3 1 -3 33 -3 66v94c0 33 0 64 3 65c4 2 116 2 177 2z" />
    <glyph glyph-name="m" unicode="m" horiz-adv-x="1450" 
d="M120 0v828h73c0 2 1 4 1 4c6 6 199 6 306 6c80 0 209 -3 265 -3c59 3 194 3 277 3c103 0 286 0 292 -6s6 -190 6 -293v-539h-136v539c0 78 0 221 -3 226s-102 5 -159 5c-84 0 -234 0 -239 -5s-5 -146 -5 -226v-539h-136v539c0 78 0 221 -3 226s-102 5 -159 5
c-84 0 -234 0 -239 -5s-5 -146 -5 -226v-539h-136z" />
    <glyph glyph-name="ograve" unicode="&#xf2;" horiz-adv-x="1000" 
d="M236 1263h198l169 -184h-146zM500 770c-99 0 -272 0 -278 -7s-6 -228 -6 -349s0 -342 6 -349s179 -7 278 -7s272 0 278 7s6 228 6 349s0 342 -6 349s-179 7 -278 7zM500 838c145 0 404 0 412 -8s8 -270 8 -416s0 -408 -8 -416s-267 -8 -412 -8s-404 0 -412 8
s-8 270 -8 416s0 408 8 416s267 8 412 8z" />
    <glyph glyph-name="Cacute" unicode="&#x106;" horiz-adv-x="1350" 
d="M1309 225c-1 -117 -4 -220 -11 -226c-12 -9 -391 -9 -598 -9s-586 0 -598 9s-12 296 -12 461s0 452 12 461s391 9 598 9s586 0 598 -9c7 -6 10 -109 11 -226l-136 -1c-1 86 -3 156 -8 160c-9 8 -303 8 -465 8s-456 0 -465 -8s-9 -254 -9 -394s0 -386 9 -394
s303 -8 465 -8s456 0 465 8c5 4 7 74 8 160zM766 1173h198l-221 -184h-146z" />
    <glyph glyph-name="six" unicode="6" horiz-adv-x="980" 
d="M909 786l-136 -2c-1 40 -1 72 -4 74c-5 4 -176 4 -269 4s-264 0 -269 -4s-5 -138 -5 -214v-83c73 2 195 2 274 2c138 0 394 0 402 -6s8 -180 8 -281s0 -274 -8 -280s-264 -6 -402 -6s-394 0 -402 6s-8 179 -8 280v368c0 101 0 274 8 280s264 6 402 6s394 0 402 -6
c5 -3 6 -66 7 -138zM500 58c93 0 264 0 269 4s5 138 5 214s0 211 -5 215s-176 4 -269 4s-264 0 -269 -4s-5 -139 -5 -215s0 -210 5 -214s176 -4 269 -4z" />
    <glyph glyph-name="egrave" unicode="&#xe8;" horiz-adv-x="990" 
d="M919 145c-1 -79 -2 -144 -7 -148c-8 -7 -269 -7 -412 -7c-145 0 -404 0 -412 8s-8 270 -8 416s0 408 8 416s267 8 412 8s404 0 412 -8s8 -270 8 -416v-34h-704c0 -124 1 -309 6 -315c6 -7 179 -7 278 -7c98 0 272 0 278 6c2 2 4 37 5 83zM236 1263h198l169 -184h-146z
M784 448c0 124 -1 309 -6 315c-6 7 -179 7 -278 7s-272 0 -278 -7c-5 -6 -6 -191 -6 -315h568z" />
    <glyph glyph-name="cwm" horiz-adv-x="0" 
d="M142 -0c0 -17 -14 -33 -34 -33c-17 0 -34 13 -34 33v920c0 17 14 33 34 33c17 0 34 -13 34 -33v-920z" />
    <glyph glyph-name="hyphen" unicode="-" horiz-adv-x="580" 
d="M80 380v68h420v-68h-420z" />
    <glyph glyph-name="scaron" unicode="&#x161;" horiz-adv-x="800" 
d="M61 90l136 2c1 -18 2 -30 3 -31c4 -3 131 -3 200 -3s196 0 200 3s4 102 4 158s0 155 -4 158s-131 3 -200 3c-114 0 -326 0 -333 5s-7 143 -7 224s0 219 7 224s219 5 333 5s326 0 333 -5c4 -2 5 -41 6 -90l-136 -2c-1 15 -2 25 -3 26c-4 3 -131 3 -200 3s-196 0 -200 -3
s-4 -102 -4 -158s0 -155 4 -158s131 -3 200 -3c114 0 326 0 333 -5s7 -143 7 -224s0 -219 -7 -224s-219 -5 -333 -5s-326 0 -333 5c-4 2 -5 44 -6 95zM519 1263h146l-167 -184h-196l-167 184h146l119 -101z" />
    <glyph glyph-name="Zacute" unicode="&#x179;" horiz-adv-x="1020" 
d="M50 852v68h920v-86l-752 -766h752v-68h-920v86l752 766h-752zM576 1173h198l-221 -184h-146z" />
    <glyph glyph-name="igrave" unicode="&#xec;" horiz-adv-x="380" 
d="M122 0v828h136v-828h-136zM-74 1263h198l169 -184h-146z" />
    <glyph glyph-name="acircumflex" unicode="&#xe2;" horiz-adv-x="940" 
d="M81 712c1 65 2 116 6 119c7 7 237 7 363 7s356 0 363 -7s7 -209 7 -324v-507h-73c0 -3 0 -5 -1 -5c-6 -5 -193 -5 -296 -5c-125 0 -356 0 -363 5s-7 162 -7 253s0 249 7 254s238 5 363 5c67 0 169 -1 234 -1v1c0 90 0 253 -5 258s-148 5 -229 5s-224 0 -229 -5
c-2 -2 -3 -24 -4 -55zM450 439c-80 0 -224 0 -229 -4s-5 -121 -5 -187s0 -182 5 -186s149 -4 229 -4s224 0 229 4s5 120 5 186s0 183 -5 187s-149 4 -229 4zM450 1180l-119 -101h-146l167 184h196l167 -184h-146z" />
    <glyph glyph-name="M" unicode="M" horiz-adv-x="1550" 
d="M140 0v920h86l549 -848l549 848h86v-920h-136v704l-456 -704h-86l-456 704v-704h-136z" />
    <glyph glyph-name="N" unicode="N" horiz-adv-x="1250" 
d="M140 0v920h86l748 -761v761h136v-920h-86l-748 761v-761h-136z" />
    <glyph glyph-name="at" unicode="@" horiz-adv-x="1340" 
d="M1278 76c-2 -45 -5 -79 -10 -81c-12 -5 -396 -5 -598 -5c-207 0 -586 0 -598 9s-12 296 -12 461s0 452 12 461s391 9 598 9s586 0 598 -9s12 -296 12 -461c0 -77 0 -210 -7 -214s-223 -4 -340 -4h-136v1c-48 -1 -114 -1 -159 -1c-100 0 -284 0 -290 4s-6 137 -6 214
s0 210 6 214s190 4 290 4c45 0 111 -1 159 -1v1h136v-368c71 0 203 0 207 3s4 94 4 147c0 140 0 386 -9 394s-303 8 -465 8s-456 0 -465 -8s-9 -254 -9 -394s0 -386 9 -394s303 -8 465 -8c157 0 456 0 465 4c2 1 4 8 5 19zM638 610c-55 0 -154 0 -157 -3s-3 -95 -3 -147
s0 -144 3 -147s102 -3 157 -3s153 0 156 3s3 95 3 147s0 144 -3 147s-101 3 -156 3z" />
    <glyph glyph-name="idieresis" unicode="&#xef;" horiz-adv-x="380" 
d="M122 0v828h136v-828h-136zM10 1217c31 0 86 0 88 -2s2 -57 2 -88s0 -87 -2 -89c-1 -1 -15 -1 -33 -1h-110c-18 0 -32 0 -33 1c-2 2 -2 58 -2 89s0 86 2 88s57 2 88 2zM370 1217c31 0 86 0 88 -2s2 -57 2 -88s0 -87 -2 -89c-1 -1 -15 -1 -33 -1h-110c-18 0 -32 0 -33 1
c-2 2 -2 58 -2 89s0 86 2 88s57 2 88 2z" />
    <glyph glyph-name="colon" unicode=":" horiz-adv-x="456" 
d="M228 173c30 0 83 0 85 -2s2 -54 2 -84s0 -83 -2 -85s-55 -2 -85 -2s-83 0 -85 2s-2 55 -2 85s0 82 2 84s55 2 85 2zM228 828c30 0 83 0 85 -2s2 -55 2 -85s0 -82 -2 -84s-55 -2 -85 -2s-83 0 -85 2s-2 54 -2 84s0 83 2 85s55 2 85 2z" />
    <glyph glyph-name="l" unicode="l" horiz-adv-x="376" 
d="M120 0v950h136v-950h-136z" />
    <glyph glyph-name="Iacute" unicode="&#xcd;" horiz-adv-x="456" 
d="M160 0v920h136v-920h-136zM294 1173h198l-221 -184h-146z" />
    <glyph glyph-name="two" unicode="2" 
d="M80 798c1 66 3 124 8 127c8 5 248 5 377 5s369 0 377 -5s8 -158 8 -247s0 -242 -8 -247s-248 -5 -377 -5c-86 0 -239 0 -244 -5s-5 -160 -5 -246v-107h600v-68h-736v175c0 111 0 307 8 313s246 6 377 6c84 0 239 0 244 4s5 115 5 180s0 176 -5 180s-160 4 -244 4
s-239 0 -244 -4c-2 -2 -3 -28 -4 -62z" />
    <glyph glyph-name="zero" unicode="0" horiz-adv-x="1040" 
d="M520 862c-70 0 -148 50 -210 50c-28 0 -52 -9 -72 -38c-26 -38 -35 -79 -35 -122c0 -93 43 -194 43 -292s-43 -199 -43 -292c0 -43 9 -84 35 -122c20 -29 44 -38 72 -38c62 0 140 50 210 50s148 -50 210 -50c28 0 52 9 72 38c26 38 35 79 35 122c0 93 -43 194 -43 292
s43 199 43 292c0 43 -9 84 -35 122c-20 29 -44 38 -72 38c-62 0 -140 -50 -210 -50zM520 930c103 0 214 64 308 64c42 0 81 -12 114 -50c36 -42 49 -89 49 -138c0 -108 -61 -230 -61 -346s61 -238 61 -346c0 -49 -13 -96 -49 -138c-33 -38 -72 -50 -114 -50
c-94 0 -205 64 -308 64s-214 -64 -308 -64c-42 0 -81 12 -114 50c-36 42 -49 89 -49 138c0 108 61 230 61 346s-61 238 -61 346c0 49 13 96 49 138c33 38 72 50 114 50c94 0 205 -64 308 -64z" />
    <glyph glyph-name="g" unicode="g" horiz-adv-x="1020" 
d="M490 838h61c119 0 272 -1 275 -10h74v-884c0 -90 0 -244 -8 -249s-264 -5 -402 -5s-394 0 -402 5c-6 4 -8 92 -8 173h136c0 -53 1 -104 5 -106c5 -4 177 -4 269 -4s264 0 269 4s5 116 5 182v59c-73 -3 -194 -3 -274 -3c-141 0 -394 0 -402 8s-8 267 -8 411s0 403 8 411
s261 8 402 8zM490 770c-96 0 -264 0 -269 -7s-5 -225 -5 -344s0 -337 5 -344s173 -7 269 -7s264 0 269 7s5 225 5 344s0 337 -5 344s-173 7 -269 7z" />
    <glyph glyph-name="Tcedilla" unicode="&#x162;" horiz-adv-x="920" 
d="M458 -266h4c54 0 153 0 156 1s4 46 4 73s-1 72 -4 73s-104 2 -158 2h-101l41 117h-8v852h-358v68h852v-68h-358v-852h-27l-22 -63c93 0 241 0 246 -2c5 -3 5 -80 5 -127s0 -123 -5 -126c-3 -2 -65 -2 -133 -2h-264c-68 0 -130 0 -133 2c-4 2 -5 38 -5 76l109 1
c0 -13 2 -23 3 -24c3 -1 102 -1 156 -1z" />
    <glyph glyph-name="Tcaron" unicode="&#x164;" horiz-adv-x="920" 
d="M34 852v68h852v-68h-358v-852h-136v852h-358zM579 1173h146l-167 -184h-196l-167 184h146l119 -101z" />
    <glyph glyph-name="hungarumlaut" unicode="&#x2dd;" horiz-adv-x="420" 
d="M-40 736l155 184h190l-205 -184h-140zM415 920h190l-205 -184h-140z" />
    <glyph glyph-name="Lacute" unicode="&#x139;" horiz-adv-x="920" 
d="M140 0v920h136v-852h584v-68h-720zM274 1173h198l-221 -184h-146z" />
    <glyph glyph-name="quotesinglbase" unicode="&#x201a;" horiz-adv-x="510" 
d="M260 115h147l-185 -299h-109z" />
    <glyph glyph-name="grave" unicode="`" horiz-adv-x="400" 
d="M6 920h198l169 -184h-146z" />
    <glyph glyph-name="otilde" unicode="&#xf5;" horiz-adv-x="1000" 
d="M326 1083h-108v53c0 37 0 72 3 74c2 2 47 2 96 2h93c64 0 116 -54 180 -54c28 0 80 0 82 1s2 43 2 67h108v-52c0 -37 0 -72 -3 -74c-4 -3 -124 -3 -189 -3c-64 0 -116 55 -180 55c-28 0 -80 -1 -82 -2s-2 -43 -2 -67zM500 770c-99 0 -272 0 -278 -7s-6 -228 -6 -349
s0 -342 6 -349s179 -7 278 -7s272 0 278 7s6 228 6 349s0 342 -6 349s-179 7 -278 7zM500 838c145 0 404 0 412 -8s8 -270 8 -416s0 -408 -8 -416s-267 -8 -412 -8s-404 0 -412 8s-8 270 -8 416s0 408 8 416s267 8 412 8z" />
    <glyph glyph-name="uhungarumlaut" unicode="&#x171;" 
d="M830 828v-828h-73c0 -2 -1 -4 -1 -4c-6 -6 -185 -6 -286 -6c-123 0 -346 0 -353 6s-7 189 -7 293v539h136v-539c0 -79 0 -221 4 -226s143 -5 220 -5s216 0 220 5s4 147 4 226v539h136zM220 1079l155 184h190l-205 -184h-140zM675 1263h190l-205 -184h-140z" />
    <glyph glyph-name="dcroat" unicode="&#x111;" horiz-adv-x="1050" 
d="M826 0c-3 -9 -156 -10 -275 -10h-61c-141 0 -394 0 -402 8s-8 270 -8 416s0 408 8 416s261 8 402 8c80 0 201 -3 274 -3v115h136v-156h130v-68h-130v-726h-74zM764 414c0 92 -2 243 -2 312h-272v44c-96 0 -264 0 -269 -7s-5 -228 -5 -349s0 -342 5 -349s173 -7 269 -7
s264 0 269 7s5 228 5 349z" />
    <glyph glyph-name="K" unicode="K" horiz-adv-x="1060" 
d="M140 920h136v-626l618 626h98l-385 -390l385 -530h-183l-308 423l-225 -228v-195h-136v920z" />
    <glyph glyph-name="zdotaccent" unicode="&#x17c;" horiz-adv-x="740" 
d="M50 760v68h640v-86l-481 -674h481v-68h-640v86l481 674h-481zM370 1217c31 0 86 0 88 -2s2 -57 2 -88s0 -87 -2 -89c-1 -1 -15 -1 -33 -1h-110c-18 0 -32 0 -33 1c-2 2 -2 58 -2 89s0 86 2 88s57 2 88 2z" />
    <glyph glyph-name="period" unicode="." horiz-adv-x="456" 
d="M228 173c30 0 83 0 85 -2s2 -54 2 -84s0 -83 -2 -85s-55 -2 -85 -2s-83 0 -85 2s-2 55 -2 85s0 82 2 84s55 2 85 2z" />
    <glyph glyph-name="k" unicode="k" horiz-adv-x="870" 
d="M130 950h136v-606l487 484h97l-344 -341l344 -487h-182l-269 381l-133 -133v-248h-136v950z" />
    <glyph glyph-name="W" unicode="W" horiz-adv-x="1560" 
d="M20 920h153l398 -776l169 327l-231 449h153l154 -300l154 300h81l-195 -378l205 -398l398 776h81l-472 -920h-86l-202 393l-202 -393h-86z" />
    <glyph glyph-name="X" unicode="X" horiz-adv-x="990" 
d="M27 920h177l314 -372l345 372h100l-398 -429l415 -491h-177l-330 392l-363 -392h-100l415 448z" />
    <glyph glyph-name="ogonek" unicode="&#x2db;" horiz-adv-x="400" 
d="M332 -320h-264c-68 0 -130 0 -133 2c-5 3 -5 79 -5 126c0 108 149 88 226 143l138 103l-6 -54l-138 -104c-42 -30 -112 -34 -112 -88c0 -27 1 -72 4 -73s102 -1 156 -1h4c54 0 153 0 156 1s4 46 4 73l107 -94c-1 -18 -2 -31 -4 -32c-3 -2 -65 -2 -133 -2z" />
    <glyph glyph-name="agrave" unicode="&#xe0;" horiz-adv-x="940" 
d="M81 712c1 65 2 116 6 119c7 7 237 7 363 7s356 0 363 -7s7 -209 7 -324v-507h-73c0 -3 0 -5 -1 -5c-6 -5 -193 -5 -296 -5c-125 0 -356 0 -363 5s-7 162 -7 253s0 249 7 254s238 5 363 5c67 0 169 -1 234 -1v1c0 90 0 253 -5 258s-148 5 -229 5s-224 0 -229 -5
c-2 -2 -3 -24 -4 -55zM186 1263h198l169 -184h-146zM450 439c-80 0 -224 0 -229 -4s-5 -121 -5 -187s0 -182 5 -186s149 -4 229 -4s224 0 229 4s5 120 5 186s0 183 -5 187s-149 4 -229 4z" />
    <glyph glyph-name="aogonek" unicode="&#x105;" horiz-adv-x="940" 
d="M869 -320h-264c-68 0 -130 0 -133 2c-5 3 -5 79 -5 126c0 108 149 88 226 143l66 49h-12c0 -3 0 -5 -1 -5c-6 -5 -193 -5 -296 -5c-125 0 -356 0 -363 5s-7 162 -7 253s0 249 7 254s238 5 363 5c67 0 169 -1 234 -1v1c0 90 0 253 -5 258s-148 5 -229 5s-224 0 -229 -5
c-2 -2 -3 -24 -4 -55l-136 2c1 65 2 116 6 119c7 7 237 7 363 7s356 0 363 -7s7 -209 7 -324v-461l11 8l-6 -54l-138 -104c-42 -30 -112 -34 -112 -88c0 -27 1 -72 4 -73s102 -1 156 -1h4c54 0 153 0 156 1s4 46 4 73l107 -94c-1 -18 -2 -31 -4 -32c-3 -2 -65 -2 -133 -2z
M450 439c-80 0 -224 0 -229 -4s-5 -121 -5 -187s0 -182 5 -186s149 -4 229 -4s224 0 229 4s5 120 5 186s0 183 -5 187s-149 4 -229 4z" />
    <glyph glyph-name="quotedbl" unicode="&#x22;" horiz-adv-x="590" 
d="M60 920h136v-299h-136v299zM530 920v-299h-136v299h136z" />
    <glyph glyph-name="t" unicode="t" horiz-adv-x="540" 
d="M44 760v68h158v122h136v-122h158v-68h-158v-760h-136v760h-158z" />
    <glyph glyph-name="question" unicode="?" horiz-adv-x="880" 
d="M352 311v183h68c76 0 216 0 220 4s4 116 4 180s0 176 -4 180s-144 4 -220 4s-216 0 -220 -4c-2 -2 -2 -28 -3 -62l-137 2c1 65 3 124 7 127c7 5 232 5 353 5s346 0 353 -5s7 -158 7 -247s0 -242 -7 -247c-6 -4 -163 -5 -285 -5v-115h-136zM420 173c30 0 83 0 85 -2
s2 -54 2 -84s0 -83 -2 -85s-55 -2 -85 -2s-83 0 -85 2s-2 55 -2 85s0 82 2 84s55 2 85 2z" />
    <glyph glyph-name="Adieresis" unicode="&#xc4;" horiz-adv-x="1110" 
d="M20 0l492 920h86l492 -920h-154l-82 154h-673l-82 -154h-79zM375 1127c31 0 86 0 88 -2s2 -57 2 -88s0 -86 -2 -88s-57 -2 -88 -2s-86 0 -88 2s-2 57 -2 88s0 86 2 88s57 2 88 2zM735 1127c31 0 86 0 88 -2s2 -57 2 -88s0 -86 -2 -88s-57 -2 -88 -2s-86 0 -88 2
s-2 57 -2 88s0 86 2 88s57 2 88 2zM817 222l-300 560l-299 -560h599z" />
    <glyph glyph-name="five" unicode="5" horiz-adv-x="960" 
d="M128 920h684v-68h-548v-370c61 66 148 104 240 104c128 0 360 0 368 -6s8 -188 8 -292c0 -105 0 -286 -8 -292s-263 -6 -402 -6s-394 0 -402 6c-4 3 -6 48 -7 105l137 3c1 -24 1 -40 3 -41c5 -5 176 -5 269 -5s264 0 269 5s5 145 5 225c0 79 0 220 -5 225s-153 5 -235 5
c-99 0 -190 -53 -240 -138h-136v540z" />
    <glyph glyph-name="Aring" unicode="&#xc5;" horiz-adv-x="1110" 
d="M20 0l492 920h86l492 -920h-154l-82 154h-673l-82 -154h-79zM817 222l-300 560l-299 -560h599zM555 1150c-30 0 -86 0 -88 -1s-2 -44 -2 -68s0 -67 2 -68s58 -1 88 -1s86 0 88 1s2 44 2 68s0 67 -2 68s-58 1 -88 1zM555 1196c61 0 173 -1 177 -3c3 -1 3 -32 3 -65v-94
c0 -33 0 -64 -3 -65c-4 -2 -116 -3 -177 -3s-173 1 -177 3c-3 1 -3 32 -3 65v94c0 33 0 64 3 65c4 2 116 3 177 3z" />
    <glyph glyph-name="z" unicode="z" horiz-adv-x="740" 
d="M50 760v68h640v-86l-481 -674h481v-68h-640v86l481 674h-481z" />
    <glyph glyph-name="Ccedilla" unicode="&#xc7;" horiz-adv-x="1350" 
d="M698 -266h4c54 0 153 0 156 1s4 46 4 73s-1 72 -4 73s-104 2 -158 2h-101l38 107c-212 0 -524 1 -535 9c-12 9 -12 296 -12 461s0 452 12 461s391 9 598 9s586 0 598 -9c7 -6 10 -109 11 -226l-136 -1c-1 86 -3 156 -8 160c-9 8 -303 8 -465 8s-456 0 -465 -8
s-9 -254 -9 -394s0 -386 9 -394s303 -8 465 -8s456 0 465 8c5 4 7 74 8 160l136 -1c-1 -117 -4 -220 -11 -226c-12 -9 -349 -9 -561 -9l-18 -53c93 0 241 0 246 -2c5 -3 5 -80 5 -127s0 -123 -5 -126c-3 -2 -65 -2 -133 -2h-264c-68 0 -130 0 -133 2c-4 2 -5 38 -5 76l109 1
c0 -13 2 -23 3 -24c3 -1 102 -1 156 -1z" />
    <glyph glyph-name="Idotaccent" unicode="&#x130;" horiz-adv-x="456" 
d="M160 0v920h136v-920h-136zM228 1127c31 0 86 0 88 -2s2 -57 2 -88s0 -86 -2 -88s-57 -2 -88 -2s-86 0 -88 2s-2 57 -2 88s0 86 2 88s57 2 88 2z" />
    <glyph glyph-name="sterling" unicode="&#xa3;" horiz-adv-x="960" 
d="M104 260v68h128v250c0 120 0 338 6 345s198 7 306 7s300 0 306 -7c4 -4 5 -76 6 -160l-137 -1c0 52 -1 91 -3 94c-4 6 -109 6 -172 6s-168 0 -172 -6s-4 -183 -4 -278v-250h382v-68h-382v-79c0 -33 -1 -77 -1 -113h489v-68h-752v68c44 0 122 0 125 2s3 72 3 111v79h-128z
" />
    <glyph glyph-name="eight" unicode="8" horiz-adv-x="1000" 
d="M505 449h-10c-93 0 -259 0 -264 -4s-5 -122 -5 -191s0 -188 5 -192s176 -4 269 -4s264 0 269 4s5 123 5 192s0 187 -5 191s-171 4 -264 4zM500 -10c-138 0 -394 0 -402 5s-8 166 -8 259s0 253 8 258c2 2 26 2 61 3c-1 51 -1 124 -1 175v63c0 79 1 168 6 172
c7 5 220 5 336 5s329 0 336 -5c5 -4 6 -93 6 -172v-63c0 -51 -1 -124 -1 -175c35 -1 59 -1 61 -3c8 -5 8 -165 8 -258s0 -254 -8 -259s-264 -5 -402 -5zM500 862c-70 0 -198 0 -202 -3s-4 -109 -4 -169s0 -167 4 -170s132 -3 202 -3s198 0 202 3s5 110 5 170s-1 166 -5 169
s-132 3 -202 3z" />
    <glyph glyph-name="Ntilde" unicode="&#xd1;" horiz-adv-x="1250" 
d="M140 0v920h86l748 -761v761h136v-920h-86l-748 761v-761h-136zM451 994h-108v52c0 37 0 72 3 74c2 2 47 2 96 2h93c64 0 116 -54 180 -54c28 0 80 0 82 1s2 43 2 67h108v-52c0 -37 0 -72 -3 -74c-4 -3 -124 -3 -189 -3c-64 0 -116 55 -180 55c-28 0 -80 0 -82 -1
s-2 -43 -2 -67z" />
    <glyph glyph-name="Z" unicode="Z" horiz-adv-x="1020" 
d="M50 852v68h920v-86l-752 -766h752v-68h-920v86l752 766h-752z" />
    <glyph glyph-name="T" unicode="T" horiz-adv-x="920" 
d="M34 852v68h852v-68h-358v-852h-136v852h-358z" />
    <glyph glyph-name="parenleft" unicode="(" horiz-adv-x="550" 
d="M127 972l121 -78c-22 -82 -22 -374 -22 -553s0 -471 22 -553l-121 -78c-37 57 -37 415 -37 631s0 574 37 631z" />
    <glyph glyph-name="Eacute" unicode="&#xc9;" horiz-adv-x="930" 
d="M140 0v920h720v-68h-584v-524h516v-68h-516v-192h584v-68h-720zM566 1173h198l-221 -184h-146z" />
    <glyph glyph-name="zcaron" unicode="&#x17e;" horiz-adv-x="740" 
d="M50 760v68h640v-86l-481 -674h481v-68h-640v86l481 674h-481zM489 1263h146l-167 -184h-196l-167 184h146l119 -101z" />
    <glyph glyph-name="IJ" unicode="&#x132;" horiz-adv-x="1210" 
d="M1080 920v-672c0 -91 0 -248 -7 -253s-234 -5 -357 -5s-350 0 -357 5c-4 3 -5 41 -6 91l137 3c1 -16 2 -26 3 -27c5 -4 145 -4 223 -4s218 0 223 4s5 120 5 186v672h136zM160 0v920h136v-920h-136z" />
    <glyph glyph-name="guilsinglleft" unicode="&#x2039;" horiz-adv-x="550" 
d="M239 414l221 -414h-149l-221 414l221 414h149z" />
    <glyph glyph-name="quotedblbase" unicode="&#x201e;" horiz-adv-x="920" 
d="M151 -184l146 299h146l-184 -299h-108zM642 115h146l-184 -299h-108z" />
    <glyph glyph-name="abreve" unicode="&#x103;" horiz-adv-x="940" 
d="M81 712c1 65 2 116 6 119c7 7 237 7 363 7s356 0 363 -7s7 -209 7 -324v-507h-73c0 -3 0 -5 -1 -5c-6 -5 -193 -5 -296 -5c-125 0 -356 0 -363 5s-7 162 -7 253s0 249 7 254s238 5 363 5c67 0 169 -1 234 -1v1c0 90 0 253 -5 258s-148 5 -229 5s-224 0 -229 -5
c-2 -2 -3 -24 -4 -55zM732 1231v-42c0 -44 -1 -90 -5 -92c-6 -3 -183 -3 -277 -3s-271 0 -277 3c-4 2 -5 48 -5 92v42h108c0 -28 1 -73 4 -75c2 -1 29 -1 64 -1h212c35 0 62 0 64 1c3 2 4 47 4 75h108zM450 439c-80 0 -224 0 -229 -4s-5 -121 -5 -187s0 -182 5 -186
s149 -4 229 -4s224 0 229 4s5 120 5 186s0 183 -5 187s-149 4 -229 4z" />
    <glyph glyph-name="G" unicode="G" horiz-adv-x="1430" 
d="M1232 -0c0 -9 -199 -10 -374 -10h-158c-207 0 -586 0 -598 9s-12 296 -12 461s0 452 12 461s391 9 598 9s586 0 598 -9c7 -5 10 -90 11 -192l-137 -2c-1 70 -3 123 -7 127c-9 8 -303 8 -465 8s-456 0 -465 -8s-9 -254 -9 -394s0 -386 9 -394s303 -8 465 -8
c160 0 456 0 465 6c7 4 8 100 9 196h-474v68h474v52h68v-52h68v-328h-78z" />
    <glyph glyph-name="h" unicode="h" horiz-adv-x="910" 
d="M130 0v950h136v-114c66 2 170 2 239 2c102 0 283 0 289 -6s6 -190 6 -293v-539h-136v539c0 78 0 221 -3 226s-100 5 -156 5c-82 0 -229 0 -234 -5s-5 -146 -5 -226v-539h-136z" />
    <glyph glyph-name="aacute" unicode="&#xe1;" horiz-adv-x="940" 
d="M81 712c1 65 2 116 6 119c7 7 237 7 363 7s356 0 363 -7s7 -209 7 -324v-507h-73c0 -3 0 -5 -1 -5c-6 -5 -193 -5 -296 -5c-125 0 -356 0 -363 5s-7 162 -7 253s0 249 7 254s238 5 363 5c67 0 169 -1 234 -1v1c0 90 0 253 -5 258s-148 5 -229 5s-224 0 -229 -5
c-2 -2 -3 -24 -4 -55zM516 1263h198l-221 -184h-146zM450 439c-80 0 -224 0 -229 -4s-5 -121 -5 -187s0 -182 5 -186s149 -4 229 -4s224 0 229 4s5 120 5 186s0 183 -5 187s-149 4 -229 4z" />
    <glyph glyph-name="eacute" unicode="&#xe9;" horiz-adv-x="990" 
d="M919 145c-1 -79 -2 -144 -7 -148c-8 -7 -269 -7 -412 -7c-145 0 -404 0 -412 8s-8 270 -8 416s0 408 8 416s267 8 412 8s404 0 412 -8s8 -270 8 -416v-34h-704c0 -124 1 -309 6 -315c6 -7 179 -7 278 -7c98 0 272 0 278 6c2 2 4 37 5 83zM566 1263h198l-221 -184h-146z
M784 448c0 124 -1 309 -6 315c-6 7 -179 7 -278 7s-272 0 -278 -7c-5 -6 -6 -191 -6 -315h568z" />
    <glyph glyph-name="Scaron" unicode="&#x160;" horiz-adv-x="1040" 
d="M81 102l136 2c1 -24 3 -41 5 -42c6 -4 193 -4 293 -4s287 0 293 4s6 115 6 180s0 176 -6 180s-193 4 -293 4c-146 0 -417 0 -426 5s-9 157 -9 247s0 242 9 247s280 5 426 5s417 0 426 -5c5 -3 7 -46 8 -100l-137 -2c-1 20 -2 34 -4 35c-6 4 -193 4 -293 4s-287 0 -293 -4
s-6 -115 -6 -180s0 -176 6 -180s193 -4 293 -4c146 0 417 0 426 -5s9 -157 9 -247s0 -242 -9 -247s-280 -5 -426 -5s-417 0 -426 5c-5 3 -7 50 -8 107zM634 1150h146l-167 -184h-196l-167 184h146l119 -101z" />
    <glyph glyph-name="greater" unicode="&#x3e;" horiz-adv-x="980" 
d="M742 414l-662 307v146l820 -380v-146l-820 -380v146z" />
    <glyph glyph-name="oe" unicode="&#x153;" horiz-adv-x="1580" 
d="M1509 145c-1 -79 -3 -144 -7 -148c-8 -7 -248 -7 -381 -7c-94 0 -240 3 -321 3c-81 -3 -227 -3 -321 -3c-135 0 -373 0 -381 8s-8 271 -8 416s0 408 8 416s246 8 381 8c94 0 240 -3 321 -3c81 3 227 3 321 3c135 0 373 0 381 -8s8 -271 8 -416v-34h-642
c0 -124 0 -309 5 -315c5 -7 159 -7 248 -7c88 0 243 0 248 6c2 2 3 36 4 82zM479 770c-89 0 -243 0 -248 -7s-5 -229 -5 -349s0 -342 5 -349s159 -7 248 -7s243 0 248 7s5 229 5 349s0 342 -5 349s-159 7 -248 7zM1374 448c0 124 0 309 -5 315c-5 7 -159 7 -248 7
s-243 0 -248 -7c-5 -6 -5 -191 -5 -315h506z" />
    <glyph glyph-name="Nacute" unicode="&#x143;" horiz-adv-x="1250" 
d="M140 0v920h86l748 -761v761h136v-920h-86l-748 761v-761h-136zM691 1173h198l-221 -184h-146z" />
    <glyph glyph-name="lacute" unicode="&#x13a;" horiz-adv-x="376" 
d="M120 0v950h136v-950h-136zM276 1188h198l-221 -184h-147z" />
    <glyph glyph-name="less" unicode="&#x3c;" horiz-adv-x="980" 
d="M238 414l662 -307v-146l-820 380v146l820 380v-146z" />
    <glyph glyph-name="asciicircum" unicode="^" horiz-adv-x="1080" 
d="M540 803l-309 -435h-166l392 552h166l392 -552h-166z" />
    <glyph glyph-name="seven" unicode="7" 
d="M80 852v68h770v-86l-486 -834h-154l496 852h-626z" />
    <glyph glyph-name="Ocircumflex" unicode="&#xd4;" horiz-adv-x="1400" 
d="M700 862c-162 0 -456 0 -465 -8s-9 -254 -9 -394s0 -386 9 -394s303 -8 465 -8s456 0 465 8s9 254 9 394s0 386 -9 394s-303 8 -465 8zM700 930c207 0 586 0 598 -9s12 -296 12 -461s0 -452 -12 -461s-391 -9 -598 -9s-586 0 -598 9s-12 296 -12 461s0 452 12 461
s391 9 598 9zM700 1090l-119 -101h-146l167 184h196l167 -184h-146z" />
    <glyph glyph-name="F" unicode="F" horiz-adv-x="900" 
d="M140 0v920h720v-68h-584v-524h516v-68h-516v-260h-136z" />
    <glyph glyph-name="tilde" unicode="&#x2dc;" horiz-adv-x="420" 
d="M36 741h-108v52c0 37 0 72 3 74c2 2 47 2 96 2h93c64 0 116 -54 180 -54c28 0 80 0 82 1s2 43 2 67h108v-52c0 -37 0 -72 -3 -74c-4 -3 -122 -3 -187 -3h-2c-64 0 -116 55 -180 55c-28 0 -80 0 -82 -1s-2 -43 -2 -67z" />
    <glyph glyph-name="iacute" unicode="&#xed;" horiz-adv-x="380" 
d="M122 0v828h136v-828h-136zM256 1263h198l-221 -184h-146z" />
    <glyph glyph-name="Otilde" unicode="&#xd5;" horiz-adv-x="1400" 
d="M526 994h-108v52c0 37 0 72 3 74c2 2 47 2 96 2h93c64 0 116 -54 180 -54c28 0 80 0 82 1s2 43 2 67h108v-52c0 -37 0 -72 -3 -74c-4 -3 -124 -3 -189 -3c-64 0 -116 55 -180 55c-28 0 -80 0 -82 -1s-2 -43 -2 -67zM700 862c-162 0 -456 0 -465 -8s-9 -254 -9 -394
s0 -386 9 -394s303 -8 465 -8s456 0 465 8s9 254 9 394s0 386 -9 394s-303 8 -465 8zM700 930c207 0 586 0 598 -9s12 -296 12 -461s0 -452 -12 -461s-391 -9 -598 -9s-586 0 -598 9s-12 296 -12 461s0 452 12 461s391 9 598 9z" />
    <glyph glyph-name="parenright" unicode=")" horiz-adv-x="550" 
d="M423 -290l-121 78c22 82 22 374 22 553s0 471 -22 553l121 78c37 -57 37 -415 37 -631s0 -574 -37 -631z" />
    <glyph glyph-name="germandbls" unicode="&#xdf;" horiz-adv-x="990" 
d="M120 0v701c0 81 0 219 7 224s214 5 326 5s319 0 326 -5s7 -143 7 -224c0 -47 -2 -113 -2 -162c55 -1 95 -3 98 -5c8 -6 8 -172 8 -269c0 -95 0 -263 -6 -269s-198 -6 -304 -6c-114 0 -321 0 -328 6c-1 0 -1 1 -1 4h-131zM453 862c-67 0 -189 0 -193 -3s-4 -102 -4 -158
v-604l127 2c1 -21 2 -36 3 -37c4 -4 126 -4 194 -4c61 0 168 0 171 4s3 133 3 203c0 72 0 199 -5 203s-159 4 -244 4h-85v68h85c50 0 139 0 142 3s3 103 3 158c0 56 0 155 -4 158s-126 3 -193 3z" />
    <glyph glyph-name="a" unicode="a" horiz-adv-x="940" 
d="M81 712c1 65 2 116 6 119c7 7 237 7 363 7s356 0 363 -7s7 -209 7 -324v-507h-73c0 -3 0 -5 -1 -5c-6 -5 -193 -5 -296 -5c-125 0 -356 0 -363 5s-7 162 -7 253s0 249 7 254s238 5 363 5c67 0 169 -1 234 -1v1c0 90 0 253 -5 258s-148 5 -229 5s-224 0 -229 -5
c-2 -2 -3 -24 -4 -55zM450 439c-80 0 -224 0 -229 -4s-5 -121 -5 -187s0 -182 5 -186s149 -4 229 -4s224 0 229 4s5 120 5 186s0 183 -5 187s-149 4 -229 4z" />
    <glyph glyph-name="scedilla" unicode="&#x15f;" horiz-adv-x="800" 
d="M398 -266h4c54 0 153 0 156 1s4 46 4 73s-1 72 -4 73s-104 2 -158 2h-101l38 107c-116 0 -264 1 -270 5c-4 2 -5 44 -6 95l136 2c1 -18 2 -30 3 -31c4 -3 131 -3 200 -3s196 0 200 3s4 102 4 158s0 155 -4 158s-131 3 -200 3c-114 0 -326 0 -333 5s-7 143 -7 224
s0 219 7 224s219 5 333 5s326 0 333 -5c4 -2 5 -41 6 -90l-136 -2c-1 15 -2 25 -3 26c-4 3 -131 3 -200 3s-196 0 -200 -3s-4 -102 -4 -158s0 -155 4 -158s131 -3 200 -3c114 0 326 0 333 -5s7 -143 7 -224s0 -219 -7 -224c-6 -4 -178 -5 -296 -5l-18 -53c93 0 241 0 246 -2
c5 -3 5 -80 5 -127s0 -123 -5 -126c-3 -2 -65 -2 -133 -2h-264c-68 0 -130 0 -133 2c-4 2 -5 38 -5 76l109 1c0 -13 2 -23 3 -24c3 -1 102 -1 156 -1z" />
    <glyph glyph-name="ugrave" unicode="&#xf9;" 
d="M830 828v-828h-73c0 -2 -1 -4 -1 -4c-6 -6 -185 -6 -286 -6c-123 0 -346 0 -353 6s-7 189 -7 293v539h136v-539c0 -79 0 -221 4 -226s143 -5 220 -5s216 0 220 5s4 147 4 226v539h136zM206 1263h198l169 -184h-146z" />
    <glyph glyph-name="uacute" unicode="&#xfa;" 
d="M830 828v-828h-73c0 -2 -1 -4 -1 -4c-6 -6 -185 -6 -286 -6c-123 0 -346 0 -353 6s-7 189 -7 293v539h136v-539c0 -79 0 -221 4 -226s143 -5 220 -5s216 0 220 5s4 147 4 226v539h136zM536 1263h198l-221 -184h-146z" />
    <glyph glyph-name="Ncaron" unicode="&#x147;" horiz-adv-x="1250" 
d="M140 0v920h86l748 -761v761h136v-920h-86l-748 761v-761h-136zM744 1173h146l-167 -184h-196l-167 184h146l119 -101z" />
    <glyph glyph-name="one" unicode="1" horiz-adv-x="680" 
d="M322 0v750l-242 -114v146l292 138h86v-920h-136z" />
    <glyph glyph-name="f" unicode="f" horiz-adv-x="590" 
d="M84 760v68h133v48c0 31 0 80 4 82s119 2 181 2s178 0 182 -2c3 -1 4 -26 4 -51l-136 -31c0 6 0 16 -1 16h-97c-1 0 -1 -10 -1 -16v-48h133v-68h-133v-760h-136v760h-133z" />
    <glyph glyph-name="Ugrave" unicode="&#xd9;" horiz-adv-x="1188" 
d="M1054 920v-629c0 -107 0 -289 -9 -295s-296 -6 -451 -6s-442 0 -451 6s-9 188 -9 295v629h136v-629c0 -82 0 -223 6 -228s209 -5 318 -5s312 0 318 5s6 146 6 228v629h136zM330 1173h198l169 -184h-146z" />
    <glyph glyph-name="macron" unicode="&#xaf;" horiz-adv-x="420" 
d="M-36 775v60h492v-60h-492z" />
    <glyph glyph-name="dash" horiz-adv-x="630" 
d="M80 380v68h470v-68h-470z" />
    <glyph glyph-name="thorn" unicode="&#xfe;" horiz-adv-x="1020" 
d="M120 -300v1220h136v-85c73 3 194 3 274 3c141 0 394 0 402 -8s8 -270 8 -416s0 -408 -8 -416s-261 -8 -402 -8c-80 0 -201 3 -274 3v-293h-136zM530 770c-96 0 -264 0 -269 -7s-5 -228 -5 -349s0 -342 5 -349s173 -7 269 -7s264 0 269 7s5 228 5 349s0 342 -5 349
s-173 7 -269 7z" />
    <glyph glyph-name="space" unicode=" " horiz-adv-x="600" 
 />
    </font>
</defs>
</svg>
